G04*
G04 #@! TF.GenerationSoftware,Altium Limited,Altium Designer,21.7.2 (23)*
G04*
G04 Layer_Color=16711935*
%FSLAX25Y25*%
%MOIN*%
G70*
G04*
G04 #@! TF.SameCoordinates,8516E6F5-4896-463E-9EC1-BE868EEF7334*
G04*
G04*
G04 #@! TF.FilePolarity,Negative*
G04*
G01*
G75*
%ADD11C,0.01000*%
%ADD49C,0.06706*%
%ADD50R,0.06706X0.06706*%
%ADD51R,0.07493X0.07493*%
%ADD52C,0.07493*%
%ADD53R,0.07493X0.07493*%
%ADD54C,0.10642*%
%ADD55O,0.14580X0.10642*%
%ADD56C,0.09461*%
%ADD57C,0.20485*%
%ADD58C,0.02769*%
%ADD59C,0.03200*%
D11*
X581500Y211000D02*
G03*
X589199Y219199I-250J7949D01*
G01*
Y490301D02*
G03*
X579500Y500000I-9699J0D01*
G01*
X197743Y222257D02*
G03*
X209000Y211000I11257J0D01*
G01*
X204500Y499500D02*
G03*
X197698Y492698I0J-6802D01*
G01*
X197500Y221500D02*
Y492443D01*
X589199Y219199D02*
Y490301D01*
X204500Y499501D02*
X579481Y499988D01*
X208500Y210954D02*
X581620Y210954D01*
D49*
X505315Y372500D02*
D03*
X515158Y372500D02*
D03*
X525000D02*
D03*
X534842D02*
D03*
X495472D02*
D03*
D50*
X544685Y372500D02*
D03*
D51*
X428500Y362000D02*
D03*
X400500Y481000D02*
D03*
X285500Y349000D02*
D03*
X225500Y268000D02*
D03*
X314500Y279500D02*
D03*
X502500Y235000D02*
D03*
X504500Y340000D02*
D03*
D52*
X418500Y362000D02*
D03*
X408500D02*
D03*
X398500D02*
D03*
X388500D02*
D03*
X378500D02*
D03*
X368500D02*
D03*
X358500D02*
D03*
X410500Y481000D02*
D03*
X420500D02*
D03*
X430500D02*
D03*
X440500D02*
D03*
X448000Y424500D02*
D03*
Y414500D02*
D03*
Y404500D02*
D03*
X225500Y349000D02*
D03*
X235500D02*
D03*
X245500D02*
D03*
X255500D02*
D03*
X265500D02*
D03*
X275500D02*
D03*
X285500Y268000D02*
D03*
X275500D02*
D03*
X265500D02*
D03*
X255500D02*
D03*
X245500D02*
D03*
X235500D02*
D03*
X464500Y279500D02*
D03*
X454500Y279500D02*
D03*
X444500Y279500D02*
D03*
X434500D02*
D03*
X424500D02*
D03*
X414500D02*
D03*
X404500D02*
D03*
X394500D02*
D03*
X384500D02*
D03*
X374500D02*
D03*
X364500D02*
D03*
X354500D02*
D03*
X344500D02*
D03*
X334500D02*
D03*
X324500D02*
D03*
X474500D02*
D03*
X484500D02*
D03*
X494500D02*
D03*
X504500D02*
D03*
X552500Y235000D02*
D03*
X542500D02*
D03*
X532500D02*
D03*
X522500D02*
D03*
X512500D02*
D03*
X314500Y340000D02*
D03*
X324500Y340000D02*
D03*
X334500D02*
D03*
X344500D02*
D03*
X494500D02*
D03*
X484500D02*
D03*
X474500D02*
D03*
X464500D02*
D03*
X454500D02*
D03*
X444500D02*
D03*
X434500D02*
D03*
X424500D02*
D03*
X414500D02*
D03*
X404500D02*
D03*
X394500D02*
D03*
X384500D02*
D03*
X374500D02*
D03*
X364500D02*
D03*
X354500D02*
D03*
X380500Y238000D02*
D03*
X340500D02*
D03*
X350500D02*
D03*
X360500D02*
D03*
X370500D02*
D03*
X479000D02*
D03*
X439000D02*
D03*
X449000D02*
D03*
X459000D02*
D03*
X469000D02*
D03*
D53*
X448000Y434500D02*
D03*
X330500Y238000D02*
D03*
X429000D02*
D03*
D54*
X214000Y412496D02*
D03*
Y431000D02*
D03*
Y449504D02*
D03*
D55*
X213000Y370000D02*
D03*
Y390000D02*
D03*
D56*
X533291Y334600D02*
D03*
X564000D02*
D03*
D57*
X578000Y488500D02*
D03*
Y222000D02*
D03*
X209000D02*
D03*
Y488000D02*
D03*
D58*
X504500Y449500D02*
D03*
X504476Y452500D02*
D03*
X504500Y455000D02*
D03*
X504476Y457500D02*
D03*
X285505Y369500D02*
D03*
Y372500D02*
D03*
X292000Y369500D02*
D03*
X289500D02*
D03*
X292000Y372500D02*
D03*
X289500D02*
D03*
X292000Y375500D02*
D03*
X289500D02*
D03*
X287000D02*
D03*
X284500D02*
D03*
X570000Y288000D02*
D03*
Y282000D02*
D03*
X411500Y261500D02*
D03*
X407000D02*
D03*
X402500D02*
D03*
X397500D02*
D03*
X393000D02*
D03*
X353500Y475441D02*
D03*
X567500Y285000D02*
D03*
X570000D02*
D03*
X568500Y251000D02*
D03*
X570000Y265500D02*
D03*
X268000Y247000D02*
D03*
X235000Y223000D02*
D03*
X206000Y247500D02*
D03*
X222500Y312000D02*
D03*
X355000Y417000D02*
D03*
X352000D02*
D03*
X348500D02*
D03*
X355000Y420019D02*
D03*
X352000D02*
D03*
X348500D02*
D03*
X226500Y445500D02*
D03*
Y448500D02*
D03*
Y451500D02*
D03*
X230000D02*
D03*
Y448500D02*
D03*
Y445500D02*
D03*
X284000Y489500D02*
D03*
Y485500D02*
D03*
Y481500D02*
D03*
X280500Y489500D02*
D03*
X277000D02*
D03*
X273500D02*
D03*
X280500Y485500D02*
D03*
X277000D02*
D03*
X273500D02*
D03*
Y481500D02*
D03*
X277000D02*
D03*
X280500D02*
D03*
X302000Y452000D02*
D03*
X299000D02*
D03*
X296000D02*
D03*
X302000Y455500D02*
D03*
X299000D02*
D03*
X296000D02*
D03*
X302000Y458824D02*
D03*
X299000D02*
D03*
X296000D02*
D03*
D59*
X258032Y444969D02*
D03*
X261969D02*
D03*
Y441032D02*
D03*
X258032Y441032D02*
D03*
M02*
