G04*
G04 #@! TF.GenerationSoftware,Altium Limited,Altium Designer,21.7.2 (23)*
G04*
G04 Layer_Color=128*
%FSLAX25Y25*%
%MOIN*%
G70*
G04*
G04 #@! TF.SameCoordinates,8516E6F5-4896-463E-9EC1-BE868EEF7334*
G04*
G04*
G04 #@! TF.FilePolarity,Positive*
G04*
G01*
G75*
%ADD11C,0.01000*%
%ADD89C,0.00200*%
D11*
X581500Y211000D02*
G03*
X589199Y219199I-250J7949D01*
G01*
Y490301D02*
G03*
X579500Y500000I-9699J0D01*
G01*
X197743Y222257D02*
G03*
X209000Y211000I11257J0D01*
G01*
X204500Y499500D02*
G03*
X197698Y492698I0J-6802D01*
G01*
X197500Y221500D02*
Y492443D01*
X589199Y219199D02*
Y490301D01*
X204500Y499501D02*
X579481Y499988D01*
X208500Y210954D02*
X581620Y210954D01*
D89*
X503543Y372500D02*
X507087D01*
X505315Y370728D02*
Y374272D01*
X513386Y372500D02*
X516929D01*
X515158Y370728D02*
Y374272D01*
X523228Y372500D02*
X526772D01*
X525000Y370728D02*
Y374272D01*
X533071Y372500D02*
X536614D01*
X534842Y370728D02*
Y374272D01*
X542913Y372500D02*
X546457D01*
X544685Y370728D02*
Y374272D01*
X493701Y372500D02*
X497244D01*
X495472Y370728D02*
Y374272D01*
X426728Y362000D02*
X430272D01*
X428500Y360228D02*
Y363772D01*
X416728Y362000D02*
X420272D01*
X418500Y360228D02*
Y363772D01*
X406728Y362000D02*
X410272D01*
X408500Y360228D02*
Y363772D01*
X396728Y362000D02*
X400272D01*
X398500Y360228D02*
Y363772D01*
X386728Y362000D02*
X390272D01*
X388500Y360228D02*
Y363772D01*
X376728Y362000D02*
X380272D01*
X378500Y360228D02*
Y363772D01*
X366728Y362000D02*
X370272D01*
X368500Y360228D02*
Y363772D01*
X356728Y362000D02*
X360272D01*
X358500Y360228D02*
Y363772D01*
X398728Y481000D02*
X402272D01*
X400500Y479228D02*
Y482772D01*
X408728Y481000D02*
X412272D01*
X410500Y479228D02*
Y482772D01*
X418728Y481000D02*
X422272D01*
X420500Y479228D02*
Y482772D01*
X428728Y481000D02*
X432272D01*
X430500Y479228D02*
Y482772D01*
X438728Y481000D02*
X442272D01*
X440500Y479228D02*
Y482772D01*
X446228Y434500D02*
X449772D01*
X448000Y432728D02*
Y436272D01*
X446228Y424500D02*
X449772D01*
X448000Y422728D02*
Y426272D01*
X446228Y414500D02*
X449772D01*
X448000Y412728D02*
Y416272D01*
X446228Y404500D02*
X449772D01*
X448000Y402728D02*
Y406272D01*
X210653Y412496D02*
X217347D01*
X214000Y409150D02*
Y415842D01*
X210653Y431000D02*
X217347D01*
X214000Y427654D02*
Y434346D01*
X210653Y449504D02*
X217347D01*
X214000Y446158D02*
Y452850D01*
X210638Y370000D02*
X215362D01*
X213000Y367638D02*
Y372362D01*
X210638Y390000D02*
X215362D01*
X213000Y387638D02*
Y392362D01*
X223728Y349000D02*
X227272D01*
X225500Y347228D02*
Y350772D01*
X233728Y349000D02*
X237272D01*
X235500Y347228D02*
Y350772D01*
X243728Y349000D02*
X247272D01*
X245500Y347228D02*
Y350772D01*
X253728Y349000D02*
X257272D01*
X255500Y347228D02*
Y350772D01*
X263728Y349000D02*
X267272D01*
X265500Y347228D02*
Y350772D01*
X273728Y349000D02*
X277272D01*
X275500Y347228D02*
Y350772D01*
X283728Y349000D02*
X287272D01*
X285500Y347228D02*
Y350772D01*
X283728Y268000D02*
X287272D01*
X285500Y266228D02*
Y269772D01*
X273728Y268000D02*
X277272D01*
X275500Y266228D02*
Y269772D01*
X263728Y268000D02*
X267272D01*
X265500Y266228D02*
Y269772D01*
X253728Y268000D02*
X257272D01*
X255500Y266228D02*
Y269772D01*
X243728Y268000D02*
X247272D01*
X245500Y266228D02*
Y269772D01*
X233728Y268000D02*
X237272D01*
X235500Y266228D02*
Y269772D01*
X223728Y268000D02*
X227272D01*
X225500Y266228D02*
Y269772D01*
X462728Y279500D02*
X466272D01*
X464500Y277728D02*
Y281272D01*
X452728Y279500D02*
X456272D01*
X454500Y277728D02*
Y281272D01*
X442728Y279500D02*
X446272D01*
X444500Y277728D02*
Y281272D01*
X432728Y279500D02*
X436272D01*
X434500Y277728D02*
Y281272D01*
X422728Y279500D02*
X426272D01*
X424500Y277728D02*
Y281272D01*
X412728Y279500D02*
X416272D01*
X414500Y277728D02*
Y281272D01*
X402728Y279500D02*
X406272D01*
X404500Y277728D02*
Y281272D01*
X392728Y279500D02*
X396272D01*
X394500Y277728D02*
Y281272D01*
X382728Y279500D02*
X386272D01*
X384500Y277728D02*
Y281272D01*
X372728Y279500D02*
X376272D01*
X374500Y277728D02*
Y281272D01*
X362728Y279500D02*
X366272D01*
X364500Y277728D02*
Y281272D01*
X352728Y279500D02*
X356272D01*
X354500Y277728D02*
Y281272D01*
X342728Y279500D02*
X346272D01*
X344500Y277728D02*
Y281272D01*
X332728Y279500D02*
X336272D01*
X334500Y277728D02*
Y281272D01*
X322728Y279500D02*
X326272D01*
X324500Y277728D02*
Y281272D01*
X312728Y279500D02*
X316272D01*
X314500Y277728D02*
Y281272D01*
X473000Y279500D02*
X476000D01*
X474500Y278000D02*
Y281000D01*
X483000Y279500D02*
X486000D01*
X484500Y278000D02*
Y281000D01*
X493000Y279500D02*
X496000D01*
X494500Y278000D02*
Y281000D01*
X503000Y279500D02*
X506000D01*
X504500Y278000D02*
Y281000D01*
X550728Y235000D02*
X554272D01*
X552500Y233228D02*
Y236772D01*
X540728Y235000D02*
X544272D01*
X542500Y233228D02*
Y236772D01*
X530728Y235000D02*
X534272D01*
X532500Y233228D02*
Y236772D01*
X520728Y235000D02*
X524272D01*
X522500Y233228D02*
Y236772D01*
X510728Y235000D02*
X514272D01*
X512500Y233228D02*
Y236772D01*
X500728Y235000D02*
X504272D01*
X502500Y233228D02*
Y236772D01*
X531323Y334600D02*
X535260D01*
X533291Y332631D02*
Y336568D01*
X562032Y334600D02*
X565969D01*
X564000Y332631D02*
Y336568D01*
X572094Y488500D02*
X583906D01*
X578000Y482594D02*
Y494406D01*
X572094Y222000D02*
X583906D01*
X578000Y216094D02*
Y227906D01*
X203095Y222000D02*
X214906D01*
X209000Y216094D02*
Y227906D01*
X203095Y488000D02*
X214906D01*
X209000Y482094D02*
Y493905D01*
X313000Y340000D02*
X316000D01*
X314500Y338500D02*
Y341500D01*
X323000Y340000D02*
X326000D01*
X324500Y338500D02*
Y341500D01*
X333000Y340000D02*
X336000D01*
X334500Y338500D02*
Y341500D01*
X343000Y340000D02*
X346000D01*
X344500Y338500D02*
Y341500D01*
X502728Y340000D02*
X506272D01*
X504500Y338228D02*
Y341772D01*
X492728Y340000D02*
X496272D01*
X494500Y338228D02*
Y341772D01*
X482728Y340000D02*
X486272D01*
X484500Y338228D02*
Y341772D01*
X472728Y340000D02*
X476272D01*
X474500Y338228D02*
Y341772D01*
X462728Y340000D02*
X466272D01*
X464500Y338228D02*
Y341772D01*
X452728Y340000D02*
X456272D01*
X454500Y338228D02*
Y341772D01*
X442728Y340000D02*
X446272D01*
X444500Y338228D02*
Y341772D01*
X432728Y340000D02*
X436272D01*
X434500Y338228D02*
Y341772D01*
X422728Y340000D02*
X426272D01*
X424500Y338228D02*
Y341772D01*
X412728Y340000D02*
X416272D01*
X414500Y338228D02*
Y341772D01*
X402728Y340000D02*
X406272D01*
X404500Y338228D02*
Y341772D01*
X392728Y340000D02*
X396272D01*
X394500Y338228D02*
Y341772D01*
X382728Y340000D02*
X386272D01*
X384500Y338228D02*
Y341772D01*
X372728Y340000D02*
X376272D01*
X374500Y338228D02*
Y341772D01*
X362728Y340000D02*
X366272D01*
X364500Y338228D02*
Y341772D01*
X352728Y340000D02*
X356272D01*
X354500Y338228D02*
Y341772D01*
X378728Y238000D02*
X382272D01*
X380500Y236228D02*
Y239772D01*
X328728Y238000D02*
X332272D01*
X330500Y236228D02*
Y239772D01*
X338728Y238000D02*
X342272D01*
X340500Y236228D02*
Y239772D01*
X348728Y238000D02*
X352272D01*
X350500Y236228D02*
Y239772D01*
X358728Y238000D02*
X362272D01*
X360500Y236228D02*
Y239772D01*
X368728Y238000D02*
X372272D01*
X370500Y236228D02*
Y239772D01*
X477228Y238000D02*
X480772D01*
X479000Y236228D02*
Y239772D01*
X427228Y238000D02*
X430772D01*
X429000Y236228D02*
Y239772D01*
X437228Y238000D02*
X440772D01*
X439000Y236228D02*
Y239772D01*
X447228Y238000D02*
X450772D01*
X449000Y236228D02*
Y239772D01*
X457228Y238000D02*
X460772D01*
X459000Y236228D02*
Y239772D01*
X467228Y238000D02*
X470772D01*
X469000Y236228D02*
Y239772D01*
X504008Y449500D02*
X504992D01*
X504500Y449008D02*
Y449992D01*
X503984Y452500D02*
X504968D01*
X504476Y452008D02*
Y452992D01*
X504008Y455000D02*
X504992D01*
X504500Y454508D02*
Y455492D01*
X503984Y457500D02*
X504968D01*
X504476Y457008D02*
Y457992D01*
X285013Y369500D02*
X285997D01*
X285505Y369008D02*
Y369992D01*
X285013Y372500D02*
X285997D01*
X285505Y372008D02*
Y372992D01*
X291508Y369500D02*
X292492D01*
X292000Y369008D02*
Y369992D01*
X289008Y369500D02*
X289992D01*
X289500Y369008D02*
Y369992D01*
X291508Y372500D02*
X292492D01*
X292000Y372008D02*
Y372992D01*
X289008Y372500D02*
X289992D01*
X289500Y372008D02*
Y372992D01*
X291508Y375500D02*
X292492D01*
X292000Y375008D02*
Y375992D01*
X289008Y375500D02*
X289992D01*
X289500Y375008D02*
Y375992D01*
X286508Y375500D02*
X287492D01*
X287000Y375008D02*
Y375992D01*
X284008Y375500D02*
X284992D01*
X284500Y375008D02*
Y375992D01*
X569508Y288000D02*
X570492D01*
X570000Y287508D02*
Y288492D01*
X569508Y282000D02*
X570492D01*
X570000Y281508D02*
Y282492D01*
X411008Y261500D02*
X411992D01*
X411500Y261008D02*
Y261992D01*
X406508Y261500D02*
X407492D01*
X407000Y261008D02*
Y261992D01*
X402008Y261500D02*
X402992D01*
X402500Y261008D02*
Y261992D01*
X397008Y261500D02*
X397992D01*
X397500Y261008D02*
Y261992D01*
X392508Y261500D02*
X393492D01*
X393000Y261008D02*
Y261992D01*
X353008Y475441D02*
X353992D01*
X353500Y474949D02*
Y475933D01*
X567008Y285000D02*
X567992D01*
X567500Y284508D02*
Y285492D01*
X569508Y285000D02*
X570492D01*
X570000Y284508D02*
Y285492D01*
X568008Y251000D02*
X568992D01*
X568500Y250508D02*
Y251492D01*
X569508Y265500D02*
X570492D01*
X570000Y265008D02*
Y265992D01*
X267508Y247000D02*
X268492D01*
X268000Y246508D02*
Y247492D01*
X234508Y223000D02*
X235492D01*
X235000Y222508D02*
Y223492D01*
X205508Y247500D02*
X206492D01*
X206000Y247008D02*
Y247992D01*
X222008Y312000D02*
X222992D01*
X222500Y311508D02*
Y312492D01*
X354508Y417000D02*
X355492D01*
X355000Y416508D02*
Y417492D01*
X351508Y417000D02*
X352492D01*
X352000Y416508D02*
Y417492D01*
X348008Y417000D02*
X348992D01*
X348500Y416508D02*
Y417492D01*
X354508Y420019D02*
X355492D01*
X355000Y419527D02*
Y420511D01*
X351508Y420019D02*
X352492D01*
X352000Y419527D02*
Y420511D01*
X348008Y420019D02*
X348992D01*
X348500Y419527D02*
Y420511D01*
X226008Y445500D02*
X226992D01*
X226500Y445008D02*
Y445992D01*
X226008Y448500D02*
X226992D01*
X226500Y448008D02*
Y448992D01*
X226008Y451500D02*
X226992D01*
X226500Y451008D02*
Y451992D01*
X229508Y451500D02*
X230492D01*
X230000Y451008D02*
Y451992D01*
X229508Y448500D02*
X230492D01*
X230000Y448008D02*
Y448992D01*
X229508Y445500D02*
X230492D01*
X230000Y445008D02*
Y445992D01*
X283508Y489500D02*
X284492D01*
X284000Y489008D02*
Y489992D01*
X283508Y485500D02*
X284492D01*
X284000Y485008D02*
Y485992D01*
X283508Y481500D02*
X284492D01*
X284000Y481008D02*
Y481992D01*
X280008Y489500D02*
X280992D01*
X280500Y489008D02*
Y489992D01*
X276508Y489500D02*
X277492D01*
X277000Y489008D02*
Y489992D01*
X273008Y489500D02*
X273992D01*
X273500Y489008D02*
Y489992D01*
X280008Y485500D02*
X280992D01*
X280500Y485008D02*
Y485992D01*
X276508Y485500D02*
X277492D01*
X277000Y485008D02*
Y485992D01*
X273008Y485500D02*
X273992D01*
X273500Y485008D02*
Y485992D01*
X273008Y481500D02*
X273992D01*
X273500Y481008D02*
Y481992D01*
X276508Y481500D02*
X277492D01*
X277000Y481008D02*
Y481992D01*
X280008Y481500D02*
X280992D01*
X280500Y481008D02*
Y481992D01*
X301508Y452000D02*
X302492D01*
X302000Y451508D02*
Y452492D01*
X298508Y452000D02*
X299492D01*
X299000Y451508D02*
Y452492D01*
X295508Y452000D02*
X296492D01*
X296000Y451508D02*
Y452492D01*
X301508Y455500D02*
X302492D01*
X302000Y455008D02*
Y455992D01*
X298508Y455500D02*
X299492D01*
X299000Y455008D02*
Y455992D01*
X295508Y455500D02*
X296492D01*
X296000Y455008D02*
Y455992D01*
X301508Y458824D02*
X302492D01*
X302000Y458332D02*
Y459316D01*
X298508Y458824D02*
X299492D01*
X299000Y458332D02*
Y459316D01*
X295508Y458824D02*
X296492D01*
X296000Y458332D02*
Y459316D01*
X257432Y444969D02*
X258632D01*
X258032Y444369D02*
Y445569D01*
X261369Y444969D02*
X262569D01*
X261969Y444369D02*
Y445569D01*
X261369Y441032D02*
X262569D01*
X261969Y440432D02*
Y441632D01*
X257432Y441032D02*
X258632D01*
X258032Y440432D02*
Y441632D01*
M02*
