M48
;Layer_Color=9474304
;FILE_FORMAT=2:5
INCH,TZ
;TYPE=PLATED
T1F00S00C0.00984
T2F00S00C0.01200
T3F00S00C0.03000
T4F00S00C0.03543
T5F00S00C0.03937
T6F00S00C0.04724
T7F00S00C0.06693
T8F00S00C0.11811
%
T01
X568500Y251000
X570000Y265500
Y282000
Y285000
X567500
X570000Y288000
X411500Y261500
X407000
X402500
X397500
X393000
X268000Y247000
X235000Y223000
X206000Y247500
X222500Y312000
X285505Y369500
Y372500
X289500
X292000
Y369500
X289500
Y375500
X292000
X287000
X284500
X296000Y452000
X299000
X302000
Y455500
X299000
X296000
Y458824
X299000
X302000
X230000Y451500
Y448500
Y445500
X226500
Y448500
Y451500
X348500Y420019
X348500Y417000
X352000
X355000
Y420019
X352000
X504500Y449500
X504476Y452500
X504500Y455000
X504476Y457500
X353500Y475441
X284000Y481500
X280500
X277000
X273500
Y485500
X277000
X280500
X284000
Y489500
X280500
X277000
X273500
T02
X258032Y441032
Y444969
X261969
Y441032
T03
X474500Y279500
X484500
X494500
X504500
X344500Y340000
X334500
X324500
X314500Y340000
T04
X469000Y238000
X479000
X502500Y235000
X512500
X522500
X532500
X542500
X552500
X459000Y238000
X449000
X439000
X429000
X424500Y279500
X434500
X444500
X454500Y279500
X464500Y279500
X414500
X404500
X394500
X384500
X374500
X364500
X354500
X344500
X334500
X324500
X314500
X330500Y238000
X340500
X350500
X360500
X370500
X380500
X285500Y268000
X275500
X265500
X255500
X245500
X235500
X225500
X225500Y349000
X235500
X245500
X255500
X265500
X275500
X285500
X354500Y340000
X364500
X374500
X384500
X394500
X404500
X414500
X424500
X434500
X444500
X454500
X464500
X428500Y362000
X418500
X408500
X398500
X388500
X378500
X368500
X358500
X448000Y404500
Y414500
Y424500
Y434500
X495472Y372500
X505315Y372500
X515158Y372500
X525000
X534842
X544685Y372500
X504500Y340000
X494500
X484500
X474500
X440500Y481000
X430500
X420500
X410500
X400500
T05
X533291Y334600
X564000
T06
X213000Y370000
Y390000
T07
X214000Y412496
Y431000
Y449504
T08
X578000Y222000
X209000
X578000Y488500
X209000Y488000
M30
