G04*
G04 #@! TF.GenerationSoftware,Altium Limited,Altium Designer,21.7.2 (23)*
G04*
G04 Layer_Physical_Order=1*
G04 Layer_Color=255*
%FSLAX25Y25*%
%MOIN*%
G70*
G04*
G04 #@! TF.SameCoordinates,8516E6F5-4896-463E-9EC1-BE868EEF7334*
G04*
G04*
G04 #@! TF.FilePolarity,Positive*
G04*
G01*
G75*
%ADD11C,0.01000*%
%ADD17R,0.09449X0.12992*%
%ADD18R,0.09449X0.03937*%
%ADD19R,0.05000X0.03500*%
%ADD20R,0.03500X0.05000*%
%ADD21R,0.07874X0.05906*%
%ADD22R,0.03000X0.03000*%
%ADD23R,0.02362X0.05118*%
%ADD24R,0.21260X0.11417*%
%ADD25O,0.03937X0.10630*%
%ADD26R,0.03937X0.10630*%
%ADD27R,0.03000X0.03000*%
%ADD28R,0.09016X0.09016*%
%ADD29O,0.07087X0.02362*%
%ADD30R,0.06300X0.11000*%
%ADD31P,0.03247X8X292.5*%
%ADD32P,0.03247X8X22.5*%
%ADD60C,0.03000*%
%ADD61C,0.01500*%
%ADD62C,0.02000*%
%ADD63C,0.02500*%
%ADD64C,0.04000*%
%ADD65R,0.10022X0.32419*%
%ADD66R,0.30559X0.04000*%
%ADD67R,0.09709X0.32000*%
%ADD68R,0.23614X0.37000*%
%ADD69R,0.13000X0.42500*%
%ADD70R,0.41000X0.11000*%
%ADD71R,0.04500X0.35500*%
%ADD72R,0.25500X0.03000*%
%ADD73R,0.73709X0.20000*%
%ADD74R,0.09709X0.26882*%
%ADD75C,0.05906*%
%ADD76R,0.05906X0.05906*%
%ADD77R,0.06693X0.06693*%
%ADD78C,0.06693*%
%ADD79R,0.06693X0.06693*%
%ADD80C,0.09843*%
%ADD81O,0.13780X0.09843*%
%ADD82C,0.08661*%
%ADD83C,0.19685*%
%ADD84C,0.01968*%
%ADD85C,0.02400*%
G36*
X442008Y485652D02*
X442034Y485324D01*
X442076Y485015D01*
X442135Y484726D01*
X442211Y484455D01*
X442303Y484204D01*
X442413Y483972D01*
X442539Y483758D01*
X442682Y483565D01*
X442842Y483390D01*
X438158D01*
X438318Y483565D01*
X438461Y483758D01*
X438587Y483972D01*
X438697Y484204D01*
X438789Y484455D01*
X438865Y484726D01*
X438924Y485015D01*
X438966Y485324D01*
X438992Y485652D01*
X439000Y485999D01*
X442000D01*
X442008Y485652D01*
D02*
G37*
G36*
X273490Y480516D02*
X273436Y480512D01*
X273379Y480501D01*
X273320Y480482D01*
X273259Y480455D01*
X273194Y480420D01*
X273128Y480378D01*
X273059Y480328D01*
X272987Y480269D01*
X272836Y480129D01*
X272129Y480836D01*
X272203Y480913D01*
X272328Y481059D01*
X272378Y481128D01*
X272421Y481194D01*
X272455Y481259D01*
X272482Y481320D01*
X272501Y481379D01*
X272512Y481436D01*
X272516Y481490D01*
X273490Y480516D01*
D02*
G37*
G36*
X345012Y480071D02*
X344992Y480198D01*
X344932Y480312D01*
X344832Y480412D01*
X344692Y480500D01*
X344512Y480573D01*
X344292Y480633D01*
X344032Y480680D01*
X343732Y480714D01*
X343012Y480740D01*
Y482740D01*
X343392Y482744D01*
X344512Y482817D01*
X344692Y482851D01*
X344832Y482891D01*
X344932Y482937D01*
X344992Y482989D01*
X345012Y483047D01*
Y480071D01*
D02*
G37*
G36*
X340008Y483338D02*
X340068Y483213D01*
X340168Y483102D01*
X340308Y483006D01*
X340488Y482925D01*
X340708Y482859D01*
X340968Y482807D01*
X341268Y482770D01*
X341608Y482748D01*
X341988Y482740D01*
Y480740D01*
X341608Y480733D01*
X340968Y480674D01*
X340708Y480622D01*
X340488Y480556D01*
X340308Y480475D01*
X340168Y480379D01*
X340068Y480268D01*
X340008Y480143D01*
X339988Y480002D01*
Y483478D01*
X340008Y483338D01*
D02*
G37*
G36*
X347357Y476836D02*
X347500Y476753D01*
X347673Y476680D01*
X347876Y476617D01*
X348110Y476563D01*
X348374Y476519D01*
X348992Y476461D01*
X349347Y476446D01*
X349732Y476441D01*
Y474441D01*
X349347Y474436D01*
X348374Y474363D01*
X348110Y474319D01*
X347876Y474265D01*
X347673Y474202D01*
X347500Y474129D01*
X347357Y474046D01*
X347244Y473953D01*
Y476929D01*
X347357Y476836D01*
D02*
G37*
G36*
X338857Y472507D02*
X338730Y472462D01*
X338617Y472387D01*
X338520Y472282D01*
X338437Y472147D01*
X338370Y471982D01*
X338317Y471787D01*
X338280Y471562D01*
X338257Y471307D01*
X338250Y471022D01*
X336750D01*
X336742Y471307D01*
X336720Y471562D01*
X336682Y471787D01*
X336630Y471982D01*
X336562Y472147D01*
X336480Y472282D01*
X336382Y472387D01*
X336270Y472462D01*
X336142Y472507D01*
X336000Y472522D01*
X339000D01*
X338857Y472507D01*
D02*
G37*
G36*
X271245Y468786D02*
X271259Y468614D01*
X271285Y468462D01*
X271320Y468331D01*
X271364Y468220D01*
X271420Y468128D01*
X271484Y468058D01*
X271560Y468007D01*
X271644Y467977D01*
X271740Y467967D01*
X269740D01*
X269834Y467977D01*
X269919Y468007D01*
X269994Y468058D01*
X270059Y468128D01*
X270114Y468220D01*
X270160Y468331D01*
X270195Y468462D01*
X270219Y468614D01*
X270234Y468786D01*
X270239Y468979D01*
X271239D01*
X271245Y468786D01*
D02*
G37*
G36*
X276534Y458000D02*
X276523Y458095D01*
X276493Y458180D01*
X276442Y458255D01*
X276372Y458320D01*
X276280Y458375D01*
X276169Y458420D01*
X276038Y458455D01*
X275886Y458480D01*
X275714Y458495D01*
X275521Y458500D01*
Y459500D01*
X275714Y459505D01*
X275886Y459520D01*
X276038Y459545D01*
X276169Y459580D01*
X276280Y459625D01*
X276372Y459680D01*
X276442Y459745D01*
X276493Y459820D01*
X276523Y459905D01*
X276534Y460000D01*
Y458000D01*
D02*
G37*
G36*
X273226Y459905D02*
X273256Y459820D01*
X273307Y459745D01*
X273377Y459680D01*
X273468Y459625D01*
X273580Y459580D01*
X273711Y459545D01*
X273863Y459520D01*
X274035Y459505D01*
X274227Y459500D01*
Y458500D01*
X274035Y458495D01*
X273863Y458480D01*
X273711Y458455D01*
X273580Y458420D01*
X273468Y458375D01*
X273377Y458320D01*
X273307Y458255D01*
X273256Y458180D01*
X273226Y458095D01*
X273216Y458000D01*
Y460000D01*
X273226Y459905D01*
D02*
G37*
G36*
X271820Y457012D02*
X271735Y456982D01*
X271660Y456932D01*
X271595Y456862D01*
X271540Y456772D01*
X271495Y456662D01*
X271460Y456532D01*
X271435Y456382D01*
X271420Y456212D01*
X271415Y456022D01*
X270415D01*
X270410Y456212D01*
X270395Y456382D01*
X270370Y456532D01*
X270335Y456662D01*
X270290Y456772D01*
X270235Y456862D01*
X270170Y456932D01*
X270095Y456982D01*
X270010Y457012D01*
X269915Y457022D01*
X271915D01*
X271820Y457012D01*
D02*
G37*
G36*
X271420Y452487D02*
X271435Y452315D01*
X271460Y452163D01*
X271495Y452032D01*
X271540Y451920D01*
X271595Y451829D01*
X271660Y451758D01*
X271735Y451708D01*
X271820Y451677D01*
X271915Y451667D01*
X269915D01*
X270010Y451677D01*
X270095Y451708D01*
X270170Y451758D01*
X270235Y451829D01*
X270290Y451920D01*
X270335Y452032D01*
X270370Y452163D01*
X270395Y452315D01*
X270410Y452487D01*
X270415Y452679D01*
X271415D01*
X271420Y452487D01*
D02*
G37*
G36*
X263728Y478000D02*
X240228D01*
Y445500D01*
X238728Y444000D01*
X220500Y444000D01*
X220500Y492000D01*
X226500Y498000D01*
X263728D01*
Y478000D01*
D02*
G37*
G36*
X273902Y436397D02*
X273945Y436314D01*
X274018Y436240D01*
X274119Y436177D01*
X274250Y436123D01*
X274409Y436079D01*
X274597Y436044D01*
X274815Y436020D01*
X275061Y436005D01*
X275336Y436000D01*
Y435000D01*
X275061Y434995D01*
X274597Y434956D01*
X274409Y434922D01*
X274250Y434877D01*
X274119Y434823D01*
X274018Y434760D01*
X273945Y434686D01*
X273902Y434603D01*
X273887Y434510D01*
Y436490D01*
X273902Y436397D01*
D02*
G37*
G36*
X306500Y473500D02*
X314000Y466000D01*
X336000D01*
Y442500D01*
X337500Y441000D01*
X363000D01*
Y433006D01*
X362494Y432500D01*
X284000D01*
Y475000D01*
X306500D01*
Y473500D01*
D02*
G37*
G36*
X278765Y429548D02*
X278780Y429378D01*
X278804Y429228D01*
X278839Y429098D01*
X278885Y428988D01*
X278940Y428898D01*
X279005Y428828D01*
X279080Y428778D01*
X279165Y428748D01*
X279259Y428738D01*
X277259D01*
X277355Y428748D01*
X277439Y428778D01*
X277515Y428828D01*
X277579Y428898D01*
X277635Y428988D01*
X277679Y429098D01*
X277714Y429228D01*
X277740Y429378D01*
X277754Y429548D01*
X277760Y429738D01*
X278760D01*
X278765Y429548D01*
D02*
G37*
G36*
X253250Y439000D02*
X242000D01*
X226000Y423000D01*
X200000D01*
Y442000D01*
X253250D01*
Y439000D01*
D02*
G37*
G36*
X379508Y427301D02*
X379598Y427133D01*
X379749Y426985D01*
X379959Y426856D01*
X380228Y426747D01*
X380558Y426658D01*
X380948Y426589D01*
X381399Y426540D01*
X382478Y426500D01*
Y423500D01*
X381908Y423490D01*
X380948Y423411D01*
X380558Y423342D01*
X380228Y423253D01*
X379959Y423145D01*
X379749Y423016D01*
X379598Y422868D01*
X379508Y422700D01*
X379479Y422512D01*
Y427488D01*
X379508Y427301D01*
D02*
G37*
G36*
X589000Y487000D02*
Y221500D01*
X579000Y211500D01*
X208000D01*
X207500Y211000D01*
X198000Y220500D01*
Y356500D01*
X199716D01*
Y349740D01*
X199852Y349057D01*
X200238Y348479D01*
X208465Y340251D01*
Y340241D01*
X208500Y340068D01*
Y336491D01*
X215500D01*
Y341990D01*
X211686D01*
X211511Y342252D01*
X203284Y350479D01*
Y356500D01*
X263206D01*
Y353711D01*
X263196Y353619D01*
X263156Y353395D01*
X263100Y353185D01*
X263030Y352986D01*
X262945Y352798D01*
X262845Y352619D01*
X262729Y352446D01*
X262595Y352280D01*
X262416Y352090D01*
X262371Y352018D01*
X262022Y351669D01*
X261450Y350678D01*
X261154Y349572D01*
Y348428D01*
X261450Y347322D01*
X262022Y346331D01*
X262831Y345522D01*
X263822Y344950D01*
X264928Y344654D01*
X266072D01*
X267178Y344950D01*
X268169Y345522D01*
X268978Y346331D01*
X269550Y347322D01*
X269847Y348428D01*
Y349572D01*
X269550Y350678D01*
X268978Y351669D01*
X268629Y352018D01*
X268584Y352090D01*
X268405Y352280D01*
X268271Y352446D01*
X268155Y352619D01*
X268055Y352798D01*
X267970Y352986D01*
X267900Y353185D01*
X267844Y353395D01*
X267804Y353619D01*
X267794Y353711D01*
Y356500D01*
X332612D01*
X332796Y356000D01*
X332381Y355378D01*
X332206Y354500D01*
Y344711D01*
X332196Y344619D01*
X332156Y344395D01*
X332100Y344184D01*
X332030Y343986D01*
X331945Y343798D01*
X331845Y343619D01*
X331729Y343446D01*
X331595Y343280D01*
X331416Y343090D01*
X331371Y343018D01*
X331022Y342669D01*
X330450Y341678D01*
X330153Y340572D01*
Y339428D01*
X330450Y338322D01*
X331022Y337331D01*
X331831Y336522D01*
X332822Y335950D01*
X333928Y335653D01*
X335072D01*
X336178Y335950D01*
X337169Y336522D01*
X337978Y337331D01*
X338550Y338322D01*
X338846Y339428D01*
Y340572D01*
X338550Y341678D01*
X337978Y342669D01*
X337629Y343018D01*
X337584Y343090D01*
X337405Y343280D01*
X337271Y343446D01*
X337155Y343619D01*
X337055Y343798D01*
X336970Y343986D01*
X336900Y344184D01*
X336844Y344395D01*
X336804Y344619D01*
X336794Y344711D01*
Y353550D01*
X339744Y356500D01*
X349000D01*
X352206Y359706D01*
X353789D01*
X353881Y359696D01*
X354105Y359656D01*
X354315Y359600D01*
X354514Y359530D01*
X354702Y359445D01*
X354881Y359345D01*
X355054Y359229D01*
X355220Y359095D01*
X355410Y358916D01*
X355482Y358871D01*
X355831Y358522D01*
X356822Y357950D01*
X357928Y357653D01*
X359072D01*
X360178Y357950D01*
X361169Y358522D01*
X361978Y359331D01*
X362550Y360322D01*
X362846Y361428D01*
Y361873D01*
X362850Y361883D01*
X362865Y361915D01*
X362920Y362006D01*
X362995Y362112D01*
X363686Y362907D01*
X379379Y378600D01*
X379380Y378600D01*
X379860Y379227D01*
X380163Y379957D01*
X380266Y380740D01*
X380266Y380740D01*
Y387766D01*
X384500Y392000D01*
Y420812D01*
X385022D01*
X385412Y420889D01*
X385743Y421110D01*
X385964Y421441D01*
X386042Y421831D01*
Y423023D01*
X386303Y423198D01*
X391802Y428698D01*
X392355Y429525D01*
X392549Y430500D01*
Y484944D01*
X398556Y490951D01*
X434944D01*
X437951Y487944D01*
Y485425D01*
X437919Y485186D01*
X437874Y484965D01*
X437819Y484770D01*
X437755Y484598D01*
X437686Y484450D01*
X437610Y484323D01*
X437529Y484214D01*
X437406Y484079D01*
X437365Y484012D01*
X437022Y483669D01*
X436450Y482678D01*
X436154Y481572D01*
Y480428D01*
X436450Y479322D01*
X437022Y478331D01*
X437831Y477522D01*
X438822Y476950D01*
X439928Y476653D01*
X441072D01*
X442178Y476950D01*
X443169Y477522D01*
X443978Y478331D01*
X444047Y478451D01*
X477470D01*
X491543Y464377D01*
Y424735D01*
Y413250D01*
X491738Y412275D01*
X492290Y411448D01*
X527594Y376144D01*
X527286Y375744D01*
X526526Y376183D01*
X525520Y376453D01*
X524480D01*
X523474Y376183D01*
X522573Y375663D01*
X521837Y374927D01*
X521317Y374026D01*
X521047Y373020D01*
Y372580D01*
X521028Y372495D01*
X521022Y372237D01*
X521002Y372028D01*
X520968Y371832D01*
X520921Y371649D01*
X520862Y371476D01*
X520789Y371311D01*
X520703Y371154D01*
X520603Y371002D01*
X520546Y370930D01*
X513058Y363442D01*
X512616Y362780D01*
X512461Y362000D01*
Y333345D01*
X510655Y331539D01*
X497845D01*
X496539Y332845D01*
Y335071D01*
X496558Y335205D01*
X496604Y335405D01*
X496670Y335607D01*
X496757Y335810D01*
X496866Y336017D01*
X497000Y336228D01*
X497158Y336442D01*
X497344Y336661D01*
X497577Y336903D01*
X497626Y336979D01*
X497978Y337331D01*
X498550Y338322D01*
X498846Y339428D01*
Y340572D01*
X498550Y341678D01*
X497978Y342669D01*
X497169Y343478D01*
X496178Y344050D01*
X495072Y344346D01*
X493928D01*
X492822Y344050D01*
X491831Y343478D01*
X491022Y342669D01*
X490450Y341678D01*
X490154Y340572D01*
Y339428D01*
X490450Y338322D01*
X491022Y337331D01*
X491374Y336979D01*
X491423Y336903D01*
X491656Y336661D01*
X491842Y336443D01*
X492000Y336228D01*
X492134Y336017D01*
X492243Y335810D01*
X492330Y335607D01*
X492396Y335405D01*
X492443Y335205D01*
X492461Y335071D01*
Y332000D01*
X492616Y331220D01*
X493058Y330558D01*
X495558Y328058D01*
X496220Y327616D01*
X497000Y327461D01*
X511500D01*
X512280Y327616D01*
X512942Y328058D01*
X515942Y331058D01*
X516384Y331720D01*
X516539Y332500D01*
Y361155D01*
X523430Y368046D01*
X523502Y368103D01*
X523654Y368203D01*
X523811Y368289D01*
X523976Y368362D01*
X524149Y368421D01*
X524333Y368468D01*
X524528Y368502D01*
X524737Y368522D01*
X524995Y368528D01*
X525080Y368547D01*
X525520D01*
X526526Y368817D01*
X527427Y369337D01*
X528163Y370073D01*
X528683Y370974D01*
X528953Y371980D01*
Y373020D01*
X528683Y374026D01*
X528244Y374786D01*
X528644Y375093D01*
X530890Y372848D01*
Y371980D01*
X531159Y370974D01*
X531679Y370073D01*
X531977Y369776D01*
X532011Y369717D01*
X532074Y369646D01*
X532099Y369607D01*
X532134Y369539D01*
X532173Y369440D01*
X532213Y369306D01*
X532249Y369142D01*
X532278Y368957D01*
X532294Y368763D01*
Y353157D01*
X532488Y352182D01*
X533040Y351355D01*
X551598Y332798D01*
X552424Y332245D01*
X553400Y332051D01*
X557809D01*
X557985Y332031D01*
X558288Y331970D01*
X558580Y331887D01*
X558862Y331779D01*
X559137Y331648D01*
X559405Y331490D01*
X559668Y331307D01*
X559926Y331095D01*
X560205Y330830D01*
X560278Y330783D01*
X560727Y330334D01*
X561942Y329633D01*
X563298Y329269D01*
X564702D01*
X565510Y329486D01*
X573451Y321544D01*
Y249056D01*
X551944Y227549D01*
X515556D01*
X515049Y228056D01*
Y231453D01*
X515169Y231522D01*
X515978Y232331D01*
X516550Y233322D01*
X516847Y234428D01*
Y235572D01*
X516550Y236678D01*
X515978Y237669D01*
X515169Y238478D01*
X514178Y239050D01*
X513072Y239347D01*
X511928D01*
X510822Y239050D01*
X509831Y238478D01*
X509022Y237669D01*
X508450Y236678D01*
X508153Y235572D01*
Y234428D01*
X508450Y233322D01*
X509022Y232331D01*
X509831Y231522D01*
X509951Y231453D01*
Y227000D01*
X510145Y226025D01*
X510698Y225198D01*
X512698Y223198D01*
X513524Y222645D01*
X514500Y222451D01*
X553000D01*
X553975Y222645D01*
X554802Y223198D01*
X577802Y246198D01*
X578355Y247024D01*
X578549Y248000D01*
Y322600D01*
X578355Y323575D01*
X577802Y324402D01*
X569114Y333090D01*
X569331Y333898D01*
Y335302D01*
X568967Y336658D01*
X568266Y337873D01*
X567273Y338866D01*
X566058Y339567D01*
X564702Y339931D01*
X563298D01*
X561942Y339567D01*
X560727Y338866D01*
X560278Y338417D01*
X560205Y338370D01*
X559926Y338105D01*
X559668Y337893D01*
X559405Y337709D01*
X559137Y337552D01*
X558862Y337421D01*
X558580Y337313D01*
X558288Y337230D01*
X557985Y337169D01*
X557809Y337149D01*
X554456D01*
X537392Y354213D01*
Y368814D01*
X537405Y368946D01*
X537436Y369142D01*
X537472Y369307D01*
X537512Y369440D01*
X537551Y369539D01*
X537586Y369607D01*
X537611Y369646D01*
X537674Y369717D01*
X537708Y369776D01*
X538005Y370073D01*
X538526Y370974D01*
X538795Y371980D01*
Y373020D01*
X538526Y374026D01*
X538005Y374927D01*
X537270Y375663D01*
X536368Y376183D01*
X535363Y376453D01*
X534495D01*
X496641Y414306D01*
Y422186D01*
X501000D01*
Y422010D01*
X508000D01*
Y422052D01*
X516858D01*
Y421476D01*
X528307D01*
Y427413D01*
X516858D01*
Y427150D01*
X508146D01*
X508000Y427247D01*
Y427509D01*
X507095D01*
X506849Y427559D01*
X504750D01*
X504504Y427509D01*
X501000D01*
Y427284D01*
X496641D01*
Y465433D01*
X496447Y466408D01*
X495895Y467236D01*
X480328Y482802D01*
X479501Y483355D01*
X478526Y483549D01*
X444047D01*
X443978Y483669D01*
X443635Y484012D01*
X443594Y484079D01*
X443471Y484214D01*
X443390Y484323D01*
X443314Y484450D01*
X443245Y484598D01*
X443181Y484770D01*
X443127Y484965D01*
X443082Y485186D01*
X443049Y485425D01*
Y489000D01*
X442855Y489975D01*
X442302Y490802D01*
X437802Y495302D01*
X436975Y495855D01*
X436000Y496049D01*
X397500D01*
X396525Y495855D01*
X395698Y495302D01*
X388198Y487802D01*
X387645Y486975D01*
X387451Y486000D01*
Y431556D01*
X386504Y430608D01*
X386042Y430800D01*
Y440504D01*
X386901D01*
Y455496D01*
X384500D01*
Y500000D01*
X576000D01*
X589000Y487000D01*
D02*
G37*
G36*
X251500Y436500D02*
X252500Y435500D01*
X249000Y432000D01*
X249000Y412500D01*
X257500Y404000D01*
X321000D01*
Y387500D01*
X320000Y386500D01*
X241000Y386500D01*
X241000Y434500D01*
X243000Y436500D01*
X251500Y436500D01*
D02*
G37*
G36*
X372500Y429000D02*
X372500Y390500D01*
X351500Y369500D01*
X351000D01*
X346500Y365000D01*
X206000Y365000D01*
X206000Y377000D01*
X302441Y377000D01*
X309941Y384500D01*
X337500D01*
X337500Y429000D01*
X372500Y429000D01*
D02*
G37*
G36*
X524970Y369547D02*
X524677Y369540D01*
X524393Y369513D01*
X524120Y369466D01*
X523856Y369399D01*
X523603Y369312D01*
X523360Y369205D01*
X523128Y369077D01*
X522905Y368930D01*
X522692Y368763D01*
X522490Y368576D01*
X521076Y369990D01*
X521263Y370192D01*
X521430Y370405D01*
X521578Y370627D01*
X521705Y370860D01*
X521812Y371103D01*
X521899Y371357D01*
X521966Y371620D01*
X522013Y371893D01*
X522040Y372177D01*
X522047Y372470D01*
X524970Y369547D01*
D02*
G37*
G36*
X536802Y370269D02*
X536705Y370125D01*
X536620Y369959D01*
X536547Y369772D01*
X536484Y369562D01*
X536433Y369330D01*
X536393Y369077D01*
X536365Y368801D01*
X536342Y368185D01*
X533343D01*
X533337Y368504D01*
X533291Y369077D01*
X533252Y369330D01*
X533201Y369562D01*
X533138Y369772D01*
X533065Y369959D01*
X532980Y370125D01*
X532883Y370269D01*
X532776Y370391D01*
X536909D01*
X536802Y370269D01*
D02*
G37*
G36*
X363231Y363903D02*
X362967Y363634D01*
X362190Y362741D01*
X362066Y362563D01*
X361969Y362403D01*
X361900Y362262D01*
X361859Y362139D01*
X361846Y362034D01*
X358534Y365346D01*
X358639Y365359D01*
X358762Y365400D01*
X358903Y365469D01*
X359063Y365566D01*
X359241Y365690D01*
X359651Y366023D01*
X360134Y366467D01*
X360403Y366731D01*
X363231Y363903D01*
D02*
G37*
G36*
X356110Y359658D02*
X355890Y359865D01*
X355659Y360051D01*
X355415Y360215D01*
X355161Y360357D01*
X354894Y360477D01*
X354616Y360575D01*
X354327Y360652D01*
X354025Y360706D01*
X353712Y360739D01*
X353388Y360750D01*
Y363250D01*
X353712Y363261D01*
X354025Y363294D01*
X354327Y363348D01*
X354616Y363425D01*
X354894Y363523D01*
X355161Y363643D01*
X355415Y363785D01*
X355659Y363949D01*
X355890Y364135D01*
X356110Y364342D01*
Y359658D01*
D02*
G37*
G36*
X345018Y360750D02*
X344525Y360732D01*
X344047Y360679D01*
X343584Y360591D01*
X343135Y360467D01*
X342701Y360308D01*
X342281Y360114D01*
X341877Y359884D01*
X341486Y359619D01*
X341111Y359318D01*
X340750Y358982D01*
X337214D01*
X337525Y359318D01*
X337751Y359619D01*
X337891Y359884D01*
X337946Y360114D01*
X337915Y360308D01*
X337799Y360467D01*
X337598Y360591D01*
X337312Y360679D01*
X336940Y360732D01*
X336482Y360750D01*
X342000Y363250D01*
X345018Y360750D01*
D02*
G37*
G36*
X266761Y353788D02*
X266794Y353475D01*
X266848Y353173D01*
X266925Y352884D01*
X267023Y352606D01*
X267143Y352339D01*
X267285Y352085D01*
X267449Y351841D01*
X267635Y351610D01*
X267843Y351390D01*
X263158D01*
X263365Y351610D01*
X263551Y351841D01*
X263715Y352085D01*
X263857Y352339D01*
X263977Y352606D01*
X264075Y352884D01*
X264152Y353173D01*
X264206Y353475D01*
X264239Y353788D01*
X264250Y354112D01*
X266750D01*
X266761Y353788D01*
D02*
G37*
G36*
X335761Y344788D02*
X335794Y344475D01*
X335848Y344174D01*
X335925Y343884D01*
X336023Y343606D01*
X336143Y343339D01*
X336285Y343085D01*
X336449Y342841D01*
X336635Y342610D01*
X336842Y342390D01*
X332157D01*
X332365Y342610D01*
X332551Y342841D01*
X332715Y343085D01*
X332857Y343339D01*
X332977Y343606D01*
X333075Y343884D01*
X333152Y344174D01*
X333206Y344475D01*
X333239Y344788D01*
X333250Y345112D01*
X335750D01*
X335761Y344788D01*
D02*
G37*
G36*
X496587Y337345D02*
X496359Y337077D01*
X496158Y336804D01*
X495983Y336529D01*
X495836Y336249D01*
X495715Y335966D01*
X495621Y335680D01*
X495554Y335390D01*
X495513Y335096D01*
X495500Y334799D01*
X493500D01*
X493487Y335096D01*
X493446Y335390D01*
X493379Y335680D01*
X493285Y335966D01*
X493164Y336249D01*
X493017Y336529D01*
X492842Y336804D01*
X492641Y337077D01*
X492413Y337345D01*
X492158Y337610D01*
X496842D01*
X496587Y337345D01*
D02*
G37*
G36*
X560907Y331569D02*
X560601Y331859D01*
X560284Y332120D01*
X559956Y332350D01*
X559616Y332549D01*
X559265Y332717D01*
X558902Y332855D01*
X558528Y332962D01*
X558143Y333039D01*
X557747Y333085D01*
X557339Y333100D01*
Y336100D01*
X557747Y336115D01*
X558143Y336161D01*
X558528Y336238D01*
X558902Y336345D01*
X559265Y336483D01*
X559616Y336651D01*
X559956Y336850D01*
X560284Y337080D01*
X560601Y337340D01*
X560907Y337632D01*
Y331569D01*
D02*
G37*
%LPC*%
G36*
X411072Y485347D02*
X409928D01*
X408822Y485050D01*
X407831Y484478D01*
X407022Y483669D01*
X406450Y482678D01*
X406153Y481572D01*
Y480428D01*
X406450Y479322D01*
X407022Y478331D01*
X407831Y477522D01*
X408822Y476950D01*
X409928Y476653D01*
X411072D01*
X412178Y476950D01*
X413169Y477522D01*
X413978Y478331D01*
X414550Y479322D01*
X414847Y480428D01*
Y481572D01*
X414550Y482678D01*
X413978Y483669D01*
X413169Y484478D01*
X412178Y485050D01*
X411072Y485347D01*
D02*
G37*
G36*
X551142Y440996D02*
X539693D01*
Y436049D01*
X528307D01*
Y436469D01*
X516858D01*
Y430532D01*
X528307D01*
Y430951D01*
X539693D01*
Y426004D01*
X551142D01*
Y426046D01*
X551642Y426254D01*
X556211Y421685D01*
Y415500D01*
X556009D01*
Y408500D01*
X556211D01*
Y366241D01*
X556405Y365265D01*
X556957Y364438D01*
X580762Y340634D01*
Y247446D01*
X554865Y221549D01*
X461792D01*
X459390Y223951D01*
X459597Y224451D01*
X467000D01*
X467976Y224645D01*
X468802Y225198D01*
X470802Y227198D01*
X471355Y228025D01*
X471549Y229000D01*
Y234453D01*
X471669Y234522D01*
X472478Y235331D01*
X473050Y236322D01*
X473347Y237428D01*
Y238572D01*
X473050Y239678D01*
X472478Y240669D01*
X471669Y241478D01*
X470678Y242050D01*
X469572Y242347D01*
X468428D01*
X467322Y242050D01*
X466331Y241478D01*
X465522Y240669D01*
X464950Y239678D01*
X464654Y238572D01*
Y237428D01*
X464950Y236322D01*
X465522Y235331D01*
X466331Y234522D01*
X466451Y234453D01*
Y230056D01*
X465944Y229549D01*
X459059D01*
Y230000D01*
X456806D01*
X456559Y230049D01*
X456313Y230000D01*
X454059D01*
Y227747D01*
X454010Y227500D01*
Y223177D01*
X454204Y222202D01*
X454346Y221990D01*
X454110Y221549D01*
X356695D01*
X356431Y221813D01*
Y225500D01*
X356382Y225746D01*
Y228000D01*
X354128D01*
X353882Y228049D01*
X347056D01*
X343049Y232056D01*
Y234453D01*
X343169Y234522D01*
X343978Y235331D01*
X344550Y236322D01*
X344846Y237428D01*
Y238572D01*
X344550Y239678D01*
X343978Y240669D01*
X343169Y241478D01*
X342178Y242050D01*
X341072Y242347D01*
X339928D01*
X338822Y242050D01*
X337831Y241478D01*
X337022Y240669D01*
X336450Y239678D01*
X336154Y238572D01*
Y237428D01*
X336450Y236322D01*
X337022Y235331D01*
X337831Y234522D01*
X337951Y234453D01*
Y231000D01*
X338145Y230025D01*
X338698Y229198D01*
X344198Y223698D01*
X345024Y223145D01*
X346000Y222951D01*
X351333D01*
Y220757D01*
X351527Y219782D01*
X352080Y218955D01*
X353837Y217198D01*
X354664Y216645D01*
X355639Y216451D01*
X555920D01*
X556896Y216645D01*
X557723Y217198D01*
X585113Y244588D01*
X585666Y245415D01*
X585859Y246390D01*
Y341689D01*
X585666Y342665D01*
X585113Y343492D01*
X561308Y367296D01*
Y408500D01*
X561510D01*
Y415500D01*
X561308D01*
Y422741D01*
X561115Y423716D01*
X560562Y424543D01*
X554303Y430801D01*
X553476Y431354D01*
X552501Y431548D01*
X551142D01*
Y440996D01*
D02*
G37*
G36*
X452347Y438846D02*
X443653D01*
Y430154D01*
X452347D01*
Y438846D01*
D02*
G37*
G36*
X504476Y461549D02*
X503501Y461355D01*
X502674Y460802D01*
X502121Y459975D01*
X501927Y459000D01*
X501951Y458878D01*
Y442500D01*
Y432240D01*
X502145Y431264D01*
X502698Y430437D01*
X503525Y429885D01*
X504500Y429691D01*
X505476Y429885D01*
X506303Y430437D01*
X506855Y431264D01*
X507049Y432240D01*
Y440006D01*
X522583D01*
X523558Y440200D01*
X524385Y440753D01*
X524938Y441580D01*
X525132Y442555D01*
X524938Y443531D01*
X524385Y444357D01*
X523558Y444910D01*
X522583Y445104D01*
X507049D01*
Y458976D01*
X506855Y459951D01*
X506303Y460778D01*
X506279Y460802D01*
X505452Y461355D01*
X504476Y461549D01*
D02*
G37*
G36*
X448572Y428847D02*
X447428D01*
X446322Y428550D01*
X445331Y427978D01*
X444976Y427623D01*
X444898Y427572D01*
X444605Y427286D01*
X444339Y427050D01*
X444085Y426847D01*
X443844Y426678D01*
X443617Y426542D01*
X443407Y426436D01*
X443213Y426359D01*
X443037Y426308D01*
X442901Y426284D01*
X437500D01*
X437500Y426284D01*
X436817Y426149D01*
X436238Y425762D01*
X426738Y416262D01*
X426351Y415683D01*
X426216Y415000D01*
Y396500D01*
X426351Y395817D01*
X426738Y395238D01*
X442716Y379261D01*
Y345099D01*
X442692Y344963D01*
X442641Y344787D01*
X442564Y344593D01*
X442458Y344383D01*
X442322Y344157D01*
X442161Y343927D01*
X441704Y343385D01*
X441428Y343102D01*
X441377Y343024D01*
X441022Y342669D01*
X440450Y341678D01*
X440154Y340572D01*
Y339428D01*
X440450Y338322D01*
X441022Y337331D01*
X441831Y336522D01*
X442822Y335950D01*
X443928Y335653D01*
X445072D01*
X446178Y335950D01*
X447169Y336522D01*
X447978Y337331D01*
X448550Y338322D01*
X448846Y339428D01*
Y340572D01*
X448550Y341678D01*
X447978Y342669D01*
X447623Y343024D01*
X447572Y343102D01*
X447286Y343395D01*
X447050Y343661D01*
X446847Y343915D01*
X446678Y344156D01*
X446542Y344383D01*
X446436Y344593D01*
X446359Y344787D01*
X446308Y344963D01*
X446284Y345099D01*
Y380000D01*
X446148Y380683D01*
X445762Y381262D01*
X445762Y381262D01*
X429784Y397239D01*
Y414261D01*
X438239Y422716D01*
X442901D01*
X443037Y422692D01*
X443213Y422641D01*
X443407Y422564D01*
X443617Y422458D01*
X443844Y422322D01*
X444073Y422161D01*
X444615Y421704D01*
X444898Y421428D01*
X444976Y421377D01*
X445331Y421022D01*
X446322Y420450D01*
X447428Y420154D01*
X448572D01*
X449678Y420450D01*
X450669Y421022D01*
X451478Y421831D01*
X452050Y422822D01*
X452347Y423928D01*
Y425072D01*
X452050Y426178D01*
X451478Y427169D01*
X450669Y427978D01*
X449678Y428550D01*
X448572Y428847D01*
D02*
G37*
G36*
Y418847D02*
X447428D01*
X446322Y418550D01*
X445331Y417978D01*
X444976Y417623D01*
X444898Y417572D01*
X444605Y417286D01*
X444339Y417050D01*
X444085Y416847D01*
X443844Y416678D01*
X443617Y416542D01*
X443407Y416436D01*
X443213Y416359D01*
X443037Y416308D01*
X442901Y416284D01*
X442000D01*
X442000Y416284D01*
X441317Y416149D01*
X440738Y415762D01*
X440738Y415762D01*
X435238Y410262D01*
X434852Y409683D01*
X434716Y409000D01*
Y398500D01*
X434852Y397817D01*
X435238Y397238D01*
X452716Y379761D01*
Y345099D01*
X452692Y344963D01*
X452641Y344787D01*
X452564Y344593D01*
X452458Y344383D01*
X452322Y344157D01*
X452161Y343927D01*
X451704Y343385D01*
X451428Y343102D01*
X451377Y343024D01*
X451022Y342669D01*
X450450Y341678D01*
X450153Y340572D01*
Y339428D01*
X450450Y338322D01*
X451022Y337331D01*
X451831Y336522D01*
X452822Y335950D01*
X453928Y335653D01*
X455072D01*
X456178Y335950D01*
X457169Y336522D01*
X457978Y337331D01*
X458550Y338322D01*
X458846Y339428D01*
Y340572D01*
X458550Y341678D01*
X457978Y342669D01*
X457623Y343024D01*
X457572Y343102D01*
X457286Y343395D01*
X457050Y343661D01*
X456847Y343915D01*
X456678Y344156D01*
X456542Y344383D01*
X456436Y344593D01*
X456359Y344787D01*
X456308Y344963D01*
X456284Y345099D01*
Y380500D01*
X456148Y381183D01*
X455762Y381762D01*
X438284Y399239D01*
Y408261D01*
X442739Y412716D01*
X442901D01*
X443037Y412692D01*
X443213Y412641D01*
X443407Y412564D01*
X443617Y412458D01*
X443844Y412322D01*
X444073Y412161D01*
X444615Y411704D01*
X444898Y411428D01*
X444976Y411377D01*
X445331Y411022D01*
X446322Y410450D01*
X447428Y410154D01*
X448572D01*
X449678Y410450D01*
X450669Y411022D01*
X451478Y411831D01*
X452050Y412822D01*
X452347Y413928D01*
Y415072D01*
X452050Y416178D01*
X451478Y417169D01*
X450669Y417978D01*
X449678Y418550D01*
X448572Y418847D01*
D02*
G37*
G36*
X495993Y376453D02*
X494952D01*
X493947Y376183D01*
X493045Y375663D01*
X492310Y374927D01*
X491789Y374026D01*
X491520Y373020D01*
Y371980D01*
X491789Y370974D01*
X492310Y370073D01*
X493045Y369337D01*
X493947Y368817D01*
X494952Y368547D01*
X495993D01*
X496998Y368817D01*
X497899Y369337D01*
X498635Y370073D01*
X499156Y370974D01*
X499425Y371980D01*
Y373020D01*
X499156Y374026D01*
X498635Y374927D01*
X497899Y375663D01*
X496998Y376183D01*
X495993Y376453D01*
D02*
G37*
G36*
X505835Y376453D02*
X504795D01*
X503789Y376183D01*
X502888Y375663D01*
X502152Y374927D01*
X501632Y374026D01*
X501362Y373020D01*
Y371980D01*
X501632Y370974D01*
X502152Y370073D01*
X502888Y369337D01*
X503789Y368817D01*
X504795Y368547D01*
X505835D01*
X506841Y368817D01*
X507742Y369337D01*
X508478Y370073D01*
X508998Y370974D01*
X509268Y371980D01*
Y373020D01*
X508998Y374026D01*
X508478Y374927D01*
X507742Y375663D01*
X506841Y376183D01*
X505835Y376453D01*
D02*
G37*
G36*
X409072Y366347D02*
X407928D01*
X406822Y366050D01*
X405831Y365478D01*
X405022Y364669D01*
X404450Y363678D01*
X404153Y362572D01*
Y361428D01*
X404450Y360322D01*
X405022Y359331D01*
X405831Y358522D01*
X406822Y357950D01*
X407928Y357653D01*
X409072D01*
X410178Y357950D01*
X411169Y358522D01*
X411978Y359331D01*
X412550Y360322D01*
X412846Y361428D01*
Y362572D01*
X412550Y363678D01*
X411978Y364669D01*
X411169Y365478D01*
X410178Y366050D01*
X409072Y366347D01*
D02*
G37*
G36*
X399072D02*
X397928D01*
X396822Y366050D01*
X395831Y365478D01*
X395022Y364669D01*
X394450Y363678D01*
X394153Y362572D01*
Y361428D01*
X394450Y360322D01*
X395022Y359331D01*
X395831Y358522D01*
X396822Y357950D01*
X397928Y357653D01*
X399072D01*
X400178Y357950D01*
X401169Y358522D01*
X401978Y359331D01*
X402550Y360322D01*
X402846Y361428D01*
Y362572D01*
X402550Y363678D01*
X401978Y364669D01*
X401169Y365478D01*
X400178Y366050D01*
X399072Y366347D01*
D02*
G37*
G36*
X389072D02*
X387928D01*
X386822Y366050D01*
X385831Y365478D01*
X385022Y364669D01*
X384450Y363678D01*
X384154Y362572D01*
Y361428D01*
X384450Y360322D01*
X385022Y359331D01*
X385831Y358522D01*
X386822Y357950D01*
X387928Y357653D01*
X389072D01*
X390178Y357950D01*
X391169Y358522D01*
X391978Y359331D01*
X392550Y360322D01*
X392846Y361428D01*
Y362572D01*
X392550Y363678D01*
X391978Y364669D01*
X391169Y365478D01*
X390178Y366050D01*
X389072Y366347D01*
D02*
G37*
G36*
X379072D02*
X377928D01*
X376822Y366050D01*
X375831Y365478D01*
X375022Y364669D01*
X374450Y363678D01*
X374153Y362572D01*
Y362504D01*
X374053Y361987D01*
X373977Y361711D01*
X373888Y361445D01*
X373790Y361200D01*
X373682Y360977D01*
X373567Y360773D01*
X373444Y360589D01*
X373367Y360491D01*
X357288Y344412D01*
X357180Y344333D01*
X357029Y344246D01*
X356877Y344181D01*
X356719Y344134D01*
X356552Y344106D01*
X356369Y344095D01*
X356168Y344106D01*
X355947Y344139D01*
X355664Y344207D01*
X355578Y344211D01*
X355072Y344346D01*
X353928D01*
X352822Y344050D01*
X351831Y343478D01*
X351022Y342669D01*
X350450Y341678D01*
X350154Y340572D01*
Y339428D01*
X350450Y338322D01*
X351022Y337331D01*
X351831Y336522D01*
X352822Y335950D01*
X353928Y335653D01*
X355072D01*
X356178Y335950D01*
X357169Y336522D01*
X357978Y337331D01*
X358550Y338322D01*
X358670Y338771D01*
X358710Y338845D01*
X358924Y339550D01*
X359027Y339827D01*
X359274Y340378D01*
X359394Y340598D01*
X359523Y340808D01*
X359656Y340996D01*
X359724Y341080D01*
X359789Y341145D01*
X360238Y340887D01*
X360154Y340572D01*
Y339428D01*
X360450Y338322D01*
X361022Y337331D01*
X361377Y336976D01*
X361428Y336898D01*
X361714Y336605D01*
X361950Y336339D01*
X362153Y336085D01*
X362322Y335844D01*
X362458Y335617D01*
X362564Y335407D01*
X362641Y335213D01*
X362692Y335037D01*
X362716Y334901D01*
Y331000D01*
X362852Y330317D01*
X363238Y329738D01*
X379738Y313238D01*
X380317Y312852D01*
X381000Y312716D01*
X381000Y312716D01*
X434761D01*
X458238Y289238D01*
X458238Y289238D01*
X458817Y288851D01*
X459500Y288716D01*
X459500Y288716D01*
X507261D01*
X512716Y283261D01*
Y274239D01*
X508261Y269784D01*
X465000D01*
X465000Y269784D01*
X464317Y269649D01*
X463738Y269262D01*
X463738Y269262D01*
X447738Y253262D01*
X447352Y252683D01*
X447216Y252000D01*
Y243099D01*
X447192Y242963D01*
X447141Y242787D01*
X447064Y242593D01*
X446958Y242383D01*
X446822Y242157D01*
X446661Y241927D01*
X446204Y241385D01*
X445928Y241102D01*
X445877Y241024D01*
X445522Y240669D01*
X444950Y239678D01*
X444654Y238572D01*
Y237428D01*
X444950Y236322D01*
X445522Y235331D01*
X446331Y234522D01*
X447322Y233950D01*
X448428Y233653D01*
X449572D01*
X450678Y233950D01*
X451669Y234522D01*
X452478Y235331D01*
X453050Y236322D01*
X453346Y237428D01*
Y238572D01*
X453050Y239678D01*
X452478Y240669D01*
X452123Y241024D01*
X452072Y241102D01*
X451786Y241395D01*
X451550Y241661D01*
X451347Y241915D01*
X451178Y242156D01*
X451042Y242383D01*
X450936Y242593D01*
X450859Y242787D01*
X450808Y242963D01*
X450784Y243099D01*
Y251261D01*
X456924Y257400D01*
X457151Y257285D01*
X457336Y257106D01*
X457216Y256500D01*
Y243099D01*
X457192Y242963D01*
X457141Y242787D01*
X457064Y242593D01*
X456958Y242383D01*
X456822Y242157D01*
X456661Y241927D01*
X456204Y241385D01*
X455928Y241102D01*
X455877Y241024D01*
X455522Y240669D01*
X454950Y239678D01*
X454654Y238572D01*
Y237428D01*
X454950Y236322D01*
X455522Y235331D01*
X456331Y234522D01*
X457322Y233950D01*
X458428Y233653D01*
X459572D01*
X460678Y233950D01*
X461669Y234522D01*
X462478Y235331D01*
X463050Y236322D01*
X463346Y237428D01*
Y238572D01*
X463050Y239678D01*
X462478Y240669D01*
X462123Y241024D01*
X462072Y241102D01*
X461786Y241395D01*
X461550Y241661D01*
X461347Y241915D01*
X461178Y242156D01*
X461042Y242383D01*
X460936Y242593D01*
X460859Y242787D01*
X460808Y242963D01*
X460784Y243099D01*
Y255761D01*
X467739Y262716D01*
X511500D01*
X512183Y262852D01*
X512762Y263238D01*
X519762Y270238D01*
X519762Y270238D01*
X520149Y270817D01*
X520284Y271500D01*
Y288157D01*
X520284Y288158D01*
X520149Y288840D01*
X519762Y289419D01*
X511919Y297262D01*
X511340Y297649D01*
X510658Y297784D01*
X466373D01*
X443895Y320262D01*
X443317Y320649D01*
X442634Y320784D01*
X389239D01*
X376284Y333739D01*
Y334901D01*
X376308Y335037D01*
X376359Y335213D01*
X376436Y335407D01*
X376542Y335617D01*
X376678Y335843D01*
X376839Y336073D01*
X377296Y336615D01*
X377572Y336898D01*
X377623Y336976D01*
X377978Y337331D01*
X378550Y338322D01*
X378847Y339428D01*
Y340572D01*
X378550Y341678D01*
X377978Y342669D01*
X377169Y343478D01*
X376178Y344050D01*
X375072Y344346D01*
X373928D01*
X372822Y344050D01*
X371831Y343478D01*
X371022Y342669D01*
X370450Y341678D01*
X370153Y340572D01*
Y339428D01*
X370450Y338322D01*
X371022Y337331D01*
X371377Y336976D01*
X371428Y336898D01*
X371714Y336605D01*
X371950Y336339D01*
X372153Y336085D01*
X372322Y335844D01*
X372458Y335617D01*
X372564Y335407D01*
X372641Y335213D01*
X372692Y335037D01*
X372716Y334901D01*
Y333000D01*
X372851Y332317D01*
X373238Y331738D01*
X387238Y317738D01*
X387817Y317352D01*
X388500Y317216D01*
X388500Y317216D01*
X441895D01*
X464372Y294738D01*
X464951Y294352D01*
X465634Y294216D01*
X509918D01*
X516716Y287418D01*
Y284394D01*
X516216Y284345D01*
X516149Y284683D01*
X515762Y285262D01*
X509262Y291762D01*
X508683Y292148D01*
X508000Y292284D01*
X460239D01*
X436762Y315762D01*
X436183Y316148D01*
X435500Y316284D01*
X381739D01*
X366284Y331739D01*
Y334901D01*
X366308Y335037D01*
X366359Y335213D01*
X366436Y335407D01*
X366542Y335617D01*
X366678Y335843D01*
X366839Y336073D01*
X367296Y336615D01*
X367572Y336898D01*
X367623Y336976D01*
X367978Y337331D01*
X368550Y338322D01*
X368846Y339428D01*
Y340572D01*
X368550Y341678D01*
X367978Y342669D01*
X367169Y343478D01*
X366178Y344050D01*
X365072Y344346D01*
X363928D01*
X363613Y344262D01*
X363354Y344710D01*
X375996Y357352D01*
X376106Y357433D01*
X376267Y357529D01*
X376436Y357606D01*
X376616Y357666D01*
X376810Y357710D01*
X377021Y357736D01*
X377251Y357743D01*
X377502Y357730D01*
X377779Y357693D01*
X377928Y357653D01*
X379072D01*
X380178Y357950D01*
X381169Y358522D01*
X381978Y359331D01*
X382550Y360322D01*
X382846Y361428D01*
Y362572D01*
X382550Y363678D01*
X381978Y364669D01*
X381169Y365478D01*
X380178Y366050D01*
X379072Y366347D01*
D02*
G37*
G36*
X276072Y353346D02*
X274928D01*
X273822Y353050D01*
X272831Y352478D01*
X272022Y351669D01*
X271450Y350678D01*
X271154Y349572D01*
Y348428D01*
X271450Y347322D01*
X272022Y346331D01*
X272831Y345522D01*
X273822Y344950D01*
X274928Y344654D01*
X276072D01*
X277178Y344950D01*
X278169Y345522D01*
X278978Y346331D01*
X279550Y347322D01*
X279847Y348428D01*
Y349572D01*
X279550Y350678D01*
X278978Y351669D01*
X278169Y352478D01*
X277178Y353050D01*
X276072Y353346D01*
D02*
G37*
G36*
X236072D02*
X234928D01*
X233822Y353050D01*
X232831Y352478D01*
X232022Y351669D01*
X231450Y350678D01*
X231153Y349572D01*
Y348428D01*
X231450Y347322D01*
X232022Y346331D01*
X232831Y345522D01*
X233822Y344950D01*
X234928Y344654D01*
X236072D01*
X237178Y344950D01*
X238169Y345522D01*
X238978Y346331D01*
X239550Y347322D01*
X239846Y348428D01*
Y349572D01*
X239550Y350678D01*
X238978Y351669D01*
X238169Y352478D01*
X237178Y353050D01*
X236072Y353346D01*
D02*
G37*
G36*
X226072D02*
X224928D01*
X223822Y353050D01*
X222831Y352478D01*
X222022Y351669D01*
X221450Y350678D01*
X221153Y349572D01*
Y348428D01*
X221450Y347322D01*
X222022Y346331D01*
X222831Y345522D01*
X223822Y344950D01*
X224928Y344654D01*
X226072D01*
X227178Y344950D01*
X228169Y345522D01*
X228978Y346331D01*
X229550Y347322D01*
X229846Y348428D01*
Y349572D01*
X229550Y350678D01*
X228978Y351669D01*
X228169Y352478D01*
X227178Y353050D01*
X226072Y353346D01*
D02*
G37*
G36*
X315072Y344346D02*
X313928D01*
X312822Y344050D01*
X311831Y343478D01*
X311022Y342669D01*
X310450Y341678D01*
X310154Y340572D01*
Y339428D01*
X310450Y338322D01*
X311022Y337331D01*
X311831Y336522D01*
X312822Y335950D01*
X313928Y335654D01*
X315072D01*
X316178Y335950D01*
X317169Y336522D01*
X317978Y337331D01*
X318550Y338322D01*
X318847Y339428D01*
Y340572D01*
X318550Y341678D01*
X317978Y342669D01*
X317169Y343478D01*
X316178Y344050D01*
X315072Y344346D01*
D02*
G37*
G36*
X515678Y376453D02*
X514637D01*
X513632Y376183D01*
X512730Y375663D01*
X511995Y374927D01*
X511474Y374026D01*
X511205Y373020D01*
Y372580D01*
X511186Y372495D01*
X511179Y372237D01*
X511160Y372028D01*
X511126Y371832D01*
X511079Y371649D01*
X511019Y371476D01*
X510947Y371311D01*
X510861Y371154D01*
X510760Y371002D01*
X510703Y370930D01*
X503058Y363284D01*
X502616Y362623D01*
X502461Y361842D01*
Y344887D01*
X502448Y344738D01*
X502412Y344524D01*
X502372Y344372D01*
X502361Y344346D01*
X500153D01*
Y335653D01*
X508846D01*
Y344346D01*
X506639D01*
X506629Y344372D01*
X506588Y344524D01*
X506552Y344738D01*
X506539Y344887D01*
Y360998D01*
X513587Y368046D01*
X513660Y368103D01*
X513811Y368203D01*
X513969Y368289D01*
X514133Y368362D01*
X514306Y368421D01*
X514490Y368468D01*
X514686Y368502D01*
X514895Y368522D01*
X515152Y368528D01*
X515238Y368547D01*
X515678D01*
X516683Y368817D01*
X517585Y369337D01*
X518321Y370073D01*
X518841Y370974D01*
X519110Y371980D01*
Y373020D01*
X518841Y374026D01*
X518321Y374927D01*
X517585Y375663D01*
X516683Y376183D01*
X515678Y376453D01*
D02*
G37*
G36*
X485072Y344346D02*
X483928D01*
X482822Y344050D01*
X481831Y343478D01*
X481022Y342669D01*
X480450Y341678D01*
X480154Y340572D01*
Y339428D01*
X480450Y338322D01*
X481022Y337331D01*
X481831Y336522D01*
X482822Y335950D01*
X483928Y335653D01*
X485072D01*
X486178Y335950D01*
X487169Y336522D01*
X487978Y337331D01*
X488550Y338322D01*
X488846Y339428D01*
Y340572D01*
X488550Y341678D01*
X487978Y342669D01*
X487169Y343478D01*
X486178Y344050D01*
X485072Y344346D01*
D02*
G37*
G36*
X475072D02*
X473928D01*
X472822Y344050D01*
X471831Y343478D01*
X471022Y342669D01*
X470450Y341678D01*
X470154Y340572D01*
Y339428D01*
X470450Y338322D01*
X471022Y337331D01*
X471831Y336522D01*
X472822Y335950D01*
X473928Y335653D01*
X475072D01*
X476178Y335950D01*
X477169Y336522D01*
X477978Y337331D01*
X478550Y338322D01*
X478847Y339428D01*
Y340572D01*
X478550Y341678D01*
X477978Y342669D01*
X477169Y343478D01*
X476178Y344050D01*
X475072Y344346D01*
D02*
G37*
G36*
X431072Y485347D02*
X429928D01*
X428822Y485050D01*
X427831Y484478D01*
X427022Y483669D01*
X426450Y482678D01*
X426154Y481572D01*
Y480428D01*
X426450Y479322D01*
X427022Y478331D01*
X427831Y477522D01*
X428822Y476950D01*
X429928Y476653D01*
X430430D01*
X430521Y476634D01*
X430930Y476629D01*
X431286Y476608D01*
X431609Y476572D01*
X431899Y476521D01*
X432156Y476457D01*
X432379Y476383D01*
X432570Y476301D01*
X432730Y476212D01*
X432844Y476133D01*
X462716Y446261D01*
Y345099D01*
X462692Y344963D01*
X462641Y344787D01*
X462564Y344593D01*
X462458Y344383D01*
X462322Y344157D01*
X462161Y343927D01*
X461704Y343385D01*
X461428Y343102D01*
X461377Y343024D01*
X461022Y342669D01*
X460450Y341678D01*
X460153Y340572D01*
Y339428D01*
X460450Y338322D01*
X461022Y337331D01*
X461831Y336522D01*
X462822Y335950D01*
X463928Y335653D01*
X465072D01*
X466178Y335950D01*
X467169Y336522D01*
X467978Y337331D01*
X468550Y338322D01*
X468847Y339428D01*
Y340572D01*
X468550Y341678D01*
X467978Y342669D01*
X467623Y343024D01*
X467572Y343102D01*
X467286Y343395D01*
X467050Y343661D01*
X466847Y343915D01*
X466678Y344156D01*
X466542Y344383D01*
X466436Y344593D01*
X466359Y344787D01*
X466308Y344963D01*
X466284Y345099D01*
Y447000D01*
X466149Y447683D01*
X465762Y448262D01*
X435367Y478656D01*
X435288Y478769D01*
X435199Y478930D01*
X435117Y479121D01*
X435043Y479344D01*
X434979Y479601D01*
X434931Y479877D01*
X434870Y480583D01*
X434866Y480978D01*
X434846Y481070D01*
Y481572D01*
X434550Y482678D01*
X433978Y483669D01*
X433169Y484478D01*
X432178Y485050D01*
X431072Y485347D01*
D02*
G37*
G36*
X421072D02*
X419928D01*
X418822Y485050D01*
X417831Y484478D01*
X417022Y483669D01*
X416450Y482678D01*
X416153Y481572D01*
Y480428D01*
X416450Y479322D01*
X417022Y478331D01*
X417377Y477976D01*
X417428Y477898D01*
X417714Y477605D01*
X417950Y477339D01*
X418153Y477085D01*
X418322Y476844D01*
X418458Y476617D01*
X418564Y476407D01*
X418641Y476213D01*
X418692Y476037D01*
X418716Y475901D01*
Y394000D01*
X418852Y393317D01*
X419238Y392738D01*
X435216Y376761D01*
Y353239D01*
X433238Y351262D01*
X432852Y350683D01*
X432716Y350000D01*
Y345099D01*
X432692Y344963D01*
X432641Y344787D01*
X432564Y344593D01*
X432458Y344383D01*
X432322Y344157D01*
X432161Y343927D01*
X431704Y343385D01*
X431428Y343102D01*
X431377Y343024D01*
X431022Y342669D01*
X430450Y341678D01*
X430154Y340572D01*
Y339428D01*
X430450Y338322D01*
X431022Y337331D01*
X431831Y336522D01*
X432822Y335950D01*
X433928Y335653D01*
X435072D01*
X436178Y335950D01*
X437169Y336522D01*
X437978Y337331D01*
X438550Y338322D01*
X438846Y339428D01*
Y340572D01*
X438550Y341678D01*
X437978Y342669D01*
X437623Y343024D01*
X437572Y343102D01*
X437286Y343395D01*
X437050Y343661D01*
X436847Y343915D01*
X436678Y344156D01*
X436542Y344383D01*
X436436Y344593D01*
X436359Y344787D01*
X436308Y344963D01*
X436284Y345099D01*
Y349261D01*
X438262Y351238D01*
X438262Y351238D01*
X438649Y351817D01*
X438784Y352500D01*
Y377500D01*
X438649Y378183D01*
X438262Y378762D01*
X438262Y378762D01*
X422284Y394739D01*
Y475901D01*
X422308Y476037D01*
X422359Y476213D01*
X422436Y476407D01*
X422542Y476617D01*
X422678Y476844D01*
X422839Y477073D01*
X423296Y477615D01*
X423572Y477898D01*
X423623Y477976D01*
X423978Y478331D01*
X424550Y479322D01*
X424847Y480428D01*
Y481572D01*
X424550Y482678D01*
X423978Y483669D01*
X423169Y484478D01*
X422178Y485050D01*
X421072Y485347D01*
D02*
G37*
G36*
X432846Y366347D02*
X424154D01*
Y357653D01*
X426858D01*
X426872Y357619D01*
X426912Y357469D01*
X426948Y357257D01*
X426961Y357109D01*
Y345345D01*
X426543Y344927D01*
X426436Y344845D01*
X426261Y344737D01*
X426072Y344641D01*
X425867Y344558D01*
X425643Y344490D01*
X425400Y344435D01*
X425136Y344395D01*
X424850Y344372D01*
X424514Y344366D01*
X424426Y344346D01*
X423928D01*
X422822Y344050D01*
X421831Y343478D01*
X421022Y342669D01*
X420450Y341678D01*
X420154Y340572D01*
Y339428D01*
X420450Y338322D01*
X421022Y337331D01*
X421831Y336522D01*
X422822Y335950D01*
X423928Y335653D01*
X425072D01*
X426178Y335950D01*
X427169Y336522D01*
X427978Y337331D01*
X428550Y338322D01*
X428847Y339428D01*
Y339926D01*
X428866Y340014D01*
X428872Y340350D01*
X428895Y340636D01*
X428935Y340900D01*
X428990Y341143D01*
X429059Y341367D01*
X429141Y341572D01*
X429237Y341761D01*
X429345Y341936D01*
X429427Y342043D01*
X430442Y343058D01*
X430884Y343720D01*
X431039Y344500D01*
X431039Y344500D01*
Y357109D01*
X431052Y357257D01*
X431087Y357469D01*
X431128Y357619D01*
X431142Y357653D01*
X432846D01*
Y366347D01*
D02*
G37*
G36*
X419072D02*
X417928D01*
X416822Y366050D01*
X415831Y365478D01*
X415022Y364669D01*
X414450Y363678D01*
X414153Y362572D01*
Y361428D01*
X414450Y360322D01*
X415022Y359331D01*
X415831Y358522D01*
X416461Y358158D01*
Y352345D01*
X413058Y348942D01*
X412616Y348280D01*
X412461Y347500D01*
Y344929D01*
X412442Y344795D01*
X412396Y344595D01*
X412330Y344393D01*
X412243Y344190D01*
X412134Y343983D01*
X412001Y343772D01*
X411842Y343558D01*
X411656Y343339D01*
X411423Y343097D01*
X411374Y343021D01*
X411022Y342669D01*
X410450Y341678D01*
X410153Y340572D01*
Y339428D01*
X410450Y338322D01*
X411022Y337331D01*
X411831Y336522D01*
X412822Y335950D01*
X413928Y335653D01*
X415072D01*
X416178Y335950D01*
X417169Y336522D01*
X417978Y337331D01*
X418550Y338322D01*
X418847Y339428D01*
Y340572D01*
X418550Y341678D01*
X417978Y342669D01*
X417626Y343021D01*
X417577Y343097D01*
X417344Y343339D01*
X417158Y343557D01*
X416999Y343772D01*
X416866Y343983D01*
X416757Y344190D01*
X416670Y344393D01*
X416604Y344595D01*
X416558Y344795D01*
X416539Y344929D01*
Y346655D01*
X419942Y350058D01*
X420384Y350720D01*
X420539Y351500D01*
Y358158D01*
X421169Y358522D01*
X421978Y359331D01*
X422550Y360322D01*
X422847Y361428D01*
Y362572D01*
X422550Y363678D01*
X421978Y364669D01*
X421169Y365478D01*
X420178Y366050D01*
X419072Y366347D01*
D02*
G37*
G36*
X345072Y344346D02*
X343928D01*
X342822Y344050D01*
X341831Y343478D01*
X341022Y342669D01*
X340450Y341678D01*
X340154Y340572D01*
Y339428D01*
X340450Y338322D01*
X341022Y337331D01*
X341831Y336522D01*
X342822Y335950D01*
X343928Y335653D01*
X345072D01*
X346178Y335950D01*
X347169Y336522D01*
X347978Y337331D01*
X348550Y338322D01*
X348847Y339428D01*
Y340572D01*
X348550Y341678D01*
X347978Y342669D01*
X347169Y343478D01*
X346178Y344050D01*
X345072Y344346D01*
D02*
G37*
G36*
X405072D02*
X403928D01*
X402822Y344050D01*
X401831Y343478D01*
X401022Y342669D01*
X400450Y341678D01*
X400154Y340572D01*
Y339428D01*
X400450Y338322D01*
X401022Y337331D01*
X401831Y336522D01*
X402067Y336386D01*
X402088Y336362D01*
X402102Y336356D01*
X402112Y336346D01*
X403026Y335713D01*
X403288Y335513D01*
X404617Y334360D01*
X409192Y329784D01*
X409167Y329592D01*
X409018Y329284D01*
X401239D01*
X396284Y334239D01*
Y334901D01*
X396308Y335037D01*
X396359Y335213D01*
X396436Y335407D01*
X396542Y335617D01*
X396678Y335843D01*
X396839Y336073D01*
X397296Y336615D01*
X397572Y336898D01*
X397623Y336976D01*
X397978Y337331D01*
X398550Y338322D01*
X398847Y339428D01*
Y340572D01*
X398550Y341678D01*
X397978Y342669D01*
X397169Y343478D01*
X396178Y344050D01*
X395072Y344346D01*
X393928D01*
X392822Y344050D01*
X391831Y343478D01*
X391022Y342669D01*
X390450Y341678D01*
X390154Y340572D01*
Y339428D01*
X390450Y338322D01*
X391022Y337331D01*
X391377Y336976D01*
X391428Y336898D01*
X391714Y336605D01*
X391950Y336339D01*
X392153Y336085D01*
X392322Y335844D01*
X392458Y335617D01*
X392564Y335407D01*
X392641Y335213D01*
X392692Y335037D01*
X392716Y334901D01*
Y333500D01*
X392851Y332817D01*
X393238Y332238D01*
X399238Y326238D01*
X399817Y325851D01*
X400155Y325784D01*
X400106Y325284D01*
X395239D01*
X386284Y334239D01*
Y334901D01*
X386308Y335037D01*
X386359Y335213D01*
X386436Y335407D01*
X386542Y335617D01*
X386678Y335843D01*
X386839Y336073D01*
X387296Y336615D01*
X387572Y336898D01*
X387623Y336976D01*
X387978Y337331D01*
X388550Y338322D01*
X388846Y339428D01*
Y340572D01*
X388550Y341678D01*
X387978Y342669D01*
X387169Y343478D01*
X386178Y344050D01*
X385072Y344346D01*
X383928D01*
X382822Y344050D01*
X381831Y343478D01*
X381022Y342669D01*
X380450Y341678D01*
X380153Y340572D01*
Y339428D01*
X380450Y338322D01*
X381022Y337331D01*
X381377Y336976D01*
X381428Y336898D01*
X381714Y336605D01*
X381950Y336339D01*
X382153Y336085D01*
X382322Y335844D01*
X382458Y335617D01*
X382564Y335407D01*
X382641Y335213D01*
X382692Y335037D01*
X382716Y334901D01*
Y333500D01*
X382852Y332817D01*
X383238Y332238D01*
X393238Y322238D01*
X393238Y322238D01*
X393817Y321851D01*
X394500Y321716D01*
X394500Y321716D01*
X456761D01*
X477738Y300738D01*
X478317Y300352D01*
X479000Y300216D01*
X514261D01*
X523716Y290761D01*
Y253000D01*
X523851Y252317D01*
X524238Y251738D01*
X526238Y249739D01*
X526238Y249739D01*
X526817Y249352D01*
X527500Y249216D01*
X533519D01*
X534010Y248785D01*
Y247549D01*
X534010Y247500D01*
X533893Y247049D01*
X525621D01*
X524645Y246855D01*
X523818Y246302D01*
X520698Y243182D01*
X520145Y242355D01*
X519951Y241379D01*
Y235000D01*
X520145Y234025D01*
X520698Y233198D01*
X521525Y232645D01*
X522500Y232451D01*
X523476Y232645D01*
X524302Y233198D01*
X524855Y234025D01*
X525049Y235000D01*
Y240323D01*
X526677Y241951D01*
X562000D01*
X562976Y242145D01*
X563802Y242698D01*
X570302Y249198D01*
X571802Y250698D01*
X572355Y251524D01*
X572549Y252500D01*
Y265500D01*
Y282000D01*
Y285000D01*
X572355Y285976D01*
X572105Y286350D01*
X572039Y287398D01*
Y292000D01*
X571884Y292780D01*
X571442Y293442D01*
X568576Y296308D01*
X567914Y296750D01*
X567134Y296905D01*
X564462D01*
X564313Y296918D01*
X564099Y296954D01*
X563947Y296995D01*
X563899Y297014D01*
X563868Y297113D01*
X563839Y297256D01*
X563809Y297302D01*
X563793Y297353D01*
X563699Y297466D01*
X563618Y297587D01*
X563573Y297617D01*
X563538Y297659D01*
X563409Y297727D01*
X563287Y297808D01*
X563234Y297819D01*
X563186Y297844D01*
X563041Y297857D01*
X562897Y297886D01*
X562844Y297875D01*
X562790Y297880D01*
X562650Y297837D01*
X562507Y297808D01*
X562462Y297778D01*
X562410Y297762D01*
X562298Y297668D01*
X562176Y297587D01*
X562146Y297542D01*
X562104Y297507D01*
X562037Y297378D01*
X561955Y297256D01*
X561945Y297203D01*
X561919Y297155D01*
X561906Y297009D01*
X561885Y296905D01*
X561740D01*
X560960Y296750D01*
X560298Y296308D01*
X559856Y295647D01*
X559701Y294866D01*
X559856Y294086D01*
X560298Y293424D01*
X560960Y292982D01*
X561740Y292827D01*
X561885D01*
X561906Y292723D01*
X561919Y292577D01*
X561945Y292529D01*
X561955Y292476D01*
X562037Y292354D01*
X562104Y292225D01*
X562146Y292190D01*
X562176Y292145D01*
X562298Y292064D01*
X562410Y291970D01*
X562462Y291954D01*
X562507Y291924D01*
X562650Y291896D01*
X562790Y291852D01*
X562844Y291857D01*
X562897Y291846D01*
X563041Y291875D01*
X563186Y291888D01*
X563234Y291914D01*
X563287Y291924D01*
X563409Y292005D01*
X563538Y292073D01*
X563573Y292115D01*
X563618Y292145D01*
X563699Y292267D01*
X563793Y292379D01*
X563809Y292431D01*
X563839Y292476D01*
X563868Y292619D01*
X563899Y292718D01*
X563947Y292738D01*
X564099Y292778D01*
X564313Y292814D01*
X564462Y292827D01*
X566289D01*
X567961Y291155D01*
Y287549D01*
X565292D01*
X564661Y287593D01*
X564395Y287628D01*
X564242Y287659D01*
X564222Y287675D01*
X564199Y287709D01*
X564067Y287797D01*
X563942Y287896D01*
X563903Y287907D01*
X563868Y287930D01*
X563712Y287961D01*
X563559Y288004D01*
X563518Y288000D01*
X563478Y288008D01*
X563322Y287977D01*
X563164Y287958D01*
X563128Y287938D01*
X563088Y287930D01*
X562956Y287842D01*
X562817Y287764D01*
X562791Y287732D01*
X562757Y287709D01*
X562669Y287577D01*
X562647Y287549D01*
X561740D01*
X560765Y287355D01*
X559938Y286802D01*
X559385Y285976D01*
X559191Y285000D01*
Y284500D01*
X559385Y283524D01*
X559938Y282698D01*
X560765Y282145D01*
X561740Y281951D01*
X561985Y282000D01*
X562124Y281963D01*
X562453Y281754D01*
X562536Y281622D01*
X562617Y281500D01*
X562685Y281371D01*
X562727Y281336D01*
X562757Y281291D01*
X562879Y281210D01*
X562991Y281116D01*
X563043Y281100D01*
X563088Y281070D01*
X563231Y281042D01*
X563371Y280998D01*
X563425Y281003D01*
X563478Y280992D01*
X563621Y281021D01*
X563767Y281034D01*
X563815Y281059D01*
X563868Y281070D01*
X563990Y281151D01*
X564119Y281219D01*
X564154Y281261D01*
X564199Y281291D01*
X564280Y281412D01*
X564374Y281525D01*
X564390Y281577D01*
X564420Y281622D01*
X564449Y281765D01*
X564492Y281904D01*
X564509Y282067D01*
X564516Y282085D01*
X564527Y282102D01*
X564574Y282145D01*
X564687Y282214D01*
X564883Y282293D01*
X565163Y282368D01*
X565526Y282428D01*
X565787Y282451D01*
X567451D01*
Y282000D01*
Y267134D01*
X566134Y267029D01*
X561276D01*
X561198Y267035D01*
X561146Y267042D01*
X561086Y267110D01*
X561012Y267221D01*
X560956Y267259D01*
X560911Y267309D01*
X560792Y267368D01*
X560681Y267442D01*
X560615Y267455D01*
X560554Y267485D01*
X560422Y267494D01*
X560291Y267520D01*
X560225Y267506D01*
X560157Y267511D01*
X560031Y267468D01*
X559901Y267442D01*
X559845Y267404D01*
X559781Y267383D01*
X559681Y267295D01*
X559570Y267221D01*
X559533Y267165D01*
X559482Y267120D01*
X559437Y267029D01*
X559059D01*
X558474Y266913D01*
X557978Y266581D01*
X557646Y266085D01*
X557530Y265500D01*
X557646Y264915D01*
X557978Y264419D01*
X558474Y264087D01*
X559059Y263971D01*
X559437D01*
X559482Y263880D01*
X559533Y263835D01*
X559570Y263779D01*
X559681Y263705D01*
X559781Y263617D01*
X559845Y263596D01*
X559901Y263558D01*
X560031Y263532D01*
X560157Y263489D01*
X560225Y263494D01*
X560291Y263480D01*
X560422Y263506D01*
X560554Y263515D01*
X560615Y263545D01*
X560681Y263558D01*
X560792Y263632D01*
X560911Y263691D01*
X560956Y263741D01*
X561012Y263779D01*
X561086Y263890D01*
X561142Y263954D01*
X561311Y263971D01*
X566023D01*
X566562Y263959D01*
X567351Y263896D01*
X567451Y263882D01*
Y253556D01*
X566674Y252779D01*
X566588Y252746D01*
X566401Y252695D01*
X566181Y252652D01*
X564634Y252529D01*
X561276D01*
X561198Y252535D01*
X561146Y252542D01*
X561086Y252610D01*
X561012Y252721D01*
X560956Y252759D01*
X560911Y252809D01*
X560792Y252868D01*
X560681Y252942D01*
X560615Y252955D01*
X560554Y252985D01*
X560422Y252994D01*
X560291Y253020D01*
X560225Y253006D01*
X560157Y253011D01*
X560031Y252968D01*
X559901Y252942D01*
X559845Y252904D01*
X559781Y252883D01*
X559681Y252795D01*
X559570Y252721D01*
X559533Y252665D01*
X559482Y252620D01*
X559437Y252529D01*
X559059D01*
X558474Y252413D01*
X557978Y252081D01*
X557646Y251585D01*
X557530Y251000D01*
X557646Y250415D01*
X557978Y249919D01*
X558474Y249587D01*
X559059Y249471D01*
X559437D01*
X559482Y249380D01*
X559533Y249335D01*
X559570Y249279D01*
X559681Y249205D01*
X559781Y249117D01*
X559845Y249096D01*
X559901Y249058D01*
X560031Y249032D01*
X560157Y248989D01*
X560225Y248994D01*
X560291Y248980D01*
X560422Y249006D01*
X560554Y249015D01*
X560615Y249045D01*
X560681Y249058D01*
X560792Y249132D01*
X560911Y249191D01*
X560956Y249241D01*
X561012Y249279D01*
X561086Y249390D01*
X561142Y249454D01*
X561311Y249471D01*
X562712D01*
X562904Y249009D01*
X560944Y247049D01*
X547108D01*
X546990Y247500D01*
X546990Y247549D01*
Y249471D01*
X550441D01*
Y248500D01*
X555441D01*
Y253500D01*
X550441D01*
Y252530D01*
X546990D01*
Y254500D01*
X541491D01*
Y247549D01*
X541491Y247500D01*
X541373Y247049D01*
X539628D01*
X539510Y247500D01*
X539510Y247549D01*
Y254500D01*
X534010D01*
Y252805D01*
X533933Y252793D01*
X533844Y252785D01*
X528239D01*
X527284Y253739D01*
Y291500D01*
X527164Y292106D01*
X527349Y292285D01*
X527576Y292401D01*
X534976Y285001D01*
Y269163D01*
X534968Y269072D01*
X534956Y269000D01*
X534010D01*
Y262000D01*
X539510D01*
Y269000D01*
X538564D01*
X538553Y269072D01*
X538544Y269163D01*
Y285740D01*
X538544Y285740D01*
X538409Y286423D01*
X538022Y287001D01*
X538022Y287001D01*
X518262Y306762D01*
X517683Y307149D01*
X517000Y307284D01*
X485239D01*
X463808Y328716D01*
X463833Y328908D01*
X463982Y329216D01*
X467261D01*
X486738Y309738D01*
X487317Y309351D01*
X488000Y309216D01*
X516761D01*
X540032Y285945D01*
X540139Y285822D01*
X540289Y285630D01*
X540403Y285463D01*
X540481Y285326D01*
X540500Y285281D01*
Y283509D01*
X547500D01*
Y289009D01*
X542075D01*
X541626Y289397D01*
X540533Y290490D01*
X540741Y290990D01*
X540901Y290990D01*
X547500D01*
Y291936D01*
X547572Y291948D01*
X547663Y291956D01*
X551937D01*
X552015Y291949D01*
X552079Y291940D01*
Y291307D01*
X552469D01*
X552476Y291219D01*
Y288163D01*
X552467Y288071D01*
X552456Y288000D01*
X551510D01*
Y281000D01*
X557010D01*
Y288000D01*
X556064D01*
X556052Y288071D01*
X556044Y288163D01*
Y291277D01*
X556045Y291296D01*
X556046Y291307D01*
X556441D01*
Y292281D01*
X556449Y292319D01*
X556441Y292357D01*
Y298425D01*
X552079D01*
Y295544D01*
X552006Y295532D01*
X551915Y295524D01*
X547663D01*
X547572Y295532D01*
X547500Y295544D01*
Y296490D01*
X540500D01*
Y291403D01*
X540500Y291230D01*
X540000Y291023D01*
X518762Y312262D01*
X518183Y312649D01*
X517500Y312784D01*
X488739D01*
X469262Y332262D01*
X468683Y332648D01*
X468000Y332784D01*
X411239D01*
X407700Y336323D01*
X407632Y336422D01*
X407589Y336510D01*
X407570Y336574D01*
X407564Y336629D01*
X407568Y336689D01*
X407589Y336772D01*
X407637Y336885D01*
X407722Y337029D01*
X407866Y337219D01*
X407978Y337331D01*
X408550Y338322D01*
X408847Y339428D01*
Y340572D01*
X408550Y341678D01*
X407978Y342669D01*
X407169Y343478D01*
X406178Y344050D01*
X405072Y344346D01*
D02*
G37*
G36*
X215500Y334510D02*
X208500D01*
Y329010D01*
X210195D01*
X210208Y328933D01*
X210215Y328844D01*
Y326154D01*
X210207Y326062D01*
X210196Y325991D01*
X208500D01*
Y325045D01*
X208428Y325033D01*
X208336Y325025D01*
X207241D01*
X206558Y324889D01*
X205979Y324502D01*
X205979Y324502D01*
X204738Y323262D01*
X204351Y322683D01*
X204216Y322000D01*
Y265500D01*
X204351Y264817D01*
X204738Y264238D01*
X209738Y259238D01*
X209738Y259238D01*
X210317Y258852D01*
X211000Y258716D01*
X211000Y258716D01*
X291000D01*
X291683Y258852D01*
X292262Y259238D01*
X304262Y271238D01*
X304262Y271238D01*
X304648Y271817D01*
X304784Y272500D01*
Y281761D01*
X311239Y288216D01*
X371761D01*
X373216Y286761D01*
Y284674D01*
X373191Y284540D01*
X373141Y284383D01*
X373068Y284218D01*
X372966Y284043D01*
X372833Y283858D01*
X372665Y283663D01*
X372462Y283461D01*
X372221Y283252D01*
X371960Y283052D01*
X371831Y282978D01*
X371022Y282169D01*
X370450Y281178D01*
X370153Y280072D01*
Y278928D01*
X370450Y277822D01*
X371022Y276831D01*
X371831Y276022D01*
X372822Y275450D01*
X373928Y275153D01*
X375072D01*
X376178Y275450D01*
X377169Y276022D01*
X377978Y276831D01*
X378550Y277822D01*
X378847Y278928D01*
Y280072D01*
X378550Y281178D01*
X377978Y282169D01*
X377901Y282246D01*
X377737Y282470D01*
X377523Y282787D01*
X377160Y283402D01*
X377033Y283658D01*
X376930Y283901D01*
X376855Y284119D01*
X376806Y284311D01*
X376784Y284443D01*
Y287500D01*
X376648Y288183D01*
X376262Y288762D01*
X376262Y288762D01*
X373762Y291262D01*
X373183Y291649D01*
X372500Y291784D01*
X310500D01*
X309817Y291649D01*
X309238Y291262D01*
X301738Y283762D01*
X301351Y283183D01*
X301216Y282500D01*
Y273239D01*
X290261Y262284D01*
X211739D01*
X207784Y266239D01*
Y321261D01*
X207980Y321456D01*
X208336D01*
X208428Y321448D01*
X208500Y321436D01*
Y320491D01*
X215500D01*
Y321436D01*
X215571Y321448D01*
X215663Y321456D01*
X220000D01*
Y319000D01*
X225000D01*
Y324000D01*
X222523D01*
X222021Y324502D01*
X221442Y324889D01*
X220760Y325025D01*
X215663D01*
X215571Y325033D01*
X215500Y325045D01*
Y325991D01*
X213804D01*
X213792Y326062D01*
X213784Y326154D01*
Y328844D01*
X213792Y328933D01*
X213805Y329010D01*
X215500D01*
Y334510D01*
D02*
G37*
G36*
X222500Y317911D02*
X221915Y317795D01*
X221599Y317584D01*
X221517Y317653D01*
X221465Y317669D01*
X221420Y317700D01*
X221277Y317729D01*
X221138Y317773D01*
X221084Y317769D01*
X221030Y317780D01*
X220887Y317752D01*
X220742Y317740D01*
X220693Y317715D01*
X220640Y317705D01*
X220518Y317624D01*
X220388Y317557D01*
X220353Y317516D01*
X220308Y317486D01*
X220226Y317365D01*
X220162Y317289D01*
X215336D01*
X215278Y317360D01*
X215197Y317481D01*
X215151Y317512D01*
X215116Y317553D01*
X214987Y317621D01*
X214866Y317702D01*
X214812Y317713D01*
X214764Y317738D01*
X214619Y317751D01*
X214476Y317780D01*
X214422Y317769D01*
X214368Y317774D01*
X214229Y317731D01*
X214086Y317702D01*
X214040Y317672D01*
X213988Y317655D01*
X213876Y317562D01*
X213755Y317481D01*
X213724Y317436D01*
X213682Y317401D01*
X213624Y317289D01*
X212000D01*
X211414Y317173D01*
X210918Y316842D01*
X210587Y316345D01*
X210470Y315760D01*
X210587Y315175D01*
X210918Y314679D01*
X211414Y314347D01*
X212000Y314231D01*
X213624D01*
X213682Y314120D01*
X213724Y314085D01*
X213755Y314039D01*
X213876Y313958D01*
X213988Y313865D01*
X214040Y313848D01*
X214086Y313818D01*
X214228Y313790D01*
X214368Y313746D01*
X214422Y313751D01*
X214476Y313741D01*
X214619Y313769D01*
X214764Y313782D01*
X214812Y313808D01*
X214866Y313818D01*
X214987Y313899D01*
X215116Y313967D01*
X215151Y314009D01*
X215197Y314039D01*
X215278Y314160D01*
X215336Y314231D01*
X220251D01*
X220286Y314178D01*
X220350Y314135D01*
X220401Y314078D01*
X220513Y314024D01*
X220616Y313954D01*
X220691Y313939D01*
X220760Y313906D01*
X220884Y313899D01*
X220971Y313881D01*
Y313266D01*
X220967Y313245D01*
X220966Y313239D01*
X220962Y313232D01*
X220869Y313093D01*
X220863Y313061D01*
X220847Y313034D01*
X220824Y312867D01*
X220791Y312703D01*
X220798Y312671D01*
X220793Y312639D01*
X220836Y312477D01*
X220869Y312313D01*
X220887Y312286D01*
X220895Y312255D01*
X220971Y312156D01*
Y312000D01*
X221087Y311415D01*
X221419Y310919D01*
X221915Y310587D01*
X222500Y310471D01*
X223085Y310587D01*
X223581Y310919D01*
X223913Y311415D01*
X224029Y312000D01*
X224029Y312000D01*
Y312156D01*
X224105Y312255D01*
X224113Y312286D01*
X224131Y312313D01*
X224164Y312477D01*
X224207Y312639D01*
X224202Y312671D01*
X224209Y312703D01*
X224176Y312867D01*
X224153Y313034D01*
X224137Y313061D01*
X224131Y313093D01*
X224038Y313232D01*
X224034Y313239D01*
X224033Y313245D01*
X224030Y313260D01*
X224029Y313272D01*
Y314045D01*
X224100Y314104D01*
X224221Y314185D01*
X224251Y314230D01*
X224293Y314265D01*
X224361Y314394D01*
X224442Y314516D01*
X224453Y314569D01*
X224478Y314618D01*
X224491Y314763D01*
X224520Y314906D01*
X224509Y314960D01*
X224514Y315014D01*
X224470Y315153D01*
X224442Y315296D01*
X224412Y315341D01*
X224395Y315394D01*
X224302Y315506D01*
X224221Y315627D01*
X224176Y315657D01*
X224141Y315699D01*
X224029Y315757D01*
Y316382D01*
X223913Y316967D01*
X223581Y317463D01*
X223085Y317795D01*
X222500Y317911D01*
D02*
G37*
G36*
X256072Y353346D02*
X254928D01*
X253822Y353050D01*
X252831Y352478D01*
X252022Y351669D01*
X251450Y350678D01*
X251153Y349572D01*
Y348428D01*
X251450Y347322D01*
X252022Y346331D01*
X252374Y345979D01*
X252423Y345903D01*
X252656Y345661D01*
X252842Y345443D01*
X253000Y345228D01*
X253134Y345017D01*
X253243Y344810D01*
X253330Y344607D01*
X253396Y344406D01*
X253443Y344205D01*
X253461Y344071D01*
Y327000D01*
X253616Y326220D01*
X254058Y325558D01*
X272058Y307558D01*
X272720Y307116D01*
X273106Y307039D01*
X273057Y306539D01*
X265345D01*
X247539Y324345D01*
Y344071D01*
X247557Y344205D01*
X247604Y344405D01*
X247670Y344607D01*
X247757Y344810D01*
X247866Y345017D01*
X248000Y345228D01*
X248158Y345443D01*
X248344Y345661D01*
X248577Y345903D01*
X248626Y345979D01*
X248978Y346331D01*
X249550Y347322D01*
X249847Y348428D01*
Y349572D01*
X249550Y350678D01*
X248978Y351669D01*
X248169Y352478D01*
X247178Y353050D01*
X246072Y353346D01*
X244928D01*
X243822Y353050D01*
X242831Y352478D01*
X242022Y351669D01*
X241450Y350678D01*
X241154Y349572D01*
Y348428D01*
X241450Y347322D01*
X242022Y346331D01*
X242374Y345979D01*
X242423Y345903D01*
X242656Y345661D01*
X242842Y345443D01*
X243001Y345228D01*
X243134Y345017D01*
X243243Y344810D01*
X243330Y344607D01*
X243396Y344406D01*
X243443Y344205D01*
X243461Y344071D01*
Y323500D01*
X243616Y322720D01*
X244058Y322058D01*
X263058Y303058D01*
X263720Y302616D01*
X264500Y302461D01*
X269057D01*
X269106Y301961D01*
X268720Y301884D01*
X268058Y301442D01*
X254058Y287442D01*
X253616Y286780D01*
X253461Y286000D01*
Y272929D01*
X253443Y272795D01*
X253396Y272595D01*
X253330Y272393D01*
X253243Y272190D01*
X253134Y271983D01*
X253000Y271772D01*
X252842Y271557D01*
X252656Y271339D01*
X252423Y271097D01*
X252374Y271021D01*
X252022Y270669D01*
X251450Y269678D01*
X251153Y268572D01*
Y267428D01*
X251450Y266322D01*
X252022Y265331D01*
X252831Y264522D01*
X253822Y263950D01*
X254928Y263653D01*
X256072D01*
X257178Y263950D01*
X258169Y264522D01*
X258978Y265331D01*
X259550Y266322D01*
X259846Y267428D01*
Y268572D01*
X259550Y269678D01*
X258978Y270669D01*
X258626Y271021D01*
X258577Y271097D01*
X258344Y271339D01*
X258158Y271557D01*
X257999Y271772D01*
X257866Y271983D01*
X257757Y272190D01*
X257670Y272393D01*
X257604Y272594D01*
X257558Y272795D01*
X257539Y272929D01*
Y285155D01*
X270345Y297961D01*
X278870D01*
X279077Y297461D01*
X264058Y282442D01*
X263616Y281780D01*
X263461Y281000D01*
Y272929D01*
X263442Y272795D01*
X263396Y272595D01*
X263330Y272393D01*
X263243Y272190D01*
X263134Y271983D01*
X263000Y271772D01*
X262842Y271557D01*
X262656Y271339D01*
X262423Y271097D01*
X262374Y271021D01*
X262022Y270669D01*
X261450Y269678D01*
X261154Y268572D01*
Y267428D01*
X261450Y266322D01*
X262022Y265331D01*
X262831Y264522D01*
X263822Y263950D01*
X264928Y263653D01*
X266072D01*
X267178Y263950D01*
X268169Y264522D01*
X268978Y265331D01*
X269550Y266322D01*
X269847Y267428D01*
Y268572D01*
X269550Y269678D01*
X268978Y270669D01*
X268626Y271021D01*
X268577Y271097D01*
X268344Y271339D01*
X268158Y271557D01*
X268000Y271772D01*
X267866Y271983D01*
X267757Y272190D01*
X267670Y272393D01*
X267604Y272594D01*
X267558Y272795D01*
X267539Y272929D01*
Y280155D01*
X281845Y294461D01*
X404655D01*
X412461Y286655D01*
Y284429D01*
X412442Y284295D01*
X412396Y284095D01*
X412330Y283893D01*
X412243Y283690D01*
X412134Y283483D01*
X412001Y283272D01*
X411842Y283057D01*
X411656Y282839D01*
X411423Y282597D01*
X411374Y282521D01*
X411022Y282169D01*
X410450Y281178D01*
X410153Y280072D01*
Y278928D01*
X410450Y277822D01*
X411022Y276831D01*
X411831Y276022D01*
X412822Y275450D01*
X413928Y275153D01*
X415072D01*
X416178Y275450D01*
X417169Y276022D01*
X417978Y276831D01*
X418550Y277822D01*
X418847Y278928D01*
Y280072D01*
X418550Y281178D01*
X417978Y282169D01*
X417626Y282521D01*
X417577Y282597D01*
X417344Y282839D01*
X417158Y283057D01*
X416999Y283272D01*
X416866Y283483D01*
X416757Y283690D01*
X416670Y283893D01*
X416604Y284095D01*
X416558Y284295D01*
X416539Y284429D01*
Y287500D01*
X416384Y288280D01*
X415942Y288942D01*
X407423Y297461D01*
X407630Y297961D01*
X415655D01*
X422461Y291155D01*
Y284429D01*
X422442Y284295D01*
X422396Y284095D01*
X422330Y283893D01*
X422243Y283690D01*
X422134Y283483D01*
X422001Y283272D01*
X421842Y283057D01*
X421656Y282839D01*
X421423Y282597D01*
X421374Y282521D01*
X421022Y282169D01*
X420450Y281178D01*
X420154Y280072D01*
Y278928D01*
X420450Y277822D01*
X421022Y276831D01*
X421831Y276022D01*
X422822Y275450D01*
X423928Y275153D01*
X425072D01*
X426178Y275450D01*
X427169Y276022D01*
X427978Y276831D01*
X428550Y277822D01*
X428847Y278928D01*
Y280072D01*
X428550Y281178D01*
X427978Y282169D01*
X427626Y282521D01*
X427577Y282597D01*
X427344Y282839D01*
X427158Y283057D01*
X427000Y283272D01*
X426866Y283483D01*
X426757Y283690D01*
X426670Y283893D01*
X426604Y284095D01*
X426557Y284295D01*
X426539Y284429D01*
Y292000D01*
X426384Y292780D01*
X425942Y293442D01*
X417942Y301442D01*
X417280Y301884D01*
X416894Y301961D01*
X416943Y302461D01*
X421155D01*
X432461Y291155D01*
Y284429D01*
X432443Y284295D01*
X432396Y284095D01*
X432330Y283893D01*
X432243Y283690D01*
X432134Y283483D01*
X432000Y283272D01*
X431842Y283057D01*
X431656Y282839D01*
X431423Y282597D01*
X431374Y282521D01*
X431022Y282169D01*
X430450Y281178D01*
X430154Y280072D01*
Y278928D01*
X430450Y277822D01*
X431022Y276831D01*
X431831Y276022D01*
X432822Y275450D01*
X433928Y275153D01*
X435072D01*
X436178Y275450D01*
X437169Y276022D01*
X437978Y276831D01*
X438550Y277822D01*
X438846Y278928D01*
Y280072D01*
X438550Y281178D01*
X437978Y282169D01*
X437626Y282521D01*
X437577Y282597D01*
X437344Y282839D01*
X437158Y283057D01*
X437000Y283272D01*
X436866Y283483D01*
X436757Y283690D01*
X436670Y283893D01*
X436604Y284095D01*
X436557Y284295D01*
X436539Y284429D01*
Y292000D01*
X436539Y292000D01*
X436384Y292780D01*
X435942Y293442D01*
X435942Y293442D01*
X423442Y305942D01*
X422780Y306384D01*
X422394Y306461D01*
X422443Y306961D01*
X425655D01*
X442461Y290155D01*
Y284429D01*
X442443Y284295D01*
X442396Y284095D01*
X442330Y283893D01*
X442243Y283690D01*
X442134Y283483D01*
X442000Y283272D01*
X441842Y283057D01*
X441656Y282839D01*
X441423Y282597D01*
X441374Y282521D01*
X441022Y282169D01*
X440450Y281178D01*
X440154Y280072D01*
Y278928D01*
X440450Y277822D01*
X441022Y276831D01*
X441831Y276022D01*
X442822Y275450D01*
X443928Y275153D01*
X445072D01*
X446178Y275450D01*
X447169Y276022D01*
X447978Y276831D01*
X448550Y277822D01*
X448846Y278928D01*
Y280072D01*
X448550Y281178D01*
X447978Y282169D01*
X447626Y282521D01*
X447577Y282597D01*
X447344Y282839D01*
X447158Y283057D01*
X447000Y283272D01*
X446866Y283483D01*
X446757Y283690D01*
X446670Y283893D01*
X446604Y284095D01*
X446558Y284295D01*
X446539Y284429D01*
Y291000D01*
X446384Y291780D01*
X445942Y292442D01*
X427942Y310442D01*
X427280Y310884D01*
X426500Y311039D01*
X274345D01*
X257539Y327845D01*
Y344071D01*
X257558Y344205D01*
X257604Y344405D01*
X257670Y344607D01*
X257757Y344810D01*
X257866Y345017D01*
X257999Y345228D01*
X258158Y345443D01*
X258344Y345661D01*
X258577Y345903D01*
X258626Y345979D01*
X258978Y346331D01*
X259550Y347322D01*
X259846Y348428D01*
Y349572D01*
X259550Y350678D01*
X258978Y351669D01*
X258169Y352478D01*
X257178Y353050D01*
X256072Y353346D01*
D02*
G37*
G36*
X533993Y339931D02*
X532590D01*
X531234Y339567D01*
X530018Y338866D01*
X529026Y337873D01*
X528324Y336658D01*
X527961Y335302D01*
Y333898D01*
X528324Y332542D01*
X529026Y331327D01*
X529477Y330875D01*
X529526Y330799D01*
X529844Y330470D01*
X530105Y330165D01*
X530330Y329864D01*
X530521Y329567D01*
X530679Y329274D01*
X530804Y328987D01*
X530900Y328703D01*
X530967Y328421D01*
X530997Y328210D01*
Y317709D01*
X531172Y316831D01*
X531669Y316086D01*
X546244Y301512D01*
X546988Y301014D01*
X547866Y300840D01*
X554900D01*
X555107Y300822D01*
X555396Y300774D01*
X555613Y300715D01*
X555755Y300658D01*
X555819Y300619D01*
Y299575D01*
X560181D01*
Y302566D01*
X560294Y303134D01*
X560181Y303702D01*
Y306693D01*
X555819D01*
Y305649D01*
X555755Y305610D01*
X555613Y305552D01*
X555396Y305494D01*
X555107Y305446D01*
X554900Y305428D01*
X548816D01*
X535585Y318659D01*
Y328210D01*
X535615Y328421D01*
X535683Y328703D01*
X535778Y328987D01*
X535904Y329274D01*
X536062Y329566D01*
X536252Y329864D01*
X536478Y330165D01*
X536739Y330470D01*
X537057Y330799D01*
X537106Y330875D01*
X537557Y331327D01*
X538259Y332542D01*
X538622Y333898D01*
Y335302D01*
X538259Y336658D01*
X537557Y337873D01*
X536564Y338866D01*
X535349Y339567D01*
X533993Y339931D01*
D02*
G37*
G36*
X455072Y283846D02*
X453928D01*
X452822Y283550D01*
X451831Y282978D01*
X451022Y282169D01*
X450450Y281178D01*
X450153Y280072D01*
Y278928D01*
X450450Y277822D01*
X451022Y276831D01*
X451831Y276022D01*
X452822Y275450D01*
X453928Y275154D01*
X455072D01*
X456178Y275450D01*
X457169Y276022D01*
X457978Y276831D01*
X458550Y277822D01*
X458847Y278928D01*
Y280072D01*
X458550Y281178D01*
X457978Y282169D01*
X457169Y282978D01*
X456178Y283550D01*
X455072Y283846D01*
D02*
G37*
G36*
X485072Y283846D02*
X483928D01*
X482822Y283550D01*
X481831Y282978D01*
X481022Y282169D01*
X480450Y281178D01*
X480154Y280072D01*
Y278928D01*
X480450Y277822D01*
X481022Y276831D01*
X481831Y276022D01*
X482822Y275450D01*
X483928Y275153D01*
X485072D01*
X486178Y275450D01*
X487169Y276022D01*
X487978Y276831D01*
X488550Y277822D01*
X488846Y278928D01*
Y280072D01*
X488550Y281178D01*
X487978Y282169D01*
X487169Y282978D01*
X486178Y283550D01*
X485072Y283846D01*
D02*
G37*
G36*
X475072D02*
X473928D01*
X472822Y283550D01*
X471831Y282978D01*
X471022Y282169D01*
X470450Y281178D01*
X470154Y280072D01*
Y278928D01*
X470450Y277822D01*
X471022Y276831D01*
X471831Y276022D01*
X472822Y275450D01*
X473928Y275153D01*
X475072D01*
X476178Y275450D01*
X477169Y276022D01*
X477978Y276831D01*
X478550Y277822D01*
X478847Y278928D01*
Y280072D01*
X478550Y281178D01*
X477978Y282169D01*
X477169Y282978D01*
X476178Y283550D01*
X475072Y283846D01*
D02*
G37*
G36*
X465072D02*
X463928D01*
X462822Y283550D01*
X461831Y282978D01*
X461022Y282169D01*
X460450Y281178D01*
X460153Y280072D01*
Y278928D01*
X460450Y277822D01*
X461022Y276831D01*
X461831Y276022D01*
X462822Y275450D01*
X463928Y275153D01*
X465072D01*
X466178Y275450D01*
X467169Y276022D01*
X467978Y276831D01*
X468550Y277822D01*
X468847Y278928D01*
Y280072D01*
X468550Y281178D01*
X467978Y282169D01*
X467169Y282978D01*
X466178Y283550D01*
X465072Y283846D01*
D02*
G37*
G36*
X405072D02*
X403928D01*
X402822Y283550D01*
X401831Y282978D01*
X401022Y282169D01*
X400450Y281178D01*
X400153Y280072D01*
Y278928D01*
X400450Y277822D01*
X401022Y276831D01*
X401831Y276022D01*
X402822Y275450D01*
X403928Y275153D01*
X405072D01*
X406178Y275450D01*
X407169Y276022D01*
X407978Y276831D01*
X408550Y277822D01*
X408847Y278928D01*
Y280072D01*
X408550Y281178D01*
X407978Y282169D01*
X407169Y282978D01*
X406178Y283550D01*
X405072Y283846D01*
D02*
G37*
G36*
X395072D02*
X393928D01*
X392822Y283550D01*
X391831Y282978D01*
X391022Y282169D01*
X390450Y281178D01*
X390154Y280072D01*
Y278928D01*
X390450Y277822D01*
X391022Y276831D01*
X391831Y276022D01*
X392822Y275450D01*
X393928Y275153D01*
X395072D01*
X396178Y275450D01*
X397169Y276022D01*
X397978Y276831D01*
X398550Y277822D01*
X398847Y278928D01*
Y280072D01*
X398550Y281178D01*
X397978Y282169D01*
X397169Y282978D01*
X396178Y283550D01*
X395072Y283846D01*
D02*
G37*
G36*
X385072D02*
X383928D01*
X382822Y283550D01*
X381831Y282978D01*
X381022Y282169D01*
X380450Y281178D01*
X380154Y280072D01*
Y278928D01*
X380450Y277822D01*
X381022Y276831D01*
X381831Y276022D01*
X382822Y275450D01*
X383928Y275153D01*
X385072D01*
X386178Y275450D01*
X387169Y276022D01*
X387978Y276831D01*
X388550Y277822D01*
X388846Y278928D01*
Y280072D01*
X388550Y281178D01*
X387978Y282169D01*
X387169Y282978D01*
X386178Y283550D01*
X385072Y283846D01*
D02*
G37*
G36*
X318847D02*
X310154D01*
Y275153D01*
X318847D01*
Y283846D01*
D02*
G37*
G36*
X325072D02*
X323928D01*
X322822Y283550D01*
X321831Y282978D01*
X321022Y282169D01*
X320450Y281178D01*
X320153Y280072D01*
Y278928D01*
X320450Y277822D01*
X321022Y276831D01*
X321374Y276479D01*
X321423Y276403D01*
X321656Y276161D01*
X321842Y275943D01*
X322001Y275728D01*
X322134Y275517D01*
X322243Y275310D01*
X322330Y275107D01*
X322396Y274905D01*
X322443Y274705D01*
X322461Y274571D01*
Y272345D01*
X314655Y264539D01*
X302000D01*
X302000Y264539D01*
X301220Y264384D01*
X300558Y263942D01*
X274155Y237539D01*
X260345D01*
X253169Y244715D01*
X252791Y245118D01*
X252526Y245444D01*
X252437Y245569D01*
Y251453D01*
X242563D01*
Y243547D01*
X248295D01*
X248336Y243530D01*
X248544Y243411D01*
X248780Y243250D01*
X249302Y242814D01*
X258058Y234058D01*
X258720Y233616D01*
X259500Y233461D01*
X275000D01*
X275780Y233616D01*
X276442Y234058D01*
X302845Y260461D01*
X315500D01*
X316280Y260616D01*
X316942Y261058D01*
X325942Y270058D01*
X326384Y270720D01*
X326539Y271500D01*
Y274571D01*
X326557Y274705D01*
X326604Y274905D01*
X326670Y275107D01*
X326757Y275310D01*
X326866Y275517D01*
X326999Y275728D01*
X327158Y275942D01*
X327344Y276161D01*
X327577Y276403D01*
X327626Y276479D01*
X327978Y276831D01*
X328550Y277822D01*
X328847Y278928D01*
Y280072D01*
X328550Y281178D01*
X327978Y282169D01*
X327169Y282978D01*
X326178Y283550D01*
X325072Y283846D01*
D02*
G37*
G36*
X286072Y272346D02*
X284928D01*
X283822Y272050D01*
X282831Y271478D01*
X282022Y270669D01*
X281450Y269678D01*
X281154Y268572D01*
Y267428D01*
X281450Y266322D01*
X282022Y265331D01*
X282831Y264522D01*
X283822Y263950D01*
X284928Y263653D01*
X286072D01*
X287178Y263950D01*
X288169Y264522D01*
X288978Y265331D01*
X289550Y266322D01*
X289846Y267428D01*
Y268572D01*
X289550Y269678D01*
X288978Y270669D01*
X288169Y271478D01*
X287178Y272050D01*
X286072Y272346D01*
D02*
G37*
G36*
X276072D02*
X274928D01*
X273822Y272050D01*
X272831Y271478D01*
X272022Y270669D01*
X271450Y269678D01*
X271153Y268572D01*
Y267428D01*
X271450Y266322D01*
X272022Y265331D01*
X272831Y264522D01*
X273822Y263950D01*
X274928Y263653D01*
X276072D01*
X277178Y263950D01*
X278169Y264522D01*
X278978Y265331D01*
X279550Y266322D01*
X279847Y267428D01*
Y268572D01*
X279550Y269678D01*
X278978Y270669D01*
X278169Y271478D01*
X277178Y272050D01*
X276072Y272346D01*
D02*
G37*
G36*
X246072D02*
X244928D01*
X243822Y272050D01*
X242831Y271478D01*
X242022Y270669D01*
X241450Y269678D01*
X241154Y268572D01*
Y267428D01*
X241450Y266322D01*
X242022Y265331D01*
X242831Y264522D01*
X243822Y263950D01*
X244928Y263653D01*
X246072D01*
X247178Y263950D01*
X248169Y264522D01*
X248978Y265331D01*
X249550Y266322D01*
X249847Y267428D01*
Y268572D01*
X249550Y269678D01*
X248978Y270669D01*
X248169Y271478D01*
X247178Y272050D01*
X246072Y272346D01*
D02*
G37*
G36*
X236072D02*
X234928D01*
X233822Y272050D01*
X232831Y271478D01*
X232022Y270669D01*
X231450Y269678D01*
X231153Y268572D01*
Y267428D01*
X231450Y266322D01*
X232022Y265331D01*
X232831Y264522D01*
X233822Y263950D01*
X234928Y263653D01*
X236072D01*
X237178Y263950D01*
X238169Y264522D01*
X238978Y265331D01*
X239550Y266322D01*
X239846Y267428D01*
Y268572D01*
X239550Y269678D01*
X238978Y270669D01*
X238169Y271478D01*
X237178Y272050D01*
X236072Y272346D01*
D02*
G37*
G36*
X546990Y269000D02*
X541491D01*
Y262000D01*
X546990D01*
Y263971D01*
X550441D01*
Y263000D01*
X555441D01*
Y268000D01*
X550441D01*
Y267030D01*
X546990D01*
Y269000D01*
D02*
G37*
G36*
X345072Y283846D02*
X343928D01*
X342822Y283550D01*
X341831Y282978D01*
X341022Y282169D01*
X340450Y281178D01*
X340154Y280072D01*
Y278928D01*
X340450Y277822D01*
X341022Y276831D01*
X341374Y276479D01*
X341423Y276403D01*
X341656Y276161D01*
X341842Y275943D01*
X342001Y275728D01*
X342134Y275517D01*
X342243Y275310D01*
X342330Y275107D01*
X342396Y274905D01*
X342442Y274705D01*
X342461Y274571D01*
Y270345D01*
X321655Y249539D01*
X311478D01*
X311329Y249552D01*
X311115Y249588D01*
X310962Y249628D01*
X310937Y249639D01*
X310937Y251453D01*
X311434Y251461D01*
X317500D01*
X318280Y251616D01*
X318942Y252058D01*
X335942Y269058D01*
X336384Y269720D01*
X336539Y270500D01*
Y274571D01*
X336558Y274705D01*
X336604Y274905D01*
X336670Y275107D01*
X336757Y275310D01*
X336866Y275517D01*
X337000Y275728D01*
X337158Y275942D01*
X337344Y276161D01*
X337577Y276403D01*
X337626Y276479D01*
X337978Y276831D01*
X338550Y277822D01*
X338846Y278928D01*
Y280072D01*
X338550Y281178D01*
X337978Y282169D01*
X337169Y282978D01*
X336178Y283550D01*
X335072Y283846D01*
X333928D01*
X332822Y283550D01*
X331831Y282978D01*
X331022Y282169D01*
X330450Y281178D01*
X330153Y280072D01*
Y278928D01*
X330450Y277822D01*
X331022Y276831D01*
X331374Y276479D01*
X331423Y276403D01*
X331656Y276161D01*
X331842Y275943D01*
X332000Y275728D01*
X332134Y275517D01*
X332243Y275310D01*
X332330Y275107D01*
X332396Y274905D01*
X332442Y274705D01*
X332461Y274571D01*
Y271345D01*
X316655Y255539D01*
X300000D01*
X299220Y255384D01*
X298558Y254942D01*
X272058Y228442D01*
X271616Y227780D01*
X271461Y227000D01*
Y226953D01*
X268563D01*
Y219047D01*
X278437D01*
Y226953D01*
X276990D01*
X276799Y227415D01*
X300563Y251179D01*
X301063Y250972D01*
Y243547D01*
X310937D01*
Y245361D01*
X310962Y245372D01*
X311115Y245412D01*
X311329Y245448D01*
X311478Y245461D01*
X322500D01*
X323280Y245616D01*
X323942Y246058D01*
X345942Y268058D01*
X346384Y268720D01*
X346539Y269500D01*
Y274571D01*
X346557Y274705D01*
X346604Y274905D01*
X346670Y275107D01*
X346757Y275310D01*
X346866Y275517D01*
X347000Y275728D01*
X347158Y275942D01*
X347344Y276161D01*
X347577Y276403D01*
X347626Y276479D01*
X347978Y276831D01*
X348550Y277822D01*
X348846Y278928D01*
Y280072D01*
X348550Y281178D01*
X347978Y282169D01*
X347169Y282978D01*
X346178Y283550D01*
X345072Y283846D01*
D02*
G37*
G36*
X212878Y249520D02*
X212735Y249491D01*
X212590Y249478D01*
X212542Y249453D01*
X212488Y249442D01*
X212367Y249361D01*
X212238Y249293D01*
X212203Y249251D01*
X212157Y249221D01*
X212076Y249100D01*
X212018Y249029D01*
X207266D01*
X207245Y249033D01*
X207239Y249034D01*
X207233Y249038D01*
X207093Y249131D01*
X207062Y249137D01*
X207034Y249153D01*
X206867Y249176D01*
X206703Y249209D01*
X206671Y249202D01*
X206639Y249207D01*
X206477Y249164D01*
X206313Y249131D01*
X206286Y249113D01*
X206255Y249105D01*
X206156Y249029D01*
X206000D01*
X205415Y248913D01*
X204919Y248581D01*
X204587Y248085D01*
X204471Y247500D01*
X204587Y246915D01*
X204919Y246419D01*
X205415Y246087D01*
X206000Y245971D01*
X206156D01*
X206255Y245895D01*
X206286Y245887D01*
X206313Y245869D01*
X206477Y245836D01*
X206639Y245793D01*
X206671Y245798D01*
X206703Y245791D01*
X206867Y245824D01*
X207034Y245847D01*
X207062Y245863D01*
X207093Y245869D01*
X207233Y245962D01*
X207239Y245966D01*
X207245Y245967D01*
X207260Y245970D01*
X207272Y245971D01*
X212018D01*
X212076Y245900D01*
X212157Y245779D01*
X212203Y245749D01*
X212238Y245707D01*
X212367Y245639D01*
X212488Y245558D01*
X212542Y245547D01*
X212590Y245522D01*
X212735Y245509D01*
X212878Y245480D01*
X212932Y245491D01*
X212986Y245486D01*
X213125Y245530D01*
X213268Y245558D01*
X213314Y245588D01*
X213366Y245605D01*
X213478Y245698D01*
X213599Y245779D01*
X213630Y245825D01*
X213672Y245860D01*
X213730Y245971D01*
X216791D01*
X217377Y246087D01*
X217873Y246419D01*
X218204Y246915D01*
X218321Y247500D01*
X218204Y248085D01*
X217873Y248581D01*
X217377Y248913D01*
X216791Y249029D01*
X213730D01*
X213672Y249141D01*
X213630Y249176D01*
X213599Y249221D01*
X213478Y249302D01*
X213366Y249395D01*
X213314Y249412D01*
X213268Y249442D01*
X213126Y249470D01*
X212986Y249514D01*
X212932Y249509D01*
X212878Y249520D01*
D02*
G37*
G36*
X275291Y249029D02*
X274706Y248913D01*
X274210Y248581D01*
X274158Y248529D01*
X272230D01*
X272172Y248640D01*
X272130Y248675D01*
X272099Y248721D01*
X271978Y248802D01*
X271866Y248895D01*
X271814Y248912D01*
X271768Y248942D01*
X271626Y248970D01*
X271486Y249014D01*
X271432Y249009D01*
X271378Y249020D01*
X271235Y248991D01*
X271090Y248978D01*
X271042Y248953D01*
X270988Y248942D01*
X270867Y248861D01*
X270738Y248793D01*
X270703Y248751D01*
X270657Y248721D01*
X270576Y248600D01*
X270518Y248529D01*
X269267D01*
X269245Y248533D01*
X269239Y248534D01*
X269233Y248538D01*
X269093Y248631D01*
X269061Y248637D01*
X269034Y248653D01*
X268867Y248676D01*
X268703Y248709D01*
X268671Y248702D01*
X268639Y248707D01*
X268477Y248664D01*
X268313Y248631D01*
X268286Y248613D01*
X268255Y248605D01*
X268156Y248529D01*
X268000D01*
X267415Y248413D01*
X266919Y248081D01*
X266587Y247585D01*
X266471Y247000D01*
X266587Y246415D01*
X266919Y245919D01*
X267415Y245587D01*
X268000Y245471D01*
X268156D01*
X268255Y245395D01*
X268286Y245387D01*
X268313Y245369D01*
X268477Y245336D01*
X268639Y245293D01*
X268671Y245298D01*
X268703Y245291D01*
X268867Y245324D01*
X269034Y245347D01*
X269061Y245363D01*
X269093Y245369D01*
X269233Y245462D01*
X269239Y245466D01*
X269245Y245467D01*
X269260Y245470D01*
X269272Y245471D01*
X270518D01*
X270576Y245400D01*
X270657Y245279D01*
X270703Y245249D01*
X270738Y245207D01*
X270867Y245139D01*
X270988Y245058D01*
X271042Y245047D01*
X271090Y245022D01*
X271235Y245009D01*
X271378Y244980D01*
X271432Y244991D01*
X271486Y244986D01*
X271625Y245030D01*
X271768Y245058D01*
X271814Y245088D01*
X271866Y245105D01*
X271978Y245198D01*
X272099Y245279D01*
X272130Y245324D01*
X272172Y245359D01*
X272230Y245471D01*
X274791D01*
X275377Y245587D01*
X275873Y245919D01*
X276373Y246419D01*
X276704Y246915D01*
X276821Y247500D01*
X276704Y248085D01*
X276373Y248581D01*
X275877Y248913D01*
X275291Y249029D01*
D02*
G37*
G36*
X479572Y242347D02*
X478428D01*
X477322Y242050D01*
X476331Y241478D01*
X475522Y240669D01*
X474950Y239678D01*
X474653Y238572D01*
Y237428D01*
X474950Y236322D01*
X475522Y235331D01*
X476331Y234522D01*
X477322Y233950D01*
X478428Y233653D01*
X479572D01*
X480678Y233950D01*
X481669Y234522D01*
X482478Y235331D01*
X483050Y236322D01*
X483347Y237428D01*
Y238572D01*
X483050Y239678D01*
X482478Y240669D01*
X481669Y241478D01*
X480678Y242050D01*
X479572Y242347D01*
D02*
G37*
G36*
X433346D02*
X424653D01*
Y233653D01*
X433346D01*
Y242347D01*
D02*
G37*
G36*
X381072D02*
X379928D01*
X378822Y242050D01*
X377831Y241478D01*
X377022Y240669D01*
X376450Y239678D01*
X376153Y238572D01*
Y237428D01*
X376450Y236322D01*
X377022Y235331D01*
X377831Y234522D01*
X378822Y233950D01*
X379928Y233653D01*
X381072D01*
X382178Y233950D01*
X383169Y234522D01*
X383978Y235331D01*
X384550Y236322D01*
X384846Y237428D01*
Y238572D01*
X384550Y239678D01*
X383978Y240669D01*
X383169Y241478D01*
X382178Y242050D01*
X381072Y242347D01*
D02*
G37*
G36*
X365072Y283846D02*
X363928D01*
X362822Y283550D01*
X361831Y282978D01*
X361022Y282169D01*
X360450Y281178D01*
X360154Y280072D01*
Y278928D01*
X360450Y277822D01*
X361022Y276831D01*
X361377Y276476D01*
X361428Y276398D01*
X361714Y276105D01*
X361950Y275839D01*
X362153Y275585D01*
X362322Y275344D01*
X362458Y275117D01*
X362564Y274907D01*
X362641Y274713D01*
X362692Y274537D01*
X362716Y274401D01*
Y242780D01*
X362570Y242699D01*
X362379Y242617D01*
X362156Y242543D01*
X361899Y242479D01*
X361623Y242431D01*
X360917Y242370D01*
X360522Y242366D01*
X360430Y242347D01*
X359928D01*
X358822Y242050D01*
X357831Y241478D01*
X357022Y240669D01*
X356450Y239678D01*
X356153Y238572D01*
Y237428D01*
X356450Y236322D01*
X357022Y235331D01*
X357831Y234522D01*
X358822Y233950D01*
X359928Y233653D01*
X361072D01*
X362178Y233950D01*
X363169Y234522D01*
X363978Y235331D01*
X364550Y236322D01*
X364846Y237428D01*
Y237930D01*
X364866Y238021D01*
X364871Y238430D01*
X364892Y238786D01*
X364928Y239109D01*
X364979Y239399D01*
X365043Y239656D01*
X365117Y239879D01*
X365199Y240070D01*
X365288Y240230D01*
X365367Y240344D01*
X365762Y240738D01*
X365762Y240738D01*
X366148Y241317D01*
X366284Y242000D01*
Y274401D01*
X366308Y274537D01*
X366359Y274713D01*
X366436Y274907D01*
X366542Y275117D01*
X366678Y275343D01*
X366839Y275573D01*
X367296Y276115D01*
X367572Y276398D01*
X367623Y276476D01*
X367978Y276831D01*
X368550Y277822D01*
X368847Y278928D01*
Y280072D01*
X368550Y281178D01*
X367978Y282169D01*
X367169Y282978D01*
X366178Y283550D01*
X365072Y283846D01*
D02*
G37*
G36*
X355072D02*
X353928D01*
X352822Y283550D01*
X351831Y282978D01*
X351022Y282169D01*
X350450Y281178D01*
X350153Y280072D01*
Y278928D01*
X350450Y277822D01*
X351022Y276831D01*
X351377Y276476D01*
X351428Y276398D01*
X351714Y276105D01*
X351950Y275839D01*
X352153Y275585D01*
X352322Y275344D01*
X352458Y275117D01*
X352564Y274907D01*
X352641Y274713D01*
X352692Y274537D01*
X352716Y274401D01*
Y242780D01*
X352570Y242699D01*
X352379Y242617D01*
X352156Y242543D01*
X351899Y242479D01*
X351623Y242431D01*
X350917Y242370D01*
X350521Y242366D01*
X350430Y242347D01*
X349928D01*
X348822Y242050D01*
X347831Y241478D01*
X347022Y240669D01*
X346450Y239678D01*
X346153Y238572D01*
Y237428D01*
X346450Y236322D01*
X347022Y235331D01*
X347831Y234522D01*
X348822Y233950D01*
X349928Y233653D01*
X351072D01*
X352178Y233950D01*
X353169Y234522D01*
X353978Y235331D01*
X354550Y236322D01*
X354847Y237428D01*
Y237930D01*
X354866Y238021D01*
X354871Y238430D01*
X354892Y238786D01*
X354928Y239109D01*
X354979Y239399D01*
X355043Y239656D01*
X355117Y239879D01*
X355199Y240070D01*
X355288Y240230D01*
X355367Y240344D01*
X355762Y240738D01*
X355762Y240738D01*
X356149Y241317D01*
X356284Y242000D01*
Y274401D01*
X356308Y274537D01*
X356359Y274713D01*
X356436Y274907D01*
X356542Y275117D01*
X356678Y275343D01*
X356839Y275573D01*
X357296Y276115D01*
X357572Y276398D01*
X357623Y276476D01*
X357978Y276831D01*
X358550Y277822D01*
X358846Y278928D01*
Y280072D01*
X358550Y281178D01*
X357978Y282169D01*
X357169Y282978D01*
X356178Y283550D01*
X355072Y283846D01*
D02*
G37*
G36*
X334846Y242347D02*
X326153D01*
Y233653D01*
X334846D01*
Y242347D01*
D02*
G37*
G36*
X553072Y239347D02*
X551928D01*
X550822Y239050D01*
X549831Y238478D01*
X549022Y237669D01*
X548450Y236678D01*
X548154Y235572D01*
Y234428D01*
X548450Y233322D01*
X549022Y232331D01*
X549831Y231522D01*
X550822Y230950D01*
X551928Y230654D01*
X553072D01*
X554178Y230950D01*
X555169Y231522D01*
X555978Y232331D01*
X556550Y233322D01*
X556847Y234428D01*
Y235572D01*
X556550Y236678D01*
X555978Y237669D01*
X555169Y238478D01*
X554178Y239050D01*
X553072Y239347D01*
D02*
G37*
G36*
X543072D02*
X541928D01*
X540822Y239050D01*
X539831Y238478D01*
X539022Y237669D01*
X538450Y236678D01*
X538154Y235572D01*
Y234428D01*
X538450Y233322D01*
X539022Y232331D01*
X539831Y231522D01*
X540822Y230950D01*
X541928Y230654D01*
X543072D01*
X544178Y230950D01*
X545169Y231522D01*
X545978Y232331D01*
X546550Y233322D01*
X546846Y234428D01*
Y235572D01*
X546550Y236678D01*
X545978Y237669D01*
X545169Y238478D01*
X544178Y239050D01*
X543072Y239347D01*
D02*
G37*
G36*
X533072D02*
X531928D01*
X530822Y239050D01*
X529831Y238478D01*
X529022Y237669D01*
X528450Y236678D01*
X528154Y235572D01*
Y234428D01*
X528450Y233322D01*
X529022Y232331D01*
X529831Y231522D01*
X530822Y230950D01*
X531928Y230654D01*
X533072D01*
X534178Y230950D01*
X535169Y231522D01*
X535978Y232331D01*
X536550Y233322D01*
X536846Y234428D01*
Y235572D01*
X536550Y236678D01*
X535978Y237669D01*
X535169Y238478D01*
X534178Y239050D01*
X533072Y239347D01*
D02*
G37*
G36*
X506847D02*
X498153D01*
Y230654D01*
X506847D01*
Y239347D01*
D02*
G37*
G36*
X433500Y264049D02*
X377000D01*
X376025Y263855D01*
X375198Y263302D01*
X368698Y256802D01*
X368145Y255975D01*
X367951Y255000D01*
Y242425D01*
X367918Y242186D01*
X367874Y241965D01*
X367819Y241770D01*
X367756Y241598D01*
X367686Y241450D01*
X367610Y241323D01*
X367529Y241214D01*
X367406Y241079D01*
X367314Y240927D01*
X367215Y240780D01*
X367211Y240758D01*
X367199Y240739D01*
X367172Y240563D01*
X367138Y240390D01*
X367142Y240368D01*
X367139Y240345D01*
X367181Y240173D01*
X367215Y240000D01*
X367228Y239981D01*
X367233Y239959D01*
X367338Y239816D01*
X367437Y239669D01*
X367455Y239656D01*
X367469Y239638D01*
X367620Y239546D01*
X367767Y239448D01*
X367790Y239443D01*
X367809Y239432D01*
X367951Y239410D01*
Y238000D01*
X368127Y237117D01*
X368128Y237103D01*
X368068Y236906D01*
X367847Y236571D01*
X367785Y236559D01*
X367777Y236554D01*
X367767Y236552D01*
X367610Y236447D01*
X367450Y236345D01*
X367445Y236337D01*
X367437Y236331D01*
X367331Y236174D01*
X367223Y236018D01*
X367221Y236009D01*
X367215Y236000D01*
X367179Y235814D01*
X367138Y235630D01*
X367140Y235620D01*
X367138Y235610D01*
X367175Y235424D01*
X367208Y235238D01*
X367214Y235230D01*
X367215Y235220D01*
X367321Y235063D01*
X367423Y234903D01*
X367656Y234661D01*
X367842Y234443D01*
X368001Y234228D01*
X368134Y234017D01*
X368243Y233810D01*
X368330Y233607D01*
X368396Y233405D01*
X368443Y233205D01*
X368461Y233071D01*
Y227845D01*
X368155Y227539D01*
X361898D01*
X361565Y227559D01*
X361374Y227585D01*
X361293Y227601D01*
X361260Y227632D01*
X361209Y227709D01*
X361119Y227769D01*
X361041Y227845D01*
X360955Y227879D01*
X360878Y227930D01*
X360772Y227951D01*
X360671Y227991D01*
X360578Y227990D01*
X360488Y228008D01*
X360382Y227986D01*
X360273Y227985D01*
X360188Y227948D01*
X360098Y227930D01*
X360008Y227870D01*
X359908Y227826D01*
X359844Y227760D01*
X359767Y227709D01*
X359707Y227619D01*
X359631Y227541D01*
X359631Y227539D01*
X359000D01*
X358220Y227384D01*
X357558Y226942D01*
X357116Y226280D01*
X356961Y225500D01*
X357116Y224720D01*
X357558Y224058D01*
X358220Y223616D01*
X359000Y223461D01*
X359631D01*
X359631Y223459D01*
X359707Y223381D01*
X359767Y223291D01*
X359844Y223240D01*
X359908Y223173D01*
X360008Y223130D01*
X360098Y223070D01*
X360188Y223052D01*
X360273Y223015D01*
X360382Y223014D01*
X360488Y222992D01*
X360578Y223010D01*
X360671Y223009D01*
X360772Y223049D01*
X360878Y223070D01*
X360955Y223121D01*
X361041Y223155D01*
X361119Y223231D01*
X361209Y223291D01*
X361260Y223368D01*
X361293Y223399D01*
X361350Y223411D01*
X361968Y223461D01*
X369000D01*
X369780Y223616D01*
X370442Y224058D01*
X371942Y225558D01*
X372384Y226220D01*
X372539Y227000D01*
X372539Y227000D01*
Y233071D01*
X372557Y233205D01*
X372604Y233405D01*
X372670Y233607D01*
X372757Y233810D01*
X372866Y234017D01*
X373000Y234228D01*
X373158Y234442D01*
X373344Y234661D01*
X373577Y234903D01*
X373679Y235062D01*
X373784Y235220D01*
X373786Y235230D01*
X373792Y235238D01*
X373825Y235424D01*
X373862Y235610D01*
X373860Y235620D01*
X373862Y235630D01*
X373821Y235815D01*
X373784Y236000D01*
X373779Y236009D01*
X373777Y236018D01*
X373669Y236174D01*
X373564Y236331D01*
X373555Y236337D01*
X373550Y236345D01*
X373390Y236447D01*
X373233Y236552D01*
X373223Y236554D01*
X373215Y236559D01*
X373153Y236571D01*
X372932Y236907D01*
X372872Y237103D01*
X372873Y237117D01*
X373049Y238000D01*
Y239410D01*
X373191Y239432D01*
X373211Y239443D01*
X373233Y239448D01*
X373380Y239546D01*
X373531Y239638D01*
X373545Y239656D01*
X373564Y239669D01*
X373662Y239816D01*
X373766Y239959D01*
X373772Y239981D01*
X373784Y240000D01*
X373819Y240173D01*
X373861Y240345D01*
X373858Y240368D01*
X373862Y240390D01*
X373828Y240563D01*
X373801Y240739D01*
X373789Y240758D01*
X373784Y240780D01*
X373686Y240927D01*
X373594Y241079D01*
X373471Y241214D01*
X373390Y241323D01*
X373314Y241450D01*
X373245Y241598D01*
X373181Y241770D01*
X373127Y241965D01*
X373081Y242186D01*
X373049Y242425D01*
Y253944D01*
X378056Y258951D01*
X432444D01*
X436451Y254944D01*
Y242425D01*
X436418Y242186D01*
X436374Y241965D01*
X436319Y241770D01*
X436256Y241598D01*
X436186Y241450D01*
X436110Y241323D01*
X436029Y241214D01*
X435906Y241079D01*
X435814Y240927D01*
X435715Y240780D01*
X435711Y240758D01*
X435699Y240739D01*
X435672Y240563D01*
X435638Y240390D01*
X435642Y240368D01*
X435639Y240345D01*
X435681Y240173D01*
X435715Y240000D01*
X435728Y239981D01*
X435734Y239959D01*
X435838Y239816D01*
X435936Y239669D01*
X435955Y239656D01*
X435969Y239638D01*
X436120Y239546D01*
X436267Y239448D01*
X436290Y239443D01*
X436309Y239432D01*
X436451Y239410D01*
Y238000D01*
X436627Y237117D01*
X436628Y237103D01*
X436567Y236906D01*
X436347Y236571D01*
X436285Y236559D01*
X436277Y236554D01*
X436267Y236552D01*
X436110Y236447D01*
X435950Y236345D01*
X435945Y236337D01*
X435936Y236331D01*
X435831Y236174D01*
X435723Y236018D01*
X435721Y236009D01*
X435715Y236000D01*
X435678Y235814D01*
X435638Y235630D01*
X435640Y235620D01*
X435638Y235610D01*
X435675Y235424D01*
X435708Y235238D01*
X435714Y235230D01*
X435715Y235220D01*
X435821Y235063D01*
X435923Y234903D01*
X436156Y234661D01*
X436342Y234443D01*
X436501Y234228D01*
X436634Y234017D01*
X436743Y233810D01*
X436830Y233607D01*
X436896Y233405D01*
X436942Y233205D01*
X436961Y233071D01*
Y232500D01*
X437116Y231720D01*
X437558Y231058D01*
X442558Y226058D01*
X442558Y226058D01*
X443219Y225616D01*
X444000Y225461D01*
X444000Y225461D01*
X448543D01*
X448876Y225441D01*
X449067Y225416D01*
X449149Y225399D01*
X449181Y225368D01*
X449232Y225291D01*
X449323Y225231D01*
X449401Y225155D01*
X449486Y225122D01*
X449563Y225070D01*
X449670Y225049D01*
X449770Y225009D01*
X449863Y225011D01*
X449953Y224993D01*
X450060Y225014D01*
X450168Y225016D01*
X450253Y225052D01*
X450343Y225070D01*
X450434Y225131D01*
X450533Y225174D01*
X450597Y225240D01*
X450674Y225291D01*
X450735Y225382D01*
X450810Y225460D01*
X450811Y225461D01*
X451441D01*
X452222Y225616D01*
X452883Y226058D01*
X453325Y226720D01*
X453480Y227500D01*
X453325Y228281D01*
X452883Y228942D01*
X452222Y229384D01*
X451441Y229539D01*
X450811D01*
X450810Y229541D01*
X450735Y229619D01*
X450674Y229709D01*
X450597Y229761D01*
X450533Y229827D01*
X450434Y229870D01*
X450343Y229930D01*
X450253Y229948D01*
X450168Y229985D01*
X450060Y229987D01*
X449953Y230008D01*
X449863Y229990D01*
X449770Y229991D01*
X449670Y229952D01*
X449563Y229930D01*
X449486Y229879D01*
X449401Y229845D01*
X449323Y229770D01*
X449232Y229709D01*
X449181Y229632D01*
X449149Y229601D01*
X449092Y229590D01*
X448473Y229539D01*
X444844D01*
X441080Y233303D01*
X441104Y233405D01*
X441170Y233607D01*
X441257Y233810D01*
X441366Y234017D01*
X441500Y234228D01*
X441658Y234442D01*
X441844Y234661D01*
X442077Y234903D01*
X442179Y235062D01*
X442284Y235220D01*
X442286Y235230D01*
X442292Y235238D01*
X442325Y235424D01*
X442362Y235610D01*
X442360Y235620D01*
X442362Y235630D01*
X442321Y235815D01*
X442284Y236000D01*
X442279Y236009D01*
X442277Y236018D01*
X442169Y236174D01*
X442064Y236331D01*
X442055Y236337D01*
X442050Y236345D01*
X441890Y236447D01*
X441733Y236552D01*
X441723Y236554D01*
X441715Y236559D01*
X441653Y236571D01*
X441432Y236907D01*
X441372Y237103D01*
X441373Y237117D01*
X441549Y238000D01*
Y239410D01*
X441691Y239432D01*
X441711Y239443D01*
X441733Y239448D01*
X441880Y239546D01*
X442031Y239638D01*
X442045Y239656D01*
X442064Y239669D01*
X442162Y239816D01*
X442267Y239959D01*
X442272Y239981D01*
X442284Y240000D01*
X442319Y240173D01*
X442361Y240345D01*
X442358Y240368D01*
X442362Y240390D01*
X442328Y240563D01*
X442301Y240739D01*
X442289Y240758D01*
X442284Y240780D01*
X442186Y240927D01*
X442094Y241079D01*
X441971Y241214D01*
X441890Y241323D01*
X441814Y241450D01*
X441745Y241598D01*
X441681Y241770D01*
X441627Y241965D01*
X441581Y242186D01*
X441549Y242425D01*
Y256000D01*
X441355Y256976D01*
X440802Y257802D01*
X435302Y263302D01*
X434476Y263855D01*
X433500Y264049D01*
D02*
G37*
G36*
X238878Y225020D02*
X238735Y224991D01*
X238590Y224978D01*
X238542Y224953D01*
X238488Y224942D01*
X238367Y224861D01*
X238238Y224793D01*
X238203Y224751D01*
X238157Y224721D01*
X238076Y224600D01*
X238018Y224529D01*
X236266D01*
X236245Y224533D01*
X236239Y224534D01*
X236233Y224538D01*
X236093Y224631D01*
X236062Y224637D01*
X236034Y224653D01*
X235867Y224676D01*
X235703Y224709D01*
X235671Y224702D01*
X235639Y224707D01*
X235477Y224664D01*
X235313Y224631D01*
X235286Y224613D01*
X235255Y224605D01*
X235156Y224529D01*
X235000D01*
X234415Y224413D01*
X233919Y224081D01*
X233587Y223585D01*
X233471Y223000D01*
X233587Y222415D01*
X233919Y221919D01*
X234415Y221587D01*
X235000Y221471D01*
X235156D01*
X235255Y221395D01*
X235286Y221387D01*
X235313Y221369D01*
X235477Y221336D01*
X235639Y221293D01*
X235671Y221298D01*
X235703Y221291D01*
X235867Y221324D01*
X236034Y221347D01*
X236062Y221363D01*
X236093Y221369D01*
X236233Y221462D01*
X236239Y221466D01*
X236245Y221467D01*
X236260Y221470D01*
X236272Y221471D01*
X238018D01*
X238076Y221400D01*
X238157Y221279D01*
X238203Y221249D01*
X238238Y221207D01*
X238367Y221139D01*
X238488Y221058D01*
X238542Y221047D01*
X238590Y221022D01*
X238735Y221009D01*
X238878Y220980D01*
X238932Y220991D01*
X238986Y220986D01*
X239125Y221030D01*
X239268Y221058D01*
X239314Y221088D01*
X239366Y221105D01*
X239478Y221198D01*
X239599Y221279D01*
X239630Y221324D01*
X239672Y221359D01*
X239730Y221471D01*
X242791D01*
X243377Y221587D01*
X243873Y221919D01*
X244204Y222415D01*
X244321Y223000D01*
X244204Y223585D01*
X243873Y224081D01*
X243377Y224413D01*
X242791Y224529D01*
X239730D01*
X239672Y224640D01*
X239630Y224675D01*
X239599Y224721D01*
X239478Y224802D01*
X239366Y224895D01*
X239314Y224912D01*
X239268Y224942D01*
X239126Y224970D01*
X238986Y225014D01*
X238932Y225009D01*
X238878Y225020D01*
D02*
G37*
%LPD*%
G36*
X445610Y422157D02*
X445300Y422460D01*
X444695Y422970D01*
X444400Y423177D01*
X444110Y423352D01*
X443824Y423495D01*
X443544Y423607D01*
X443268Y423686D01*
X442997Y423734D01*
X442731Y423750D01*
Y425250D01*
X442997Y425266D01*
X443268Y425314D01*
X443544Y425393D01*
X443824Y425505D01*
X444110Y425648D01*
X444400Y425823D01*
X444695Y426030D01*
X444995Y426269D01*
X445300Y426540D01*
X445610Y426842D01*
Y422157D01*
D02*
G37*
G36*
X445266Y345003D02*
X445314Y344732D01*
X445393Y344456D01*
X445505Y344176D01*
X445648Y343890D01*
X445823Y343600D01*
X446030Y343305D01*
X446269Y343004D01*
X446540Y342700D01*
X446842Y342390D01*
X442158D01*
X442460Y342700D01*
X442970Y343305D01*
X443177Y343600D01*
X443352Y343890D01*
X443495Y344176D01*
X443607Y344456D01*
X443686Y344732D01*
X443734Y345003D01*
X443750Y345269D01*
X445250D01*
X445266Y345003D01*
D02*
G37*
G36*
X445610Y412157D02*
X445300Y412460D01*
X444695Y412970D01*
X444400Y413177D01*
X444110Y413352D01*
X443824Y413495D01*
X443544Y413607D01*
X443268Y413686D01*
X442997Y413734D01*
X442731Y413750D01*
Y415250D01*
X442997Y415266D01*
X443268Y415314D01*
X443544Y415393D01*
X443824Y415505D01*
X444110Y415648D01*
X444400Y415823D01*
X444695Y416030D01*
X444995Y416269D01*
X445300Y416540D01*
X445610Y416843D01*
Y412157D01*
D02*
G37*
G36*
X455266Y345003D02*
X455314Y344732D01*
X455393Y344456D01*
X455505Y344176D01*
X455648Y343890D01*
X455823Y343600D01*
X456030Y343305D01*
X456269Y343004D01*
X456540Y342700D01*
X456843Y342390D01*
X452157D01*
X452460Y342700D01*
X452970Y343305D01*
X453177Y343600D01*
X453352Y343890D01*
X453495Y344176D01*
X453607Y344456D01*
X453686Y344732D01*
X453734Y345003D01*
X453750Y345269D01*
X455250D01*
X455266Y345003D01*
D02*
G37*
G36*
X377944Y358700D02*
X377596Y358746D01*
X377262Y358764D01*
X376942Y358753D01*
X376635Y358716D01*
X376341Y358649D01*
X376061Y358556D01*
X375794Y358434D01*
X375541Y358284D01*
X375302Y358106D01*
X375075Y357901D01*
X373896Y359550D01*
X374090Y359761D01*
X374270Y359990D01*
X374436Y360238D01*
X374587Y360504D01*
X374723Y360789D01*
X374845Y361092D01*
X374953Y361414D01*
X375046Y361754D01*
X375190Y362490D01*
X377944Y358700D01*
D02*
G37*
G36*
X359209Y342035D02*
X359021Y341833D01*
X358842Y341611D01*
X358672Y341370D01*
X358511Y341110D01*
X358360Y340830D01*
X358083Y340213D01*
X357958Y339875D01*
X357734Y339141D01*
X355423Y343217D01*
X355750Y343137D01*
X356067Y343090D01*
X356372Y343074D01*
X356667Y343091D01*
X356950Y343139D01*
X357224Y343220D01*
X357486Y343332D01*
X357737Y343477D01*
X357978Y343653D01*
X358208Y343862D01*
X359209Y342035D01*
D02*
G37*
G36*
X376540Y337300D02*
X376030Y336695D01*
X375823Y336400D01*
X375648Y336110D01*
X375505Y335824D01*
X375393Y335544D01*
X375314Y335268D01*
X375266Y334997D01*
X375250Y334731D01*
X373750D01*
X373734Y334997D01*
X373686Y335268D01*
X373607Y335544D01*
X373495Y335824D01*
X373352Y336110D01*
X373177Y336400D01*
X372970Y336695D01*
X372731Y336996D01*
X372460Y337300D01*
X372158Y337610D01*
X376842D01*
X376540Y337300D01*
D02*
G37*
G36*
X366540D02*
X366030Y336695D01*
X365823Y336400D01*
X365648Y336110D01*
X365505Y335824D01*
X365393Y335544D01*
X365314Y335268D01*
X365266Y334997D01*
X365250Y334731D01*
X363750D01*
X363734Y334997D01*
X363686Y335268D01*
X363607Y335544D01*
X363495Y335824D01*
X363352Y336110D01*
X363177Y336400D01*
X362970Y336695D01*
X362731Y336996D01*
X362460Y337300D01*
X362158Y337610D01*
X366843D01*
X366540Y337300D01*
D02*
G37*
G36*
X459766Y243003D02*
X459814Y242732D01*
X459893Y242456D01*
X460005Y242176D01*
X460148Y241890D01*
X460323Y241600D01*
X460530Y241305D01*
X460769Y241004D01*
X461040Y240700D01*
X461342Y240390D01*
X456658D01*
X456960Y240700D01*
X457470Y241305D01*
X457677Y241600D01*
X457852Y241890D01*
X457995Y242176D01*
X458107Y242456D01*
X458186Y242732D01*
X458234Y243003D01*
X458250Y243269D01*
X459750D01*
X459766Y243003D01*
D02*
G37*
G36*
X449766D02*
X449814Y242732D01*
X449893Y242456D01*
X450005Y242176D01*
X450148Y241890D01*
X450323Y241600D01*
X450530Y241305D01*
X450769Y241004D01*
X451040Y240700D01*
X451342Y240390D01*
X446658D01*
X446960Y240700D01*
X447470Y241305D01*
X447677Y241600D01*
X447852Y241890D01*
X447995Y242176D01*
X448107Y242456D01*
X448186Y242732D01*
X448234Y243003D01*
X448250Y243269D01*
X449750D01*
X449766Y243003D01*
D02*
G37*
G36*
X515128Y369547D02*
X514834Y369540D01*
X514551Y369513D01*
X514277Y369466D01*
X514014Y369399D01*
X513761Y369312D01*
X513518Y369205D01*
X513285Y369077D01*
X513062Y368930D01*
X512850Y368763D01*
X512647Y368576D01*
X511233Y369990D01*
X511420Y370192D01*
X511588Y370405D01*
X511735Y370627D01*
X511862Y370860D01*
X511969Y371103D01*
X512057Y371357D01*
X512124Y371620D01*
X512171Y371893D01*
X512198Y372177D01*
X512205Y372470D01*
X515128Y369547D01*
D02*
G37*
G36*
X505510Y344952D02*
X505540Y344610D01*
X505590Y344308D01*
X505660Y344047D01*
X505750Y343826D01*
X505860Y343644D01*
X505990Y343503D01*
X506140Y343403D01*
X506310Y343343D01*
X506500Y343322D01*
X502500D01*
X502690Y343343D01*
X502860Y343403D01*
X503010Y343503D01*
X503140Y343644D01*
X503250Y343826D01*
X503340Y344047D01*
X503410Y344308D01*
X503460Y344610D01*
X503490Y344952D01*
X503500Y345335D01*
X505500D01*
X505510Y344952D01*
D02*
G37*
G36*
X433851Y480534D02*
X433919Y479745D01*
X433981Y479390D01*
X434063Y479061D01*
X434163Y478758D01*
X434283Y478481D01*
X434421Y478229D01*
X434579Y478004D01*
X434756Y477804D01*
X433696Y476744D01*
X433496Y476921D01*
X433271Y477078D01*
X433019Y477217D01*
X432742Y477337D01*
X432439Y477437D01*
X432110Y477519D01*
X431755Y477581D01*
X431374Y477624D01*
X430967Y477649D01*
X430534Y477654D01*
X433846Y480967D01*
X433851Y480534D01*
D02*
G37*
G36*
X465266Y345003D02*
X465314Y344732D01*
X465393Y344456D01*
X465505Y344176D01*
X465648Y343890D01*
X465823Y343600D01*
X466030Y343305D01*
X466269Y343004D01*
X466540Y342700D01*
X466843Y342390D01*
X462157D01*
X462460Y342700D01*
X462970Y343305D01*
X463177Y343600D01*
X463352Y343890D01*
X463495Y344176D01*
X463607Y344456D01*
X463686Y344732D01*
X463734Y345003D01*
X463750Y345269D01*
X465250D01*
X465266Y345003D01*
D02*
G37*
G36*
X422540Y478300D02*
X422030Y477695D01*
X421823Y477400D01*
X421648Y477110D01*
X421505Y476824D01*
X421393Y476544D01*
X421314Y476268D01*
X421266Y475997D01*
X421250Y475731D01*
X419750D01*
X419734Y475997D01*
X419686Y476268D01*
X419607Y476544D01*
X419495Y476824D01*
X419352Y477110D01*
X419177Y477400D01*
X418970Y477695D01*
X418731Y477995D01*
X418460Y478300D01*
X418157Y478610D01*
X422843D01*
X422540Y478300D01*
D02*
G37*
G36*
X435266Y345003D02*
X435314Y344732D01*
X435393Y344456D01*
X435505Y344176D01*
X435648Y343890D01*
X435823Y343600D01*
X436030Y343305D01*
X436269Y343004D01*
X436540Y342700D01*
X436842Y342390D01*
X432158D01*
X432460Y342700D01*
X432970Y343305D01*
X433177Y343600D01*
X433352Y343890D01*
X433495Y344176D01*
X433607Y344456D01*
X433686Y344732D01*
X433734Y345003D01*
X433750Y345269D01*
X435250D01*
X435266Y345003D01*
D02*
G37*
G36*
X430810Y358646D02*
X430640Y358586D01*
X430490Y358486D01*
X430360Y358346D01*
X430250Y358166D01*
X430160Y357946D01*
X430090Y357686D01*
X430040Y357386D01*
X430010Y357046D01*
X430000Y356665D01*
X428000D01*
X427990Y357046D01*
X427960Y357386D01*
X427910Y357686D01*
X427840Y357946D01*
X427750Y358166D01*
X427640Y358346D01*
X427510Y358486D01*
X427360Y358586D01*
X427190Y358646D01*
X427000Y358665D01*
X431000D01*
X430810Y358646D01*
D02*
G37*
G36*
X428885Y342971D02*
X428684Y342751D01*
X428505Y342515D01*
X428347Y342262D01*
X428211Y341993D01*
X428097Y341708D01*
X428004Y341406D01*
X427932Y341087D01*
X427882Y340753D01*
X427853Y340401D01*
X427846Y340034D01*
X424534Y343346D01*
X424901Y343353D01*
X425252Y343382D01*
X425587Y343432D01*
X425906Y343503D01*
X426208Y343597D01*
X426493Y343711D01*
X426762Y343847D01*
X427015Y344005D01*
X427251Y344184D01*
X427471Y344385D01*
X428885Y342971D01*
D02*
G37*
G36*
X415513Y344904D02*
X415554Y344610D01*
X415621Y344320D01*
X415715Y344034D01*
X415836Y343751D01*
X415983Y343471D01*
X416158Y343196D01*
X416359Y342923D01*
X416587Y342655D01*
X416843Y342390D01*
X412157D01*
X412413Y342655D01*
X412641Y342923D01*
X412842Y343196D01*
X413017Y343471D01*
X413164Y343751D01*
X413285Y344034D01*
X413379Y344320D01*
X413446Y344610D01*
X413487Y344904D01*
X413500Y345201D01*
X415500D01*
X415513Y344904D01*
D02*
G37*
G36*
X396540Y337300D02*
X396030Y336695D01*
X395823Y336400D01*
X395648Y336110D01*
X395505Y335824D01*
X395393Y335544D01*
X395314Y335268D01*
X395266Y334997D01*
X395250Y334731D01*
X393750D01*
X393734Y334997D01*
X393686Y335268D01*
X393607Y335544D01*
X393495Y335824D01*
X393352Y336110D01*
X393177Y336400D01*
X392970Y336695D01*
X392731Y336996D01*
X392460Y337300D01*
X392158Y337610D01*
X396843D01*
X396540Y337300D01*
D02*
G37*
G36*
X386540D02*
X386030Y336695D01*
X385823Y336400D01*
X385648Y336110D01*
X385505Y335824D01*
X385393Y335544D01*
X385314Y335268D01*
X385266Y334997D01*
X385250Y334731D01*
X383750D01*
X383734Y334997D01*
X383686Y335268D01*
X383607Y335544D01*
X383495Y335824D01*
X383352Y336110D01*
X383177Y336400D01*
X382970Y336695D01*
X382731Y336996D01*
X382460Y337300D01*
X382157Y337610D01*
X386842D01*
X386540Y337300D01*
D02*
G37*
G36*
X406874Y337598D02*
X406725Y337346D01*
X406619Y337097D01*
X406558Y336852D01*
X406540Y336610D01*
X406566Y336372D01*
X406636Y336137D01*
X406750Y335905D01*
X406907Y335677D01*
X407109Y335452D01*
X405720Y334720D01*
X405428Y335006D01*
X403932Y336305D01*
X403625Y336538D01*
X402692Y337184D01*
X407067Y337853D01*
X406874Y337598D01*
D02*
G37*
G36*
X483192Y304284D02*
X483167Y304092D01*
X483018Y303784D01*
X479739D01*
X458762Y324762D01*
X458183Y325149D01*
X457845Y325216D01*
X457894Y325716D01*
X461761D01*
X483192Y304284D01*
D02*
G37*
G36*
X562917Y296676D02*
X562978Y296506D01*
X563078Y296356D01*
X563219Y296226D01*
X563400Y296116D01*
X563622Y296026D01*
X563883Y295956D01*
X564185Y295906D01*
X564527Y295876D01*
X564909Y295866D01*
Y293866D01*
X564527Y293856D01*
X564185Y293826D01*
X563883Y293776D01*
X563622Y293706D01*
X563400Y293616D01*
X563219Y293506D01*
X563078Y293376D01*
X562978Y293226D01*
X562917Y293056D01*
X562897Y292866D01*
Y296866D01*
X562917Y296676D01*
D02*
G37*
G36*
X546491Y295097D02*
X546537Y294970D01*
X546612Y294857D01*
X546718Y294760D01*
X546854Y294677D01*
X547021Y294610D01*
X547217Y294557D01*
X547444Y294520D01*
X547701Y294497D01*
X547988Y294490D01*
Y292990D01*
X547701Y292982D01*
X547444Y292960D01*
X547217Y292922D01*
X547021Y292870D01*
X546854Y292802D01*
X546718Y292720D01*
X546612Y292622D01*
X546537Y292510D01*
X546491Y292382D01*
X546476Y292240D01*
Y295240D01*
X546491Y295097D01*
D02*
G37*
G36*
X553091Y292319D02*
X555429D01*
X555349Y292304D01*
X555278Y292259D01*
X555215Y292184D01*
X555161Y292079D01*
X555115Y291944D01*
X555077Y291779D01*
X555048Y291584D01*
X555027Y291359D01*
X555010Y290819D01*
X553510D01*
X553506Y291104D01*
X553472Y291584D01*
X553443Y291779D01*
X553405Y291944D01*
X553359Y292079D01*
X553304Y292184D01*
X553242Y292259D01*
X553170Y292304D01*
X553091Y292319D01*
X553076Y292446D01*
X553031Y292561D01*
X552956Y292661D01*
X552851Y292748D01*
X552716Y292822D01*
X552551Y292882D01*
X552356Y292930D01*
X552131Y292963D01*
X551876Y292983D01*
X551591Y292990D01*
Y294490D01*
X551877Y294497D01*
X552134Y294520D01*
X552361Y294557D01*
X552557Y294610D01*
X552723Y294677D01*
X552859Y294760D01*
X552965Y294857D01*
X553041Y294970D01*
X553087Y295097D01*
X553103Y295240D01*
X553091Y292319D01*
D02*
G37*
G36*
X555017Y288201D02*
X555040Y287944D01*
X555077Y287717D01*
X555130Y287520D01*
X555197Y287354D01*
X555280Y287218D01*
X555377Y287112D01*
X555490Y287036D01*
X555617Y286991D01*
X555760Y286976D01*
X552760D01*
X552902Y286991D01*
X553030Y287036D01*
X553142Y287112D01*
X553240Y287218D01*
X553322Y287354D01*
X553390Y287520D01*
X553442Y287717D01*
X553480Y287944D01*
X553502Y288201D01*
X553510Y288488D01*
X555010D01*
X555017Y288201D01*
D02*
G37*
G36*
X571002Y287648D02*
X571092Y286206D01*
X571121Y286077D01*
X571153Y285980D01*
X571189Y285915D01*
X568811D01*
X568847Y285980D01*
X568879Y286077D01*
X568908Y286206D01*
X568932Y286366D01*
X568970Y286783D01*
X568998Y287648D01*
X569000Y288000D01*
X571000D01*
X571002Y287648D01*
D02*
G37*
G36*
X540856Y288715D02*
X541470Y288186D01*
X541729Y288000D01*
X541957Y287866D01*
X542153Y287785D01*
X542318Y287756D01*
X542451Y287780D01*
X542553Y287857D01*
X542624Y287985D01*
X541524Y284866D01*
X541563Y285027D01*
X541569Y285199D01*
X541543Y285383D01*
X541484Y285578D01*
X541393Y285784D01*
X541269Y286002D01*
X541114Y286231D01*
X540925Y286472D01*
X540705Y286724D01*
X540452Y286988D01*
X540503Y289058D01*
X540856Y288715D01*
D02*
G37*
G36*
X563508Y286895D02*
X563598Y286812D01*
X563748Y286739D01*
X563958Y286676D01*
X564228Y286622D01*
X564558Y286578D01*
X565398Y286520D01*
X566478Y286500D01*
Y283500D01*
X565908Y283485D01*
X565398Y283440D01*
X564948Y283366D01*
X564558Y283262D01*
X564228Y283128D01*
X563958Y282964D01*
X563748Y282771D01*
X563598Y282548D01*
X563508Y282295D01*
X563478Y282012D01*
Y286988D01*
X563508Y286895D01*
D02*
G37*
G36*
X537518Y269201D02*
X537540Y268944D01*
X537578Y268717D01*
X537630Y268521D01*
X537698Y268354D01*
X537780Y268218D01*
X537878Y268112D01*
X537990Y268037D01*
X538118Y267991D01*
X538260Y267976D01*
X535260D01*
X535403Y267991D01*
X535530Y268037D01*
X535643Y268112D01*
X535740Y268218D01*
X535823Y268354D01*
X535890Y268521D01*
X535943Y268717D01*
X535980Y268944D01*
X536003Y269201D01*
X536010Y269488D01*
X537510D01*
X537518Y269201D01*
D02*
G37*
G36*
X568940Y266030D02*
X568943Y266030D01*
X569021Y266047D01*
X569091Y266068D01*
X569153Y266093D01*
X569208Y266121D01*
X569256Y266153D01*
X569297Y266189D01*
Y264811D01*
X569256Y264847D01*
X569208Y264879D01*
X569153Y264907D01*
X569091Y264932D01*
X569021Y264953D01*
X568943Y264970D01*
X568940Y264970D01*
Y264439D01*
X568805Y264545D01*
X568626Y264641D01*
X568402Y264725D01*
X568134Y264798D01*
X567820Y264860D01*
X567463Y264910D01*
X566613Y264978D01*
X565586Y265000D01*
Y266000D01*
X566122Y266006D01*
X567820Y266140D01*
X568134Y266202D01*
X568402Y266275D01*
X568626Y266359D01*
X568805Y266455D01*
X568940Y266561D01*
Y266030D01*
D02*
G37*
G36*
X560304Y266405D02*
X560341Y266320D01*
X560404Y266245D01*
X560492Y266180D01*
X560605Y266125D01*
X560743Y266080D01*
X560907Y266045D01*
X561095Y266020D01*
X561308Y266005D01*
X561547Y266000D01*
Y265000D01*
X561308Y264995D01*
X560907Y264955D01*
X560743Y264920D01*
X560605Y264875D01*
X560492Y264820D01*
X560404Y264755D01*
X560341Y264680D01*
X560304Y264595D01*
X560291Y264500D01*
Y266500D01*
X560304Y266405D01*
D02*
G37*
G36*
X567440Y251530D02*
X567443Y251530D01*
X567521Y251547D01*
X567591Y251568D01*
X567653Y251593D01*
X567708Y251621D01*
X567756Y251653D01*
X567797Y251689D01*
Y250311D01*
X567756Y250347D01*
X567708Y250379D01*
X567653Y250407D01*
X567591Y250432D01*
X567521Y250453D01*
X567443Y250470D01*
X567440Y250470D01*
Y249939D01*
X567305Y250045D01*
X567126Y250141D01*
X566902Y250225D01*
X566634Y250298D01*
X566320Y250360D01*
X565963Y250410D01*
X565113Y250478D01*
X564086Y250500D01*
Y251500D01*
X564622Y251506D01*
X566320Y251640D01*
X566634Y251702D01*
X566902Y251775D01*
X567126Y251859D01*
X567305Y251955D01*
X567440Y252061D01*
Y251530D01*
D02*
G37*
G36*
X551465Y250000D02*
X551455Y250095D01*
X551425Y250180D01*
X551374Y250255D01*
X551303Y250320D01*
X551212Y250375D01*
X551101Y250420D01*
X550969Y250455D01*
X550817Y250480D01*
X550645Y250495D01*
X550453Y250500D01*
Y251500D01*
X550645Y251505D01*
X550817Y251520D01*
X550969Y251545D01*
X551101Y251580D01*
X551212Y251625D01*
X551303Y251680D01*
X551374Y251745D01*
X551425Y251820D01*
X551455Y251905D01*
X551465Y252000D01*
Y250000D01*
D02*
G37*
G36*
X545977Y251905D02*
X546007Y251820D01*
X546058Y251745D01*
X546128Y251680D01*
X546219Y251625D01*
X546331Y251580D01*
X546462Y251545D01*
X546614Y251520D01*
X546786Y251505D01*
X546979Y251500D01*
Y250500D01*
X546786Y250495D01*
X546614Y250480D01*
X546462Y250455D01*
X546331Y250420D01*
X546219Y250375D01*
X546128Y250320D01*
X546058Y250255D01*
X546007Y250180D01*
X545977Y250095D01*
X545966Y250000D01*
Y252000D01*
X545977Y251905D01*
D02*
G37*
G36*
X560304Y251905D02*
X560341Y251820D01*
X560404Y251745D01*
X560492Y251680D01*
X560605Y251625D01*
X560743Y251580D01*
X560907Y251545D01*
X561095Y251520D01*
X561308Y251505D01*
X561547Y251500D01*
Y250500D01*
X561308Y250495D01*
X560907Y250455D01*
X560743Y250420D01*
X560605Y250375D01*
X560492Y250320D01*
X560404Y250255D01*
X560341Y250180D01*
X560304Y250095D01*
X560291Y250000D01*
Y252000D01*
X560304Y251905D01*
D02*
G37*
G36*
X535022Y249500D02*
X535007Y249643D01*
X534962Y249770D01*
X534887Y249883D01*
X534782Y249980D01*
X534647Y250063D01*
X534482Y250130D01*
X534287Y250183D01*
X534062Y250220D01*
X533807Y250243D01*
X533522Y250250D01*
Y251750D01*
X533807Y251758D01*
X534062Y251780D01*
X534287Y251818D01*
X534482Y251870D01*
X534647Y251938D01*
X534782Y252020D01*
X534887Y252118D01*
X534962Y252230D01*
X535007Y252358D01*
X535022Y252500D01*
Y249500D01*
D02*
G37*
G36*
X213357Y330007D02*
X213230Y329962D01*
X213117Y329887D01*
X213020Y329782D01*
X212937Y329647D01*
X212870Y329482D01*
X212817Y329287D01*
X212780Y329062D01*
X212757Y328807D01*
X212750Y328522D01*
X211250D01*
X211242Y328807D01*
X211220Y329062D01*
X211182Y329287D01*
X211130Y329482D01*
X211062Y329647D01*
X210980Y329782D01*
X210882Y329887D01*
X210770Y329962D01*
X210642Y330007D01*
X210500Y330022D01*
X213500D01*
X213357Y330007D01*
D02*
G37*
G36*
X212757Y326191D02*
X212780Y325934D01*
X212817Y325707D01*
X212870Y325511D01*
X212937Y325344D01*
X213020Y325208D01*
X213117Y325103D01*
X213230Y325027D01*
X213357Y324982D01*
X213500Y324967D01*
X210500D01*
X210642Y324982D01*
X210770Y325027D01*
X210882Y325103D01*
X210980Y325208D01*
X211062Y325344D01*
X211130Y325511D01*
X211182Y325707D01*
X211220Y325934D01*
X211242Y326191D01*
X211250Y326479D01*
X212750D01*
X212757Y326191D01*
D02*
G37*
G36*
X214491Y324598D02*
X214536Y324470D01*
X214612Y324358D01*
X214718Y324260D01*
X214854Y324178D01*
X215020Y324111D01*
X215216Y324058D01*
X215443Y324021D01*
X215700Y323998D01*
X215988Y323991D01*
Y322491D01*
X215700Y322483D01*
X215443Y322461D01*
X215216Y322423D01*
X215020Y322371D01*
X214854Y322303D01*
X214718Y322220D01*
X214612Y322123D01*
X214536Y322010D01*
X214491Y321883D01*
X214476Y321741D01*
Y324741D01*
X214491Y324598D01*
D02*
G37*
G36*
X209524Y321741D02*
X209508Y321883D01*
X209463Y322010D01*
X209388Y322123D01*
X209282Y322220D01*
X209146Y322303D01*
X208979Y322371D01*
X208783Y322423D01*
X208556Y322461D01*
X208299Y322483D01*
X208012Y322491D01*
Y323991D01*
X208299Y323998D01*
X208556Y324021D01*
X208783Y324058D01*
X208979Y324111D01*
X209146Y324178D01*
X209282Y324260D01*
X209388Y324358D01*
X209463Y324470D01*
X209508Y324598D01*
X209524Y324741D01*
Y321741D01*
D02*
G37*
G36*
X375750Y284612D02*
X375764Y284364D01*
X375807Y284101D01*
X375878Y283825D01*
X375978Y283536D01*
X376106Y283233D01*
X376262Y282916D01*
X376661Y282242D01*
X376903Y281884D01*
X377173Y281513D01*
X372541Y282213D01*
X372866Y282462D01*
X373156Y282713D01*
X373412Y282968D01*
X373635Y283227D01*
X373823Y283488D01*
X373976Y283753D01*
X374096Y284021D01*
X374182Y284292D01*
X374233Y284567D01*
X374250Y284845D01*
X375750Y284612D01*
D02*
G37*
G36*
X221012Y314894D02*
X221002Y314964D01*
X220972Y315026D01*
X220922Y315081D01*
X220852Y315128D01*
X220762Y315169D01*
X220652Y315201D01*
X220522Y315227D01*
X220372Y315246D01*
X220202Y315257D01*
X220012Y315260D01*
Y316260D01*
X220204Y316265D01*
X220375Y316280D01*
X220527Y316305D01*
X220658Y316340D01*
X220769Y316385D01*
X220861Y316440D01*
X220932Y316505D01*
X220983Y316580D01*
X221013Y316665D01*
X221024Y316760D01*
X221012Y314894D01*
D02*
G37*
G36*
X214486Y316665D02*
X214516Y316580D01*
X214567Y316505D01*
X214638Y316440D01*
X214729Y316385D01*
X214840Y316340D01*
X214971Y316305D01*
X215123Y316280D01*
X215295Y316265D01*
X215488Y316260D01*
Y315260D01*
X215295Y315255D01*
X215123Y315240D01*
X214971Y315215D01*
X214840Y315180D01*
X214729Y315135D01*
X214638Y315080D01*
X214567Y315015D01*
X214516Y314940D01*
X214486Y314855D01*
X214476Y314760D01*
Y316760D01*
X214486Y316665D01*
D02*
G37*
G36*
X223405Y314896D02*
X223320Y314865D01*
X223245Y314815D01*
X223180Y314744D01*
X223125Y314653D01*
X223080Y314542D01*
X223045Y314410D01*
X223020Y314258D01*
X223005Y314086D01*
X223000Y313894D01*
X222000D01*
X221995Y314086D01*
X221980Y314258D01*
X221955Y314410D01*
X221920Y314542D01*
X221875Y314653D01*
X221820Y314744D01*
X221755Y314815D01*
X221680Y314865D01*
X221595Y314896D01*
X221500Y314906D01*
X223500D01*
X223405Y314896D01*
D02*
G37*
G36*
X223002Y313332D02*
X223017Y313141D01*
X223030Y313057D01*
X223047Y312979D01*
X223068Y312910D01*
X223093Y312847D01*
X223121Y312792D01*
X223153Y312744D01*
X223189Y312703D01*
X221811D01*
X221847Y312744D01*
X221879Y312792D01*
X221907Y312847D01*
X221932Y312910D01*
X221953Y312979D01*
X221970Y313057D01*
X221983Y313141D01*
X221992Y313233D01*
X222000Y313438D01*
X223000D01*
X223002Y313332D01*
D02*
G37*
G36*
X257587Y346345D02*
X257359Y346077D01*
X257158Y345804D01*
X256983Y345529D01*
X256836Y345249D01*
X256715Y344966D01*
X256621Y344680D01*
X256554Y344390D01*
X256513Y344096D01*
X256500Y343799D01*
X254500D01*
X254487Y344096D01*
X254446Y344390D01*
X254379Y344680D01*
X254285Y344966D01*
X254164Y345249D01*
X254017Y345529D01*
X253842Y345804D01*
X253641Y346077D01*
X253413Y346345D01*
X253157Y346610D01*
X257842D01*
X257587Y346345D01*
D02*
G37*
G36*
X247587D02*
X247359Y346077D01*
X247158Y345804D01*
X246983Y345529D01*
X246836Y345249D01*
X246715Y344966D01*
X246621Y344680D01*
X246554Y344390D01*
X246513Y344096D01*
X246500Y343799D01*
X244500D01*
X244487Y344096D01*
X244446Y344390D01*
X244379Y344680D01*
X244285Y344966D01*
X244164Y345249D01*
X244017Y345529D01*
X243842Y345804D01*
X243641Y346077D01*
X243413Y346345D01*
X243158Y346610D01*
X247843D01*
X247587Y346345D01*
D02*
G37*
G36*
X445513Y284404D02*
X445554Y284110D01*
X445621Y283820D01*
X445715Y283534D01*
X445836Y283251D01*
X445983Y282971D01*
X446158Y282696D01*
X446359Y282423D01*
X446587Y282155D01*
X446842Y281890D01*
X442158D01*
X442413Y282155D01*
X442641Y282423D01*
X442842Y282696D01*
X443017Y282971D01*
X443164Y283251D01*
X443285Y283534D01*
X443379Y283820D01*
X443446Y284110D01*
X443487Y284404D01*
X443500Y284701D01*
X445500D01*
X445513Y284404D01*
D02*
G37*
G36*
X435513D02*
X435554Y284110D01*
X435621Y283820D01*
X435715Y283534D01*
X435836Y283251D01*
X435983Y282971D01*
X436158Y282696D01*
X436359Y282423D01*
X436587Y282155D01*
X436842Y281890D01*
X432158D01*
X432413Y282155D01*
X432641Y282423D01*
X432842Y282696D01*
X433017Y282971D01*
X433164Y283251D01*
X433285Y283534D01*
X433379Y283820D01*
X433446Y284110D01*
X433487Y284404D01*
X433500Y284701D01*
X435500D01*
X435513Y284404D01*
D02*
G37*
G36*
X425513D02*
X425554Y284110D01*
X425621Y283820D01*
X425715Y283534D01*
X425836Y283251D01*
X425983Y282971D01*
X426158Y282696D01*
X426359Y282423D01*
X426587Y282155D01*
X426842Y281890D01*
X422157D01*
X422413Y282155D01*
X422641Y282423D01*
X422842Y282696D01*
X423017Y282971D01*
X423164Y283251D01*
X423285Y283534D01*
X423379Y283820D01*
X423446Y284110D01*
X423487Y284404D01*
X423500Y284701D01*
X425500D01*
X425513Y284404D01*
D02*
G37*
G36*
X415513D02*
X415554Y284110D01*
X415621Y283820D01*
X415715Y283534D01*
X415836Y283251D01*
X415983Y282971D01*
X416158Y282696D01*
X416359Y282423D01*
X416587Y282155D01*
X416843Y281890D01*
X412157D01*
X412413Y282155D01*
X412641Y282423D01*
X412842Y282696D01*
X413017Y282971D01*
X413164Y283251D01*
X413285Y283534D01*
X413379Y283820D01*
X413446Y284110D01*
X413487Y284404D01*
X413500Y284701D01*
X415500D01*
X415513Y284404D01*
D02*
G37*
G36*
X266513Y272904D02*
X266554Y272610D01*
X266621Y272320D01*
X266715Y272034D01*
X266836Y271751D01*
X266983Y271471D01*
X267158Y271196D01*
X267359Y270923D01*
X267587Y270655D01*
X267843Y270390D01*
X263158D01*
X263413Y270655D01*
X263641Y270923D01*
X263842Y271196D01*
X264017Y271471D01*
X264164Y271751D01*
X264285Y272034D01*
X264379Y272320D01*
X264446Y272610D01*
X264487Y272904D01*
X264500Y273201D01*
X266500D01*
X266513Y272904D01*
D02*
G37*
G36*
X256513D02*
X256554Y272610D01*
X256621Y272320D01*
X256715Y272034D01*
X256836Y271751D01*
X256983Y271471D01*
X257158Y271196D01*
X257359Y270923D01*
X257587Y270655D01*
X257842Y270390D01*
X253157D01*
X253413Y270655D01*
X253641Y270923D01*
X253842Y271196D01*
X254017Y271471D01*
X254164Y271751D01*
X254285Y272034D01*
X254379Y272320D01*
X254446Y272610D01*
X254487Y272904D01*
X254500Y273201D01*
X256500D01*
X256513Y272904D01*
D02*
G37*
G36*
X535984Y331156D02*
X535681Y330802D01*
X535414Y330445D01*
X535183Y330085D01*
X534987Y329721D01*
X534826Y329354D01*
X534702Y328984D01*
X534613Y328611D01*
X534559Y328235D01*
X534541Y327855D01*
X532041D01*
X532024Y328235D01*
X531970Y328611D01*
X531881Y328984D01*
X531756Y329354D01*
X531596Y329721D01*
X531400Y330085D01*
X531169Y330445D01*
X530901Y330802D01*
X530598Y331156D01*
X530260Y331507D01*
X536323D01*
X535984Y331156D01*
D02*
G37*
G36*
X556843Y300634D02*
X556818Y300871D01*
X556742Y301084D01*
X556617Y301271D01*
X556441Y301434D01*
X556215Y301571D01*
X555939Y301684D01*
X555612Y301771D01*
X555235Y301834D01*
X554808Y301871D01*
X554331Y301884D01*
Y304384D01*
X554808Y304396D01*
X555235Y304434D01*
X555612Y304496D01*
X555939Y304584D01*
X556215Y304696D01*
X556441Y304834D01*
X556617Y304996D01*
X556742Y305184D01*
X556818Y305396D01*
X556843Y305634D01*
Y300634D01*
D02*
G37*
G36*
X326587Y276845D02*
X326359Y276577D01*
X326158Y276304D01*
X325983Y276029D01*
X325836Y275749D01*
X325715Y275466D01*
X325621Y275180D01*
X325554Y274890D01*
X325513Y274596D01*
X325500Y274299D01*
X323500D01*
X323487Y274596D01*
X323446Y274890D01*
X323379Y275180D01*
X323285Y275466D01*
X323164Y275749D01*
X323017Y276029D01*
X322842Y276304D01*
X322641Y276577D01*
X322413Y276845D01*
X322158Y277110D01*
X326842D01*
X326587Y276845D01*
D02*
G37*
G36*
X251257Y246293D02*
X251167Y246144D01*
X251144Y245957D01*
X251187Y245732D01*
X251296Y245468D01*
X251472Y245166D01*
X251714Y244826D01*
X252023Y244447D01*
X252839Y243575D01*
X250441Y243145D01*
X250074Y243498D01*
X249396Y244064D01*
X249085Y244277D01*
X248793Y244443D01*
X248519Y244562D01*
X248264Y244635D01*
X248028Y244660D01*
X247811Y244639D01*
X247612Y244571D01*
X251413Y246403D01*
X251257Y246293D01*
D02*
G37*
G36*
X551465Y264500D02*
X551455Y264595D01*
X551425Y264680D01*
X551374Y264755D01*
X551303Y264820D01*
X551212Y264875D01*
X551101Y264920D01*
X550969Y264955D01*
X550817Y264980D01*
X550645Y264995D01*
X550453Y265000D01*
Y266000D01*
X550645Y266005D01*
X550817Y266020D01*
X550969Y266045D01*
X551101Y266080D01*
X551212Y266125D01*
X551303Y266180D01*
X551374Y266245D01*
X551425Y266320D01*
X551455Y266405D01*
X551465Y266500D01*
Y264500D01*
D02*
G37*
G36*
X545977Y266405D02*
X546007Y266320D01*
X546058Y266245D01*
X546128Y266180D01*
X546219Y266125D01*
X546331Y266080D01*
X546462Y266045D01*
X546614Y266020D01*
X546786Y266005D01*
X546979Y266000D01*
Y265000D01*
X546786Y264995D01*
X546614Y264980D01*
X546462Y264955D01*
X546331Y264920D01*
X546219Y264875D01*
X546128Y264820D01*
X546058Y264755D01*
X546007Y264680D01*
X545977Y264595D01*
X545966Y264500D01*
Y266500D01*
X545977Y266405D01*
D02*
G37*
G36*
X346587Y276845D02*
X346359Y276577D01*
X346158Y276304D01*
X345983Y276029D01*
X345836Y275749D01*
X345715Y275466D01*
X345621Y275180D01*
X345554Y274890D01*
X345513Y274596D01*
X345500Y274299D01*
X343500D01*
X343487Y274596D01*
X343446Y274890D01*
X343379Y275180D01*
X343285Y275466D01*
X343164Y275749D01*
X343017Y276029D01*
X342842Y276304D01*
X342641Y276577D01*
X342413Y276845D01*
X342158Y277110D01*
X346843D01*
X346587Y276845D01*
D02*
G37*
G36*
X336587D02*
X336359Y276577D01*
X336158Y276304D01*
X335983Y276029D01*
X335836Y275749D01*
X335715Y275466D01*
X335621Y275180D01*
X335554Y274890D01*
X335513Y274596D01*
X335500Y274299D01*
X333500D01*
X333487Y274596D01*
X333446Y274890D01*
X333379Y275180D01*
X333285Y275466D01*
X333164Y275749D01*
X333017Y276029D01*
X332842Y276304D01*
X332641Y276577D01*
X332413Y276845D01*
X332157Y277110D01*
X336842D01*
X336587Y276845D01*
D02*
G37*
G36*
X309933Y249310D02*
X309994Y249140D01*
X310094Y248990D01*
X310235Y248860D01*
X310416Y248750D01*
X310637Y248660D01*
X310899Y248590D01*
X311201Y248540D01*
X311543Y248510D01*
X311925Y248500D01*
Y246500D01*
X311543Y246490D01*
X311201Y246460D01*
X310899Y246410D01*
X310637Y246340D01*
X310416Y246250D01*
X310235Y246140D01*
X310094Y246010D01*
X309994Y245860D01*
X309933Y245690D01*
X309913Y245500D01*
Y249500D01*
X309933Y249310D01*
D02*
G37*
G36*
X274501Y226799D02*
X274548Y225951D01*
X274559Y225941D01*
X272441D01*
X272452Y225951D01*
X272462Y225983D01*
X272471Y226036D01*
X272479Y226110D01*
X272495Y226460D01*
X272500Y227000D01*
X274500D01*
X274501Y226799D01*
D02*
G37*
G36*
X206744Y248153D02*
X206792Y248121D01*
X206847Y248093D01*
X206909Y248068D01*
X206979Y248047D01*
X207057Y248030D01*
X207141Y248017D01*
X207233Y248008D01*
X207438Y248000D01*
Y247000D01*
X207332Y246998D01*
X207141Y246983D01*
X207057Y246970D01*
X206979Y246953D01*
X206909Y246932D01*
X206847Y246907D01*
X206792Y246879D01*
X206744Y246847D01*
X206703Y246811D01*
Y248189D01*
X206744Y248153D01*
D02*
G37*
G36*
X212878Y246500D02*
X212868Y246595D01*
X212838Y246680D01*
X212787Y246755D01*
X212716Y246820D01*
X212625Y246875D01*
X212514Y246920D01*
X212383Y246955D01*
X212231Y246980D01*
X212059Y246995D01*
X211866Y247000D01*
Y248000D01*
X212059Y248005D01*
X212231Y248020D01*
X212383Y248045D01*
X212514Y248080D01*
X212625Y248125D01*
X212716Y248180D01*
X212787Y248245D01*
X212838Y248320D01*
X212868Y248405D01*
X212878Y248500D01*
Y246500D01*
D02*
G37*
G36*
X268744Y247653D02*
X268792Y247621D01*
X268847Y247593D01*
X268910Y247568D01*
X268979Y247547D01*
X269057Y247530D01*
X269141Y247517D01*
X269233Y247508D01*
X269438Y247500D01*
Y246500D01*
X269332Y246498D01*
X269141Y246483D01*
X269057Y246470D01*
X268979Y246453D01*
X268910Y246432D01*
X268847Y246407D01*
X268792Y246379D01*
X268744Y246347D01*
X268703Y246311D01*
Y247689D01*
X268744Y247653D01*
D02*
G37*
G36*
X271378Y246000D02*
X271368Y246095D01*
X271338Y246180D01*
X271287Y246255D01*
X271216Y246320D01*
X271125Y246375D01*
X271014Y246420D01*
X270883Y246455D01*
X270731Y246480D01*
X270559Y246495D01*
X270366Y246500D01*
Y247500D01*
X270559Y247505D01*
X270731Y247520D01*
X270883Y247545D01*
X271014Y247580D01*
X271125Y247625D01*
X271216Y247680D01*
X271287Y247745D01*
X271338Y247820D01*
X271368Y247905D01*
X271378Y248000D01*
Y246000D01*
D02*
G37*
G36*
X366540Y276800D02*
X366030Y276195D01*
X365823Y275900D01*
X365648Y275610D01*
X365505Y275324D01*
X365393Y275044D01*
X365314Y274768D01*
X365266Y274497D01*
X365250Y274231D01*
X363750D01*
X363734Y274497D01*
X363686Y274768D01*
X363607Y275044D01*
X363495Y275324D01*
X363352Y275610D01*
X363177Y275900D01*
X362970Y276195D01*
X362731Y276496D01*
X362460Y276800D01*
X362158Y277110D01*
X366843D01*
X366540Y276800D01*
D02*
G37*
G36*
X364756Y241196D02*
X364579Y240996D01*
X364422Y240771D01*
X364283Y240519D01*
X364163Y240242D01*
X364063Y239939D01*
X363981Y239610D01*
X363919Y239255D01*
X363876Y238874D01*
X363851Y238467D01*
X363846Y238034D01*
X360533Y241346D01*
X360966Y241351D01*
X361755Y241419D01*
X362110Y241481D01*
X362439Y241563D01*
X362742Y241663D01*
X363019Y241783D01*
X363271Y241921D01*
X363496Y242079D01*
X363696Y242256D01*
X364756Y241196D01*
D02*
G37*
G36*
X356540Y276800D02*
X356030Y276195D01*
X355823Y275900D01*
X355648Y275610D01*
X355505Y275324D01*
X355393Y275044D01*
X355314Y274768D01*
X355266Y274497D01*
X355250Y274231D01*
X353750D01*
X353734Y274497D01*
X353686Y274768D01*
X353607Y275044D01*
X353495Y275324D01*
X353352Y275610D01*
X353177Y275900D01*
X352970Y276195D01*
X352731Y276496D01*
X352460Y276800D01*
X352157Y277110D01*
X356842D01*
X356540Y276800D01*
D02*
G37*
G36*
X354756Y241196D02*
X354579Y240996D01*
X354421Y240771D01*
X354283Y240519D01*
X354163Y240242D01*
X354063Y239939D01*
X353981Y239610D01*
X353919Y239255D01*
X353876Y238874D01*
X353851Y238467D01*
X353846Y238034D01*
X350534Y241346D01*
X350967Y241351D01*
X351755Y241419D01*
X352110Y241481D01*
X352439Y241563D01*
X352742Y241663D01*
X353019Y241783D01*
X353271Y241921D01*
X353496Y242079D01*
X353696Y242256D01*
X354756Y241196D01*
D02*
G37*
G36*
X440508Y242652D02*
X440534Y242324D01*
X440576Y242015D01*
X440635Y241726D01*
X440711Y241455D01*
X440803Y241204D01*
X440913Y240971D01*
X441039Y240758D01*
X441182Y240565D01*
X441342Y240390D01*
X436657D01*
X436818Y240565D01*
X436961Y240758D01*
X437087Y240971D01*
X437197Y241204D01*
X437289Y241455D01*
X437365Y241726D01*
X437424Y242015D01*
X437466Y242324D01*
X437492Y242652D01*
X437500Y242999D01*
X440500D01*
X440508Y242652D01*
D02*
G37*
G36*
X372008D02*
X372034Y242324D01*
X372076Y242015D01*
X372135Y241726D01*
X372211Y241455D01*
X372303Y241204D01*
X372413Y240971D01*
X372539Y240758D01*
X372682Y240565D01*
X372843Y240390D01*
X368158D01*
X368318Y240565D01*
X368461Y240758D01*
X368587Y240971D01*
X368697Y241204D01*
X368789Y241455D01*
X368865Y241726D01*
X368924Y242015D01*
X368966Y242324D01*
X368992Y242652D01*
X369000Y242999D01*
X372000D01*
X372008Y242652D01*
D02*
G37*
G36*
X440050Y236898D02*
X440039Y236798D01*
X440022Y236421D01*
X440015Y235610D01*
X441342D01*
X441087Y235345D01*
X440859Y235077D01*
X440658Y234804D01*
X440483Y234529D01*
X440336Y234249D01*
X440215Y233966D01*
X440121Y233680D01*
X440054Y233390D01*
X440013Y233096D01*
X440000Y232799D01*
X438000D01*
X437987Y233096D01*
X437946Y233390D01*
X437879Y233680D01*
X437785Y233966D01*
X437664Y234249D01*
X437517Y234529D01*
X437342Y234804D01*
X437141Y235077D01*
X436913Y235345D01*
X436657Y235610D01*
X437965D01*
X437939Y236940D01*
X440061D01*
X440050Y236898D01*
D02*
G37*
G36*
X371550D02*
X371539Y236798D01*
X371522Y236421D01*
X371515Y235610D01*
X372843D01*
X372587Y235345D01*
X372359Y235077D01*
X372158Y234804D01*
X371983Y234529D01*
X371836Y234249D01*
X371715Y233966D01*
X371621Y233680D01*
X371554Y233390D01*
X371513Y233096D01*
X371500Y232799D01*
X369500D01*
X369487Y233096D01*
X369446Y233390D01*
X369379Y233680D01*
X369285Y233966D01*
X369164Y234249D01*
X369017Y234529D01*
X368842Y234804D01*
X368641Y235077D01*
X368413Y235345D01*
X368158Y235610D01*
X369465D01*
X369439Y236940D01*
X371561D01*
X371550Y236898D01*
D02*
G37*
G36*
X449953Y226012D02*
X449933Y226105D01*
X449873Y226188D01*
X449773Y226261D01*
X449633Y226325D01*
X449453Y226378D01*
X449233Y226422D01*
X448973Y226456D01*
X448333Y226495D01*
X447953Y226500D01*
Y228500D01*
X448333Y228505D01*
X449233Y228578D01*
X449453Y228622D01*
X449633Y228676D01*
X449773Y228739D01*
X449873Y228813D01*
X449933Y228896D01*
X449953Y228988D01*
Y226012D01*
D02*
G37*
G36*
X360508Y226895D02*
X360568Y226812D01*
X360668Y226739D01*
X360808Y226676D01*
X360988Y226622D01*
X361208Y226578D01*
X361468Y226544D01*
X362108Y226505D01*
X362488Y226500D01*
Y224500D01*
X362108Y224495D01*
X361208Y224422D01*
X360988Y224378D01*
X360808Y224324D01*
X360668Y224261D01*
X360568Y224188D01*
X360508Y224105D01*
X360488Y224012D01*
Y226988D01*
X360508Y226895D01*
D02*
G37*
G36*
X235744Y223653D02*
X235792Y223621D01*
X235847Y223593D01*
X235910Y223568D01*
X235979Y223547D01*
X236057Y223530D01*
X236141Y223517D01*
X236233Y223508D01*
X236438Y223500D01*
Y222500D01*
X236332Y222498D01*
X236141Y222483D01*
X236057Y222470D01*
X235979Y222453D01*
X235910Y222432D01*
X235847Y222407D01*
X235792Y222379D01*
X235744Y222347D01*
X235703Y222311D01*
Y223689D01*
X235744Y223653D01*
D02*
G37*
G36*
X238878Y222000D02*
X238868Y222095D01*
X238838Y222180D01*
X238787Y222255D01*
X238716Y222320D01*
X238625Y222375D01*
X238514Y222420D01*
X238383Y222455D01*
X238231Y222480D01*
X238059Y222495D01*
X237866Y222500D01*
Y223500D01*
X238059Y223505D01*
X238231Y223520D01*
X238383Y223545D01*
X238514Y223580D01*
X238625Y223625D01*
X238716Y223680D01*
X238787Y223745D01*
X238838Y223820D01*
X238868Y223905D01*
X238878Y224000D01*
Y222000D01*
D02*
G37*
D11*
X245800Y411696D02*
Y422500D01*
Y411696D02*
X249996Y407500D01*
X266240D01*
X278259Y419520D01*
X559059Y265500D02*
X570000D01*
X568500Y251000D02*
X568500Y251000D01*
X559059Y251000D02*
X568500D01*
X552941Y251000D02*
X552941Y251000D01*
X544241Y251000D02*
X552941D01*
Y265500D02*
X552941Y265500D01*
X544241Y265500D02*
X552941D01*
X274791Y247000D02*
X275291Y247500D01*
X268000Y247000D02*
X274791D01*
X235000Y223000D02*
X242791D01*
X206000Y247500D02*
X216791D01*
X222500Y312000D02*
Y312000D01*
X222500D02*
X222500Y312000D01*
X222500Y312000D02*
Y316382D01*
X221878Y315760D02*
X222500Y316382D01*
X212000Y315760D02*
X221878D01*
X270740Y478740D02*
X273500Y481500D01*
X270740Y466241D02*
Y478740D01*
X270740Y459000D02*
X278259D01*
X270740D02*
X270915Y458824D01*
Y450500D02*
Y458824D01*
X278259Y427000D02*
Y433000D01*
X275760Y435500D02*
X278259Y433000D01*
X270915Y435500D02*
X275760D01*
X581500Y211000D02*
G03*
X589199Y219199I-250J7949D01*
G01*
Y490301D02*
G03*
X579500Y500000I-9699J0D01*
G01*
X197743Y222257D02*
G03*
X209000Y211000I11257J0D01*
G01*
X204500Y499500D02*
G03*
X197698Y492698I0J-6802D01*
G01*
X197500Y221500D02*
Y492443D01*
X589199Y219199D02*
Y490301D01*
X204500Y499501D02*
X579481Y499988D01*
X208500Y210954D02*
X581620Y210954D01*
D17*
X545417Y433500D02*
D03*
X381177Y448000D02*
D03*
D18*
X522583Y424445D02*
D03*
X522583Y433500D02*
D03*
X522583Y442555D02*
D03*
X358342Y457055D02*
D03*
X358342Y448000D02*
D03*
X358342Y438945D02*
D03*
D19*
X504500Y424759D02*
D03*
Y432240D02*
D03*
X270740Y458760D02*
D03*
Y466241D02*
D03*
X236000Y438760D02*
D03*
X236000Y446241D02*
D03*
X212000Y339241D02*
D03*
Y331760D02*
D03*
X212000Y323240D02*
D03*
Y315760D02*
D03*
X544000Y286260D02*
D03*
X544000Y293740D02*
D03*
X337500Y481741D02*
D03*
X337500Y474260D02*
D03*
X347000Y435480D02*
D03*
X347000Y428000D02*
D03*
X278259Y419520D02*
D03*
X278259Y427000D02*
D03*
D20*
X558759Y412000D02*
D03*
X566240Y412000D02*
D03*
X370260Y425000D02*
D03*
X377741Y425000D02*
D03*
X285740Y459000D02*
D03*
X278259Y459000D02*
D03*
X369759Y394500D02*
D03*
X377240D02*
D03*
X561740Y284500D02*
D03*
X554260Y284500D02*
D03*
X544241Y251000D02*
D03*
X536760Y251000D02*
D03*
X544241Y265500D02*
D03*
X536760Y265500D02*
D03*
D21*
X275291Y247500D02*
D03*
X306000D02*
D03*
X216791D02*
D03*
X247500D02*
D03*
X242791Y223000D02*
D03*
X273500D02*
D03*
D22*
X353882Y225500D02*
D03*
X359000D02*
D03*
X456559Y227500D02*
D03*
X451441D02*
D03*
X552941Y251000D02*
D03*
Y265500D02*
D03*
D23*
X554260Y294866D02*
D03*
X561740Y294866D02*
D03*
X558000Y303134D02*
D03*
D24*
X310000Y398346D02*
D03*
Y441654D02*
D03*
D25*
X316000Y484311D02*
D03*
D26*
Y460689D02*
D03*
D27*
X296500Y473882D02*
D03*
Y479000D02*
D03*
X222500Y321500D02*
D03*
X222500Y316382D02*
D03*
X346500Y481559D02*
D03*
D28*
X260000Y443000D02*
D03*
D29*
X249085Y450500D02*
D03*
Y445500D02*
D03*
Y440500D02*
D03*
Y435500D02*
D03*
X270915Y450500D02*
D03*
Y445500D02*
D03*
Y440500D02*
D03*
Y435500D02*
D03*
D30*
X245800Y422500D02*
D03*
X262300D02*
D03*
D31*
X346500Y475441D02*
D03*
D32*
X559059Y251000D02*
D03*
Y265500D02*
D03*
D60*
X504500Y442500D02*
Y458976D01*
X504476Y459000D02*
X504500Y458976D01*
Y432240D02*
Y442500D01*
X504555Y442555D02*
X522583D01*
X504500Y442500D02*
X504555Y442555D01*
X583311Y246390D02*
Y341689D01*
X460737Y219000D02*
X555920D01*
X583311Y246390D01*
X512500Y227000D02*
Y235000D01*
Y227000D02*
X514500Y225000D01*
X553000D01*
X576000Y248000D01*
X564000Y334600D02*
X576000Y322600D01*
Y248000D02*
Y322600D01*
X558759Y366241D02*
X583311Y341689D01*
X522500Y235000D02*
Y241379D01*
X525621Y244500D01*
X562000D01*
X355639Y219000D02*
X460737D01*
X456559Y223177D02*
Y227500D01*
Y223177D02*
X460737Y219000D01*
X457060Y227000D02*
X467000D01*
X456559Y227500D02*
X457060Y227000D01*
X469000Y229000D02*
Y238000D01*
X467000Y227000D02*
X469000Y229000D01*
X346000Y225500D02*
X353882D01*
X340500Y231000D02*
Y238000D01*
Y231000D02*
X346000Y225500D01*
X353882Y220757D02*
Y225500D01*
Y220757D02*
X355639Y219000D01*
X558759Y366241D02*
Y412000D01*
Y422741D01*
X548642Y428999D02*
X552501D01*
X558759Y422741D01*
X545417Y432224D02*
Y433500D01*
Y432224D02*
X548642Y428999D01*
X522583Y433500D02*
X545417D01*
X494093Y413250D02*
Y424735D01*
Y465433D01*
Y424735D02*
X504476D01*
X504750Y425009D02*
X506849D01*
X507258Y424601D02*
X522427D01*
X506849Y425009D02*
X507258Y424601D01*
X522427D02*
X522583Y424445D01*
X494093Y413250D02*
X534842Y372500D01*
Y353157D02*
Y372500D01*
X478526Y481000D02*
X494093Y465433D01*
X440500Y481000D02*
X478526D01*
X377741Y425000D02*
X384500D01*
X390000Y430500D01*
X561740Y285000D02*
X567500D01*
X562000Y244500D02*
X568500Y251000D01*
X570000Y282000D02*
Y285000D01*
Y265500D02*
Y282000D01*
X411500Y261500D02*
X433500D01*
X407000D02*
X411500D01*
X402500D02*
X407000D01*
X397500D02*
X402500D01*
X393000D02*
X397500D01*
X377000D02*
X393000D01*
X568500Y251000D02*
X570000Y252500D01*
X568500Y251000D02*
X568500Y251000D01*
X570000Y252500D02*
Y265500D01*
X439000Y238000D02*
Y256000D01*
X370500Y238000D02*
Y255000D01*
X377000Y261500D01*
X433500D02*
X439000Y256000D01*
X390000Y486000D02*
X397500Y493500D01*
X390000Y430500D02*
Y486000D01*
X436000Y493500D02*
X440500Y489000D01*
X397500Y493500D02*
X436000D01*
X567500Y285000D02*
X570000D01*
X561740Y284500D02*
Y285000D01*
X553400Y334600D02*
X564000D01*
X534842Y353157D02*
X553400Y334600D01*
X440500Y481000D02*
Y489000D01*
D61*
X207707Y430707D02*
X213707D01*
X214000Y431000D01*
X201500Y424500D02*
X207707Y430707D01*
X201500Y349740D02*
Y424500D01*
X211250Y339241D02*
X212000D01*
X210250Y340241D02*
X211250Y339241D01*
X210250Y340241D02*
Y340990D01*
X201500Y349740D02*
X210250Y340990D01*
X302000Y452000D02*
X332500D01*
X337500Y457000D01*
Y474260D01*
X303000Y272500D02*
Y282500D01*
X291000Y260500D02*
X303000Y272500D01*
X211000Y260500D02*
X291000D01*
X206000Y265500D02*
X211000Y260500D01*
X430500Y481000D02*
X464500Y447000D01*
Y340000D02*
Y447000D01*
X442000Y414500D02*
X448000D01*
X436500Y409000D02*
X442000Y414500D01*
X436500Y398500D02*
Y409000D01*
X454500Y340000D02*
Y380500D01*
X436500Y398500D02*
X454500Y380500D01*
X444500Y340000D02*
Y380000D01*
X428000Y396500D02*
X444500Y380000D01*
X428000Y396500D02*
Y415000D01*
X437500Y424500D01*
X448000D01*
X434500Y340000D02*
Y350000D01*
X437000Y352500D01*
Y377500D01*
X420500Y394000D02*
X437000Y377500D01*
X420500Y394000D02*
Y481000D01*
X514500Y273500D02*
Y284000D01*
X509000Y268000D02*
X514500Y273500D01*
X465000Y268000D02*
X509000D01*
X508000Y290500D02*
X514500Y284000D01*
X459500Y290500D02*
X508000D01*
X435500Y314500D02*
X459500Y290500D01*
X518500Y271500D02*
Y288158D01*
X510658Y296000D02*
X518500Y288158D01*
X465634Y296000D02*
X510658D01*
X511500Y264500D02*
X518500Y271500D01*
X442634Y319000D02*
X465634Y296000D01*
X525500Y253000D02*
Y291500D01*
X515000Y302000D02*
X525500Y291500D01*
X479000Y302000D02*
X515000D01*
X536760Y265500D02*
Y285740D01*
X517000Y305500D02*
X536760Y285740D01*
X484500Y305500D02*
X517000D01*
X542240Y286260D02*
X544000D01*
X517500Y311000D02*
X542240Y286260D01*
X488000Y311000D02*
X517500D01*
X457500Y323500D02*
X479000Y302000D01*
X462500Y327500D02*
X484500Y305500D01*
X468000Y331000D02*
X488000Y311000D01*
X394500Y323500D02*
X457500D01*
X384500Y333500D02*
X394500Y323500D01*
X400500Y327500D02*
X462500D01*
X394500Y333500D02*
X400500Y327500D01*
X410500Y331000D02*
X468000D01*
X404500Y337000D02*
X410500Y331000D01*
X388500Y319000D02*
X442634D01*
X381000Y314500D02*
X435500D01*
X372500Y290000D02*
X375000Y287500D01*
X310500Y290000D02*
X372500D01*
X303000Y282500D02*
X310500Y290000D01*
X375000Y280000D02*
Y287500D01*
X374500Y279500D02*
X375000Y280000D01*
X206000Y265500D02*
Y322000D01*
X207241Y323240D01*
X212000D01*
X220760D02*
X222500Y321500D01*
X212000Y323240D02*
X220760D01*
X212000D02*
X212000Y323240D01*
Y331760D01*
X553133Y293740D02*
X554260Y294866D01*
X554260Y294866D01*
X554260Y284500D02*
Y294866D01*
X544000Y293740D02*
X553133D01*
X404500Y337000D02*
Y340000D01*
X527500Y251000D02*
X536760D01*
X525500Y253000D02*
X527500Y251000D01*
X394500Y333500D02*
Y340000D01*
X384500Y333500D02*
Y340000D01*
X374500Y333000D02*
X388500Y319000D01*
X364500Y331000D02*
X381000Y314500D01*
X374500Y333000D02*
Y340000D01*
X467000Y264500D02*
X511500D01*
X459000Y256500D02*
X467000Y264500D01*
X459000Y238000D02*
Y256500D01*
X364500Y331000D02*
Y340000D01*
X449000Y252000D02*
X465000Y268000D01*
X449000Y238000D02*
Y252000D01*
X354500Y242000D02*
Y279500D01*
X350500Y238000D02*
X354500Y242000D01*
X360500Y238000D02*
X364500Y242000D01*
Y279500D01*
D62*
X414500Y340000D02*
Y347500D01*
X418500Y351500D01*
Y362000D01*
X300000Y253500D02*
X317500D01*
X273500Y227000D02*
X300000Y253500D01*
X273500Y223000D02*
Y227000D01*
X302000Y262500D02*
X315500D01*
X275000Y235500D02*
X302000Y262500D01*
X259500Y235500D02*
X275000D01*
X570000Y288000D02*
Y292000D01*
Y285000D02*
Y288000D01*
X567134Y294866D02*
X570000Y292000D01*
X561740Y294866D02*
X567134D01*
X269500Y300000D02*
X416500D01*
X255500Y286000D02*
X269500Y300000D01*
X281000Y296500D02*
X405500D01*
X265500Y281000D02*
X281000Y296500D01*
X264500Y304500D02*
X422000D01*
X245500Y323500D02*
X264500Y304500D01*
X245500Y323500D02*
Y349000D01*
X273500Y309000D02*
X426500D01*
X255500Y327000D02*
X273500Y309000D01*
X255500Y327000D02*
Y349000D01*
X377760Y362000D02*
X378500D01*
X355760Y340000D02*
X377760Y362000D01*
X354500Y340000D02*
X355760D01*
X346500Y475441D02*
X353441D01*
X346319Y481741D02*
X346500Y481559D01*
X337500Y481741D02*
X346319D01*
X514500Y362000D02*
X525000Y372500D01*
X514500Y332500D02*
Y362000D01*
X511500Y329500D02*
X514500Y332500D01*
X497000Y329500D02*
X511500D01*
X494500Y332000D02*
X497000Y329500D01*
X494500Y332000D02*
Y340000D01*
X426500Y309000D02*
X444500Y291000D01*
X405500Y296500D02*
X414500Y287500D01*
X416500Y300000D02*
X424500Y292000D01*
X422000Y304500D02*
X434500Y292000D01*
X315500Y262500D02*
X324500Y271500D01*
Y279500D01*
X334500Y270500D02*
Y279500D01*
X317500Y253500D02*
X334500Y270500D01*
X247500Y247500D02*
X259500Y235500D01*
X429000Y344500D02*
Y361500D01*
X424500Y340000D02*
X429000Y344500D01*
X428500Y362000D02*
X429000Y361500D01*
X504500Y361842D02*
X515158Y372500D01*
X504500Y340000D02*
Y361842D01*
X444000Y227500D02*
X451441D01*
X439000Y232500D02*
X444000Y227500D01*
X439000Y232500D02*
Y238000D01*
X369000Y225500D02*
X370500Y227000D01*
X359000Y225500D02*
X369000D01*
X370500Y227000D02*
Y238000D01*
X434500Y279500D02*
Y292000D01*
X444500Y279500D02*
Y291000D01*
X424500Y279500D02*
Y292000D01*
X255500Y268000D02*
Y286000D01*
X414500Y279500D02*
Y287500D01*
X265500Y268000D02*
Y281000D01*
X344500Y269500D02*
Y279500D01*
X322500Y247500D02*
X344500Y269500D01*
X306000Y247500D02*
X322500D01*
D63*
X334500Y354500D02*
X342000Y362000D01*
X269500Y362000D02*
X342000Y362000D01*
X265500Y349000D02*
Y359000D01*
X268500Y362000D01*
X269500D01*
X342000Y362000D02*
X357500D01*
X357750Y361250D02*
X358500Y362000D01*
X334500Y340000D02*
Y354500D01*
X547866Y303134D02*
X558000D01*
X533291Y317709D02*
X547866Y303134D01*
X533291Y317709D02*
Y334600D01*
D64*
X358500Y362000D02*
X377240Y380740D01*
Y394500D01*
D65*
X380011Y438041D02*
D03*
D66*
X368721Y448000D02*
D03*
D67*
X260646Y432500D02*
D03*
D68*
X216307Y400000D02*
D03*
D69*
X358500Y476250D02*
D03*
D70*
X344500Y492500D02*
D03*
D71*
X377250Y409750D02*
D03*
D72*
X246750Y445500D02*
D03*
D73*
X292646Y488000D02*
D03*
D74*
X260646Y460441D02*
D03*
D75*
X505315Y372500D02*
D03*
X515158Y372500D02*
D03*
X525000D02*
D03*
X534842D02*
D03*
X495472D02*
D03*
D76*
X544685Y372500D02*
D03*
D77*
X428500Y362000D02*
D03*
X400500Y481000D02*
D03*
X285500Y349000D02*
D03*
X225500Y268000D02*
D03*
X314500Y279500D02*
D03*
X502500Y235000D02*
D03*
X504500Y340000D02*
D03*
D78*
X418500Y362000D02*
D03*
X408500D02*
D03*
X398500D02*
D03*
X388500D02*
D03*
X378500D02*
D03*
X368500D02*
D03*
X358500D02*
D03*
X410500Y481000D02*
D03*
X420500D02*
D03*
X430500D02*
D03*
X440500D02*
D03*
X448000Y424500D02*
D03*
Y414500D02*
D03*
Y404500D02*
D03*
X225500Y349000D02*
D03*
X235500D02*
D03*
X245500D02*
D03*
X255500D02*
D03*
X265500D02*
D03*
X275500D02*
D03*
X285500Y268000D02*
D03*
X275500D02*
D03*
X265500D02*
D03*
X255500D02*
D03*
X245500D02*
D03*
X235500D02*
D03*
X464500Y279500D02*
D03*
X454500Y279500D02*
D03*
X444500Y279500D02*
D03*
X434500D02*
D03*
X424500D02*
D03*
X414500D02*
D03*
X404500D02*
D03*
X394500D02*
D03*
X384500D02*
D03*
X374500D02*
D03*
X364500D02*
D03*
X354500D02*
D03*
X344500D02*
D03*
X334500D02*
D03*
X324500D02*
D03*
X474500D02*
D03*
X484500D02*
D03*
X494500D02*
D03*
X504500D02*
D03*
X552500Y235000D02*
D03*
X542500D02*
D03*
X532500D02*
D03*
X522500D02*
D03*
X512500D02*
D03*
X314500Y340000D02*
D03*
X324500Y340000D02*
D03*
X334500D02*
D03*
X344500D02*
D03*
X494500D02*
D03*
X484500D02*
D03*
X474500D02*
D03*
X464500D02*
D03*
X454500D02*
D03*
X444500D02*
D03*
X434500D02*
D03*
X424500D02*
D03*
X414500D02*
D03*
X404500D02*
D03*
X394500D02*
D03*
X384500D02*
D03*
X374500D02*
D03*
X364500D02*
D03*
X354500D02*
D03*
X380500Y238000D02*
D03*
X340500D02*
D03*
X350500D02*
D03*
X360500D02*
D03*
X370500D02*
D03*
X479000D02*
D03*
X439000D02*
D03*
X449000D02*
D03*
X459000D02*
D03*
X469000D02*
D03*
D79*
X448000Y434500D02*
D03*
X330500Y238000D02*
D03*
X429000D02*
D03*
D80*
X214000Y412496D02*
D03*
Y431000D02*
D03*
Y449504D02*
D03*
D81*
X213000Y370000D02*
D03*
Y390000D02*
D03*
D82*
X533291Y334600D02*
D03*
X564000D02*
D03*
D83*
X578000Y488500D02*
D03*
Y222000D02*
D03*
X209000D02*
D03*
Y488000D02*
D03*
D84*
X504500Y449500D02*
D03*
X504476Y452500D02*
D03*
X504500Y455000D02*
D03*
X504476Y457500D02*
D03*
X285505Y369500D02*
D03*
Y372500D02*
D03*
X292000Y369500D02*
D03*
X289500D02*
D03*
X292000Y372500D02*
D03*
X289500D02*
D03*
X292000Y375500D02*
D03*
X289500D02*
D03*
X287000D02*
D03*
X284500D02*
D03*
X570000Y288000D02*
D03*
Y282000D02*
D03*
X411500Y261500D02*
D03*
X407000D02*
D03*
X402500D02*
D03*
X397500D02*
D03*
X393000D02*
D03*
X353500Y475441D02*
D03*
X567500Y285000D02*
D03*
X570000D02*
D03*
X568500Y251000D02*
D03*
X570000Y265500D02*
D03*
X268000Y247000D02*
D03*
X235000Y223000D02*
D03*
X206000Y247500D02*
D03*
X222500Y312000D02*
D03*
X355000Y417000D02*
D03*
X352000D02*
D03*
X348500D02*
D03*
X355000Y420019D02*
D03*
X352000D02*
D03*
X348500D02*
D03*
X226500Y445500D02*
D03*
Y448500D02*
D03*
Y451500D02*
D03*
X230000D02*
D03*
Y448500D02*
D03*
Y445500D02*
D03*
X284000Y489500D02*
D03*
Y485500D02*
D03*
Y481500D02*
D03*
X280500Y489500D02*
D03*
X277000D02*
D03*
X273500D02*
D03*
X280500Y485500D02*
D03*
X277000D02*
D03*
X273500D02*
D03*
Y481500D02*
D03*
X277000D02*
D03*
X280500D02*
D03*
X302000Y452000D02*
D03*
X299000D02*
D03*
X296000D02*
D03*
X302000Y455500D02*
D03*
X299000D02*
D03*
X296000D02*
D03*
X302000Y458824D02*
D03*
X299000D02*
D03*
X296000D02*
D03*
D85*
X258032Y444969D02*
D03*
X261969D02*
D03*
Y441032D02*
D03*
X258032Y441032D02*
D03*
M02*
