G04*
G04 #@! TF.GenerationSoftware,Altium Limited,Altium Designer,21.7.2 (23)*
G04*
G04 Layer_Color=2752767*
%FSLAX25Y25*%
%MOIN*%
G70*
G04*
G04 #@! TF.SameCoordinates,8516E6F5-4896-463E-9EC1-BE868EEF7334*
G04*
G04*
G04 #@! TF.FilePolarity,Positive*
G04*
G01*
G75*
%ADD11C,0.01000*%
%ADD89C,0.00200*%
%ADD90C,0.00267*%
D11*
X581500Y211000D02*
G03*
X589199Y219199I-250J7949D01*
G01*
Y490301D02*
G03*
X579500Y500000I-9699J0D01*
G01*
X197743Y222257D02*
G03*
X209000Y211000I11257J0D01*
G01*
X204500Y499500D02*
G03*
X197698Y492698I0J-6802D01*
G01*
X197500Y221500D02*
Y492443D01*
X589199Y219199D02*
Y490301D01*
X204500Y499501D02*
X579481Y499988D01*
X208500Y210954D02*
X581620Y210954D01*
D89*
X504515Y371700D02*
Y373300D01*
X506115D01*
Y371700D01*
X504515D01*
X514358Y371700D02*
Y373300D01*
X515957D01*
Y371700D01*
X514358D01*
X524200D02*
Y373300D01*
X525800D01*
Y371700D01*
X524200D01*
X534043D02*
Y373300D01*
X535642D01*
Y371700D01*
X534043D01*
X543885Y371700D02*
Y373300D01*
X545485D01*
Y371700D01*
X543885D01*
X494672Y371700D02*
Y373300D01*
X496272D01*
Y371700D01*
X494672D01*
X427700Y361200D02*
Y362800D01*
X429300D01*
Y361200D01*
X427700D01*
X417700D02*
Y362800D01*
X419300D01*
Y361200D01*
X417700D01*
X407700D02*
Y362800D01*
X409300D01*
Y361200D01*
X407700D01*
X397700D02*
Y362800D01*
X399300D01*
Y361200D01*
X397700D01*
X387700D02*
Y362800D01*
X389300D01*
Y361200D01*
X387700D01*
X377700D02*
Y362800D01*
X379300D01*
Y361200D01*
X377700D01*
X367700D02*
Y362800D01*
X369300D01*
Y361200D01*
X367700D01*
X357700D02*
Y362800D01*
X359300D01*
Y361200D01*
X357700D01*
X399700Y480200D02*
Y481800D01*
X401300D01*
Y480200D01*
X399700D01*
X409700D02*
Y481800D01*
X411300D01*
Y480200D01*
X409700D01*
X419700D02*
Y481800D01*
X421300D01*
Y480200D01*
X419700D01*
X429700D02*
Y481800D01*
X431300D01*
Y480200D01*
X429700D01*
X439700D02*
Y481800D01*
X441300D01*
Y480200D01*
X439700D01*
X447200Y433700D02*
Y435300D01*
X448800D01*
Y433700D01*
X447200D01*
Y423700D02*
Y425300D01*
X448800D01*
Y423700D01*
X447200D01*
Y413700D02*
Y415300D01*
X448800D01*
Y413700D01*
X447200D01*
Y403700D02*
Y405300D01*
X448800D01*
Y403700D01*
X447200D01*
X213000Y369200D02*
X212200Y370800D01*
X213800D01*
X213000Y369200D01*
Y389200D02*
X212200Y390800D01*
X213800D01*
X213000Y389200D01*
X224700Y348200D02*
Y349800D01*
X226300D01*
Y348200D01*
X224700D01*
X234700D02*
Y349800D01*
X236300D01*
Y348200D01*
X234700D01*
X244700D02*
Y349800D01*
X246300D01*
Y348200D01*
X244700D01*
X254700D02*
Y349800D01*
X256300D01*
Y348200D01*
X254700D01*
X264700D02*
Y349800D01*
X266300D01*
Y348200D01*
X264700D01*
X274700D02*
Y349800D01*
X276300D01*
Y348200D01*
X274700D01*
X284700D02*
Y349800D01*
X286300D01*
Y348200D01*
X284700D01*
X284700Y267200D02*
Y268800D01*
X286300D01*
Y267200D01*
X284700D01*
X274700D02*
Y268800D01*
X276300D01*
Y267200D01*
X274700D01*
X264700D02*
Y268800D01*
X266300D01*
Y267200D01*
X264700D01*
X254700D02*
Y268800D01*
X256300D01*
Y267200D01*
X254700D01*
X244700D02*
Y268800D01*
X246300D01*
Y267200D01*
X244700D01*
X234700D02*
Y268800D01*
X236300D01*
Y267200D01*
X234700D01*
X224700D02*
Y268800D01*
X226300D01*
Y267200D01*
X224700D01*
X463700Y278700D02*
Y280300D01*
X465300D01*
Y278700D01*
X463700D01*
X453700Y278700D02*
Y280300D01*
X455300D01*
Y278700D01*
X453700D01*
X443700Y278700D02*
Y280300D01*
X445300D01*
Y278700D01*
X443700D01*
X433700D02*
Y280300D01*
X435300D01*
Y278700D01*
X433700D01*
X423700D02*
Y280300D01*
X425300D01*
Y278700D01*
X423700D01*
X413700D02*
Y280300D01*
X415300D01*
Y278700D01*
X413700D01*
X403700D02*
Y280300D01*
X405300D01*
Y278700D01*
X403700D01*
X393700D02*
Y280300D01*
X395300D01*
Y278700D01*
X393700D01*
X383700D02*
Y280300D01*
X385300D01*
Y278700D01*
X383700D01*
X373700D02*
Y280300D01*
X375300D01*
Y278700D01*
X373700D01*
X363700D02*
Y280300D01*
X365300D01*
Y278700D01*
X363700D01*
X353700D02*
Y280300D01*
X355300D01*
Y278700D01*
X353700D01*
X343700D02*
Y280300D01*
X345300D01*
Y278700D01*
X343700D01*
X333700D02*
Y280300D01*
X335300D01*
Y278700D01*
X333700D01*
X323700D02*
Y280300D01*
X325300D01*
Y278700D01*
X323700D01*
X313700D02*
Y280300D01*
X315300D01*
Y278700D01*
X313700D01*
X474500D02*
X474900Y279100D01*
X475300D01*
X474900Y279500D01*
X475300Y279900D01*
X474900D01*
X474500Y280300D01*
X474100Y279900D01*
X473700D01*
X474100Y279500D01*
X473700Y279100D01*
X474100D01*
X474500Y278700D01*
X484500D02*
X484900Y279100D01*
X485300D01*
X484900Y279500D01*
X485300Y279900D01*
X484900D01*
X484500Y280300D01*
X484100Y279900D01*
X483700D01*
X484100Y279500D01*
X483700Y279100D01*
X484100D01*
X484500Y278700D01*
X494500D02*
X494900Y279100D01*
X495300D01*
X494900Y279500D01*
X495300Y279900D01*
X494900D01*
X494500Y280300D01*
X494100Y279900D01*
X493700D01*
X494100Y279500D01*
X493700Y279100D01*
X494100D01*
X494500Y278700D01*
X504500D02*
X504900Y279100D01*
X505300D01*
X504900Y279500D01*
X505300Y279900D01*
X504900D01*
X504500Y280300D01*
X504100Y279900D01*
X503700D01*
X504100Y279500D01*
X503700Y279100D01*
X504100D01*
X504500Y278700D01*
X551700Y234200D02*
Y235800D01*
X553300D01*
Y234200D01*
X551700D01*
X541700D02*
Y235800D01*
X543300D01*
Y234200D01*
X541700D01*
X531700D02*
Y235800D01*
X533300D01*
Y234200D01*
X531700D01*
X521700D02*
Y235800D01*
X523300D01*
Y234200D01*
X521700D01*
X511700D02*
Y235800D01*
X513300D01*
Y234200D01*
X511700D01*
X501700D02*
Y235800D01*
X503300D01*
Y234200D01*
X501700D01*
X532491Y333800D02*
X532891Y334600D01*
X532491Y335400D01*
X533291Y335000D01*
X534091Y335400D01*
X533691Y334600D01*
X534091Y333800D01*
X533291Y334200D01*
X532491Y333800D01*
X563200D02*
X563600Y334600D01*
X563200Y335400D01*
X564000Y335000D01*
X564800Y335400D01*
X564400Y334600D01*
X564800Y333800D01*
X564000Y334200D01*
X563200Y333800D01*
X577600Y488100D02*
Y487700D01*
X578400D01*
Y488100D01*
X578800D01*
Y488900D01*
X578400D01*
Y489300D01*
X577600D01*
Y488900D01*
X577200D01*
Y488100D01*
X577600D01*
Y221600D02*
Y221200D01*
X578400D01*
Y221600D01*
X578800D01*
Y222400D01*
X578400D01*
Y222800D01*
X577600D01*
Y222400D01*
X577200D01*
Y221600D01*
X577600D01*
X208600D02*
Y221200D01*
X209400D01*
Y221600D01*
X209800D01*
Y222400D01*
X209400D01*
Y222800D01*
X208600D01*
Y222400D01*
X208200D01*
Y221600D01*
X208600D01*
Y487600D02*
Y487200D01*
X209400D01*
Y487600D01*
X209800D01*
Y488400D01*
X209400D01*
Y488800D01*
X208600D01*
Y488400D01*
X208200D01*
Y487600D01*
X208600D01*
X314500Y339200D02*
X314900Y339600D01*
X315300D01*
X314900Y340000D01*
X315300Y340400D01*
X314900D01*
X314500Y340800D01*
X314100Y340400D01*
X313700D01*
X314100Y340000D01*
X313700Y339600D01*
X314100D01*
X314500Y339200D01*
X324500Y339200D02*
X324900Y339600D01*
X325300D01*
X324900Y340000D01*
X325300Y340400D01*
X324900D01*
X324500Y340800D01*
X324100Y340400D01*
X323700D01*
X324100Y340000D01*
X323700Y339600D01*
X324100D01*
X324500Y339200D01*
X334500D02*
X334900Y339600D01*
X335300D01*
X334900Y340000D01*
X335300Y340400D01*
X334900D01*
X334500Y340800D01*
X334100Y340400D01*
X333700D01*
X334100Y340000D01*
X333700Y339600D01*
X334100D01*
X334500Y339200D01*
X344500D02*
X344900Y339600D01*
X345300D01*
X344900Y340000D01*
X345300Y340400D01*
X344900D01*
X344500Y340800D01*
X344100Y340400D01*
X343700D01*
X344100Y340000D01*
X343700Y339600D01*
X344100D01*
X344500Y339200D01*
X503700D02*
Y340800D01*
X505300D01*
Y339200D01*
X503700D01*
X493700D02*
Y340800D01*
X495300D01*
Y339200D01*
X493700D01*
X483700D02*
Y340800D01*
X485300D01*
Y339200D01*
X483700D01*
X473700D02*
Y340800D01*
X475300D01*
Y339200D01*
X473700D01*
X463700D02*
Y340800D01*
X465300D01*
Y339200D01*
X463700D01*
X453700D02*
Y340800D01*
X455300D01*
Y339200D01*
X453700D01*
X443700D02*
Y340800D01*
X445300D01*
Y339200D01*
X443700D01*
X433700D02*
Y340800D01*
X435300D01*
Y339200D01*
X433700D01*
X423700D02*
Y340800D01*
X425300D01*
Y339200D01*
X423700D01*
X413700D02*
Y340800D01*
X415300D01*
Y339200D01*
X413700D01*
X403700D02*
Y340800D01*
X405300D01*
Y339200D01*
X403700D01*
X393700D02*
Y340800D01*
X395300D01*
Y339200D01*
X393700D01*
X383700D02*
Y340800D01*
X385300D01*
Y339200D01*
X383700D01*
X373700D02*
Y340800D01*
X375300D01*
Y339200D01*
X373700D01*
X363700D02*
Y340800D01*
X365300D01*
Y339200D01*
X363700D01*
X353700D02*
Y340800D01*
X355300D01*
Y339200D01*
X353700D01*
X379700Y237200D02*
Y238800D01*
X381300D01*
Y237200D01*
X379700D01*
X329700D02*
Y238800D01*
X331300D01*
Y237200D01*
X329700D01*
X339700D02*
Y238800D01*
X341300D01*
Y237200D01*
X339700D01*
X349700D02*
Y238800D01*
X351300D01*
Y237200D01*
X349700D01*
X359700D02*
Y238800D01*
X361300D01*
Y237200D01*
X359700D01*
X369700D02*
Y238800D01*
X371300D01*
Y237200D01*
X369700D01*
X478200D02*
Y238800D01*
X479800D01*
Y237200D01*
X478200D01*
X428200D02*
Y238800D01*
X429800D01*
Y237200D01*
X428200D01*
X438200D02*
Y238800D01*
X439800D01*
Y237200D01*
X438200D01*
X448200D02*
Y238800D01*
X449800D01*
Y237200D01*
X448200D01*
X458200D02*
Y238800D01*
X459800D01*
Y237200D01*
X458200D01*
X468200D02*
Y238800D01*
X469800D01*
Y237200D01*
X468200D01*
X503700Y448700D02*
X504100D01*
X504500Y449100D01*
X504900Y448700D01*
X505300D01*
Y449100D01*
X504900Y449500D01*
X505300Y449900D01*
Y450300D01*
X504900D01*
X504500Y449900D01*
X504100Y450300D01*
X503700D01*
Y449900D01*
X504100Y449500D01*
X503700Y449100D01*
Y448700D01*
X503676Y451700D02*
X504076D01*
X504476Y452100D01*
X504876Y451700D01*
X505276D01*
Y452100D01*
X504876Y452500D01*
X505276Y452900D01*
Y453300D01*
X504876D01*
X504476Y452900D01*
X504076Y453300D01*
X503676D01*
Y452900D01*
X504076Y452500D01*
X503676Y452100D01*
Y451700D01*
X503700Y454200D02*
X504100D01*
X504500Y454600D01*
X504900Y454200D01*
X505300D01*
Y454600D01*
X504900Y455000D01*
X505300Y455400D01*
Y455800D01*
X504900D01*
X504500Y455400D01*
X504100Y455800D01*
X503700D01*
Y455400D01*
X504100Y455000D01*
X503700Y454600D01*
Y454200D01*
X503676Y456700D02*
X504076D01*
X504476Y457100D01*
X504876Y456700D01*
X505276D01*
Y457100D01*
X504876Y457500D01*
X505276Y457900D01*
Y458300D01*
X504876D01*
X504476Y457900D01*
X504076Y458300D01*
X503676D01*
Y457900D01*
X504076Y457500D01*
X503676Y457100D01*
Y456700D01*
X284705Y368700D02*
X285105D01*
X285505Y369100D01*
X285905Y368700D01*
X286305D01*
Y369100D01*
X285905Y369500D01*
X286305Y369900D01*
Y370300D01*
X285905D01*
X285505Y369900D01*
X285105Y370300D01*
X284705D01*
Y369900D01*
X285105Y369500D01*
X284705Y369100D01*
Y368700D01*
Y371700D02*
X285105D01*
X285505Y372100D01*
X285905Y371700D01*
X286305D01*
Y372100D01*
X285905Y372500D01*
X286305Y372900D01*
Y373300D01*
X285905D01*
X285505Y372900D01*
X285105Y373300D01*
X284705D01*
Y372900D01*
X285105Y372500D01*
X284705Y372100D01*
Y371700D01*
X291200Y368700D02*
X291600D01*
X292000Y369100D01*
X292400Y368700D01*
X292800D01*
Y369100D01*
X292400Y369500D01*
X292800Y369900D01*
Y370300D01*
X292400D01*
X292000Y369900D01*
X291600Y370300D01*
X291200D01*
Y369900D01*
X291600Y369500D01*
X291200Y369100D01*
Y368700D01*
X288700D02*
X289100D01*
X289500Y369100D01*
X289900Y368700D01*
X290300D01*
Y369100D01*
X289900Y369500D01*
X290300Y369900D01*
Y370300D01*
X289900D01*
X289500Y369900D01*
X289100Y370300D01*
X288700D01*
Y369900D01*
X289100Y369500D01*
X288700Y369100D01*
Y368700D01*
X291200Y371700D02*
X291600D01*
X292000Y372100D01*
X292400Y371700D01*
X292800D01*
Y372100D01*
X292400Y372500D01*
X292800Y372900D01*
Y373300D01*
X292400D01*
X292000Y372900D01*
X291600Y373300D01*
X291200D01*
Y372900D01*
X291600Y372500D01*
X291200Y372100D01*
Y371700D01*
X288700D02*
X289100D01*
X289500Y372100D01*
X289900Y371700D01*
X290300D01*
Y372100D01*
X289900Y372500D01*
X290300Y372900D01*
Y373300D01*
X289900D01*
X289500Y372900D01*
X289100Y373300D01*
X288700D01*
Y372900D01*
X289100Y372500D01*
X288700Y372100D01*
Y371700D01*
X291200Y374700D02*
X291600D01*
X292000Y375100D01*
X292400Y374700D01*
X292800D01*
Y375100D01*
X292400Y375500D01*
X292800Y375900D01*
Y376300D01*
X292400D01*
X292000Y375900D01*
X291600Y376300D01*
X291200D01*
Y375900D01*
X291600Y375500D01*
X291200Y375100D01*
Y374700D01*
X288700D02*
X289100D01*
X289500Y375100D01*
X289900Y374700D01*
X290300D01*
Y375100D01*
X289900Y375500D01*
X290300Y375900D01*
Y376300D01*
X289900D01*
X289500Y375900D01*
X289100Y376300D01*
X288700D01*
Y375900D01*
X289100Y375500D01*
X288700Y375100D01*
Y374700D01*
X286200D02*
X286600D01*
X287000Y375100D01*
X287400Y374700D01*
X287800D01*
Y375100D01*
X287400Y375500D01*
X287800Y375900D01*
Y376300D01*
X287400D01*
X287000Y375900D01*
X286600Y376300D01*
X286200D01*
Y375900D01*
X286600Y375500D01*
X286200Y375100D01*
Y374700D01*
X283700D02*
X284100D01*
X284500Y375100D01*
X284900Y374700D01*
X285300D01*
Y375100D01*
X284900Y375500D01*
X285300Y375900D01*
Y376300D01*
X284900D01*
X284500Y375900D01*
X284100Y376300D01*
X283700D01*
Y375900D01*
X284100Y375500D01*
X283700Y375100D01*
Y374700D01*
X569200Y287200D02*
X569600D01*
X570000Y287600D01*
X570400Y287200D01*
X570800D01*
Y287600D01*
X570400Y288000D01*
X570800Y288400D01*
Y288800D01*
X570400D01*
X570000Y288400D01*
X569600Y288800D01*
X569200D01*
Y288400D01*
X569600Y288000D01*
X569200Y287600D01*
Y287200D01*
Y281200D02*
X569600D01*
X570000Y281600D01*
X570400Y281200D01*
X570800D01*
Y281600D01*
X570400Y282000D01*
X570800Y282400D01*
Y282800D01*
X570400D01*
X570000Y282400D01*
X569600Y282800D01*
X569200D01*
Y282400D01*
X569600Y282000D01*
X569200Y281600D01*
Y281200D01*
X410700Y260700D02*
X411100D01*
X411500Y261100D01*
X411900Y260700D01*
X412300D01*
Y261100D01*
X411900Y261500D01*
X412300Y261900D01*
Y262300D01*
X411900D01*
X411500Y261900D01*
X411100Y262300D01*
X410700D01*
Y261900D01*
X411100Y261500D01*
X410700Y261100D01*
Y260700D01*
X406200D02*
X406600D01*
X407000Y261100D01*
X407400Y260700D01*
X407800D01*
Y261100D01*
X407400Y261500D01*
X407800Y261900D01*
Y262300D01*
X407400D01*
X407000Y261900D01*
X406600Y262300D01*
X406200D01*
Y261900D01*
X406600Y261500D01*
X406200Y261100D01*
Y260700D01*
X401700D02*
X402100D01*
X402500Y261100D01*
X402900Y260700D01*
X403300D01*
Y261100D01*
X402900Y261500D01*
X403300Y261900D01*
Y262300D01*
X402900D01*
X402500Y261900D01*
X402100Y262300D01*
X401700D01*
Y261900D01*
X402100Y261500D01*
X401700Y261100D01*
Y260700D01*
X396700D02*
X397100D01*
X397500Y261100D01*
X397900Y260700D01*
X398300D01*
Y261100D01*
X397900Y261500D01*
X398300Y261900D01*
Y262300D01*
X397900D01*
X397500Y261900D01*
X397100Y262300D01*
X396700D01*
Y261900D01*
X397100Y261500D01*
X396700Y261100D01*
Y260700D01*
X392200D02*
X392600D01*
X393000Y261100D01*
X393400Y260700D01*
X393800D01*
Y261100D01*
X393400Y261500D01*
X393800Y261900D01*
Y262300D01*
X393400D01*
X393000Y261900D01*
X392600Y262300D01*
X392200D01*
Y261900D01*
X392600Y261500D01*
X392200Y261100D01*
Y260700D01*
X352700Y474641D02*
X353100D01*
X353500Y475041D01*
X353900Y474641D01*
X354300D01*
Y475041D01*
X353900Y475441D01*
X354300Y475841D01*
Y476241D01*
X353900D01*
X353500Y475841D01*
X353100Y476241D01*
X352700D01*
Y475841D01*
X353100Y475441D01*
X352700Y475041D01*
Y474641D01*
X566700Y284200D02*
X567100D01*
X567500Y284600D01*
X567900Y284200D01*
X568300D01*
Y284600D01*
X567900Y285000D01*
X568300Y285400D01*
Y285800D01*
X567900D01*
X567500Y285400D01*
X567100Y285800D01*
X566700D01*
Y285400D01*
X567100Y285000D01*
X566700Y284600D01*
Y284200D01*
X569200D02*
X569600D01*
X570000Y284600D01*
X570400Y284200D01*
X570800D01*
Y284600D01*
X570400Y285000D01*
X570800Y285400D01*
Y285800D01*
X570400D01*
X570000Y285400D01*
X569600Y285800D01*
X569200D01*
Y285400D01*
X569600Y285000D01*
X569200Y284600D01*
Y284200D01*
X567700Y250200D02*
X568100D01*
X568500Y250600D01*
X568900Y250200D01*
X569300D01*
Y250600D01*
X568900Y251000D01*
X569300Y251400D01*
Y251800D01*
X568900D01*
X568500Y251400D01*
X568100Y251800D01*
X567700D01*
Y251400D01*
X568100Y251000D01*
X567700Y250600D01*
Y250200D01*
X569200Y264700D02*
X569600D01*
X570000Y265100D01*
X570400Y264700D01*
X570800D01*
Y265100D01*
X570400Y265500D01*
X570800Y265900D01*
Y266300D01*
X570400D01*
X570000Y265900D01*
X569600Y266300D01*
X569200D01*
Y265900D01*
X569600Y265500D01*
X569200Y265100D01*
Y264700D01*
X267200Y246200D02*
X267600D01*
X268000Y246600D01*
X268400Y246200D01*
X268800D01*
Y246600D01*
X268400Y247000D01*
X268800Y247400D01*
Y247800D01*
X268400D01*
X268000Y247400D01*
X267600Y247800D01*
X267200D01*
Y247400D01*
X267600Y247000D01*
X267200Y246600D01*
Y246200D01*
X234200Y222200D02*
X234600D01*
X235000Y222600D01*
X235400Y222200D01*
X235800D01*
Y222600D01*
X235400Y223000D01*
X235800Y223400D01*
Y223800D01*
X235400D01*
X235000Y223400D01*
X234600Y223800D01*
X234200D01*
Y223400D01*
X234600Y223000D01*
X234200Y222600D01*
Y222200D01*
X205200Y246700D02*
X205600D01*
X206000Y247100D01*
X206400Y246700D01*
X206800D01*
Y247100D01*
X206400Y247500D01*
X206800Y247900D01*
Y248300D01*
X206400D01*
X206000Y247900D01*
X205600Y248300D01*
X205200D01*
Y247900D01*
X205600Y247500D01*
X205200Y247100D01*
Y246700D01*
X221700Y311200D02*
X222100D01*
X222500Y311600D01*
X222900Y311200D01*
X223300D01*
Y311600D01*
X222900Y312000D01*
X223300Y312400D01*
Y312800D01*
X222900D01*
X222500Y312400D01*
X222100Y312800D01*
X221700D01*
Y312400D01*
X222100Y312000D01*
X221700Y311600D01*
Y311200D01*
X354200Y416200D02*
X354600D01*
X355000Y416600D01*
X355400Y416200D01*
X355800D01*
Y416600D01*
X355400Y417000D01*
X355800Y417400D01*
Y417800D01*
X355400D01*
X355000Y417400D01*
X354600Y417800D01*
X354200D01*
Y417400D01*
X354600Y417000D01*
X354200Y416600D01*
Y416200D01*
X351200D02*
X351600D01*
X352000Y416600D01*
X352400Y416200D01*
X352800D01*
Y416600D01*
X352400Y417000D01*
X352800Y417400D01*
Y417800D01*
X352400D01*
X352000Y417400D01*
X351600Y417800D01*
X351200D01*
Y417400D01*
X351600Y417000D01*
X351200Y416600D01*
Y416200D01*
X347700D02*
X348100D01*
X348500Y416600D01*
X348900Y416200D01*
X349300D01*
Y416600D01*
X348900Y417000D01*
X349300Y417400D01*
Y417800D01*
X348900D01*
X348500Y417400D01*
X348100Y417800D01*
X347700D01*
Y417400D01*
X348100Y417000D01*
X347700Y416600D01*
Y416200D01*
X354200Y419219D02*
X354600D01*
X355000Y419619D01*
X355400Y419219D01*
X355800D01*
Y419619D01*
X355400Y420019D01*
X355800Y420419D01*
Y420819D01*
X355400D01*
X355000Y420419D01*
X354600Y420819D01*
X354200D01*
Y420419D01*
X354600Y420019D01*
X354200Y419619D01*
Y419219D01*
X351200D02*
X351600D01*
X352000Y419619D01*
X352400Y419219D01*
X352800D01*
Y419619D01*
X352400Y420019D01*
X352800Y420419D01*
Y420819D01*
X352400D01*
X352000Y420419D01*
X351600Y420819D01*
X351200D01*
Y420419D01*
X351600Y420019D01*
X351200Y419619D01*
Y419219D01*
X347700D02*
X348100D01*
X348500Y419619D01*
X348900Y419219D01*
X349300D01*
Y419619D01*
X348900Y420019D01*
X349300Y420419D01*
Y420819D01*
X348900D01*
X348500Y420419D01*
X348100Y420819D01*
X347700D01*
Y420419D01*
X348100Y420019D01*
X347700Y419619D01*
Y419219D01*
X225700Y444700D02*
X226100D01*
X226500Y445100D01*
X226900Y444700D01*
X227300D01*
Y445100D01*
X226900Y445500D01*
X227300Y445900D01*
Y446300D01*
X226900D01*
X226500Y445900D01*
X226100Y446300D01*
X225700D01*
Y445900D01*
X226100Y445500D01*
X225700Y445100D01*
Y444700D01*
Y447700D02*
X226100D01*
X226500Y448100D01*
X226900Y447700D01*
X227300D01*
Y448100D01*
X226900Y448500D01*
X227300Y448900D01*
Y449300D01*
X226900D01*
X226500Y448900D01*
X226100Y449300D01*
X225700D01*
Y448900D01*
X226100Y448500D01*
X225700Y448100D01*
Y447700D01*
Y450700D02*
X226100D01*
X226500Y451100D01*
X226900Y450700D01*
X227300D01*
Y451100D01*
X226900Y451500D01*
X227300Y451900D01*
Y452300D01*
X226900D01*
X226500Y451900D01*
X226100Y452300D01*
X225700D01*
Y451900D01*
X226100Y451500D01*
X225700Y451100D01*
Y450700D01*
X229200D02*
X229600D01*
X230000Y451100D01*
X230400Y450700D01*
X230800D01*
Y451100D01*
X230400Y451500D01*
X230800Y451900D01*
Y452300D01*
X230400D01*
X230000Y451900D01*
X229600Y452300D01*
X229200D01*
Y451900D01*
X229600Y451500D01*
X229200Y451100D01*
Y450700D01*
Y447700D02*
X229600D01*
X230000Y448100D01*
X230400Y447700D01*
X230800D01*
Y448100D01*
X230400Y448500D01*
X230800Y448900D01*
Y449300D01*
X230400D01*
X230000Y448900D01*
X229600Y449300D01*
X229200D01*
Y448900D01*
X229600Y448500D01*
X229200Y448100D01*
Y447700D01*
Y444700D02*
X229600D01*
X230000Y445100D01*
X230400Y444700D01*
X230800D01*
Y445100D01*
X230400Y445500D01*
X230800Y445900D01*
Y446300D01*
X230400D01*
X230000Y445900D01*
X229600Y446300D01*
X229200D01*
Y445900D01*
X229600Y445500D01*
X229200Y445100D01*
Y444700D01*
X283200Y488700D02*
X283600D01*
X284000Y489100D01*
X284400Y488700D01*
X284800D01*
Y489100D01*
X284400Y489500D01*
X284800Y489900D01*
Y490300D01*
X284400D01*
X284000Y489900D01*
X283600Y490300D01*
X283200D01*
Y489900D01*
X283600Y489500D01*
X283200Y489100D01*
Y488700D01*
Y484700D02*
X283600D01*
X284000Y485100D01*
X284400Y484700D01*
X284800D01*
Y485100D01*
X284400Y485500D01*
X284800Y485900D01*
Y486300D01*
X284400D01*
X284000Y485900D01*
X283600Y486300D01*
X283200D01*
Y485900D01*
X283600Y485500D01*
X283200Y485100D01*
Y484700D01*
Y480700D02*
X283600D01*
X284000Y481100D01*
X284400Y480700D01*
X284800D01*
Y481100D01*
X284400Y481500D01*
X284800Y481900D01*
Y482300D01*
X284400D01*
X284000Y481900D01*
X283600Y482300D01*
X283200D01*
Y481900D01*
X283600Y481500D01*
X283200Y481100D01*
Y480700D01*
X279700Y488700D02*
X280100D01*
X280500Y489100D01*
X280900Y488700D01*
X281300D01*
Y489100D01*
X280900Y489500D01*
X281300Y489900D01*
Y490300D01*
X280900D01*
X280500Y489900D01*
X280100Y490300D01*
X279700D01*
Y489900D01*
X280100Y489500D01*
X279700Y489100D01*
Y488700D01*
X276200D02*
X276600D01*
X277000Y489100D01*
X277400Y488700D01*
X277800D01*
Y489100D01*
X277400Y489500D01*
X277800Y489900D01*
Y490300D01*
X277400D01*
X277000Y489900D01*
X276600Y490300D01*
X276200D01*
Y489900D01*
X276600Y489500D01*
X276200Y489100D01*
Y488700D01*
X272700D02*
X273100D01*
X273500Y489100D01*
X273900Y488700D01*
X274300D01*
Y489100D01*
X273900Y489500D01*
X274300Y489900D01*
Y490300D01*
X273900D01*
X273500Y489900D01*
X273100Y490300D01*
X272700D01*
Y489900D01*
X273100Y489500D01*
X272700Y489100D01*
Y488700D01*
X279700Y484700D02*
X280100D01*
X280500Y485100D01*
X280900Y484700D01*
X281300D01*
Y485100D01*
X280900Y485500D01*
X281300Y485900D01*
Y486300D01*
X280900D01*
X280500Y485900D01*
X280100Y486300D01*
X279700D01*
Y485900D01*
X280100Y485500D01*
X279700Y485100D01*
Y484700D01*
X276200D02*
X276600D01*
X277000Y485100D01*
X277400Y484700D01*
X277800D01*
Y485100D01*
X277400Y485500D01*
X277800Y485900D01*
Y486300D01*
X277400D01*
X277000Y485900D01*
X276600Y486300D01*
X276200D01*
Y485900D01*
X276600Y485500D01*
X276200Y485100D01*
Y484700D01*
X272700D02*
X273100D01*
X273500Y485100D01*
X273900Y484700D01*
X274300D01*
Y485100D01*
X273900Y485500D01*
X274300Y485900D01*
Y486300D01*
X273900D01*
X273500Y485900D01*
X273100Y486300D01*
X272700D01*
Y485900D01*
X273100Y485500D01*
X272700Y485100D01*
Y484700D01*
Y480700D02*
X273100D01*
X273500Y481100D01*
X273900Y480700D01*
X274300D01*
Y481100D01*
X273900Y481500D01*
X274300Y481900D01*
Y482300D01*
X273900D01*
X273500Y481900D01*
X273100Y482300D01*
X272700D01*
Y481900D01*
X273100Y481500D01*
X272700Y481100D01*
Y480700D01*
X276200D02*
X276600D01*
X277000Y481100D01*
X277400Y480700D01*
X277800D01*
Y481100D01*
X277400Y481500D01*
X277800Y481900D01*
Y482300D01*
X277400D01*
X277000Y481900D01*
X276600Y482300D01*
X276200D01*
Y481900D01*
X276600Y481500D01*
X276200Y481100D01*
Y480700D01*
X279700D02*
X280100D01*
X280500Y481100D01*
X280900Y480700D01*
X281300D01*
Y481100D01*
X280900Y481500D01*
X281300Y481900D01*
Y482300D01*
X280900D01*
X280500Y481900D01*
X280100Y482300D01*
X279700D01*
Y481900D01*
X280100Y481500D01*
X279700Y481100D01*
Y480700D01*
X301200Y451200D02*
X301600D01*
X302000Y451600D01*
X302400Y451200D01*
X302800D01*
Y451600D01*
X302400Y452000D01*
X302800Y452400D01*
Y452800D01*
X302400D01*
X302000Y452400D01*
X301600Y452800D01*
X301200D01*
Y452400D01*
X301600Y452000D01*
X301200Y451600D01*
Y451200D01*
X298200D02*
X298600D01*
X299000Y451600D01*
X299400Y451200D01*
X299800D01*
Y451600D01*
X299400Y452000D01*
X299800Y452400D01*
Y452800D01*
X299400D01*
X299000Y452400D01*
X298600Y452800D01*
X298200D01*
Y452400D01*
X298600Y452000D01*
X298200Y451600D01*
Y451200D01*
X295200D02*
X295600D01*
X296000Y451600D01*
X296400Y451200D01*
X296800D01*
Y451600D01*
X296400Y452000D01*
X296800Y452400D01*
Y452800D01*
X296400D01*
X296000Y452400D01*
X295600Y452800D01*
X295200D01*
Y452400D01*
X295600Y452000D01*
X295200Y451600D01*
Y451200D01*
X301200Y454700D02*
X301600D01*
X302000Y455100D01*
X302400Y454700D01*
X302800D01*
Y455100D01*
X302400Y455500D01*
X302800Y455900D01*
Y456300D01*
X302400D01*
X302000Y455900D01*
X301600Y456300D01*
X301200D01*
Y455900D01*
X301600Y455500D01*
X301200Y455100D01*
Y454700D01*
X298200D02*
X298600D01*
X299000Y455100D01*
X299400Y454700D01*
X299800D01*
Y455100D01*
X299400Y455500D01*
X299800Y455900D01*
Y456300D01*
X299400D01*
X299000Y455900D01*
X298600Y456300D01*
X298200D01*
Y455900D01*
X298600Y455500D01*
X298200Y455100D01*
Y454700D01*
X295200D02*
X295600D01*
X296000Y455100D01*
X296400Y454700D01*
X296800D01*
Y455100D01*
X296400Y455500D01*
X296800Y455900D01*
Y456300D01*
X296400D01*
X296000Y455900D01*
X295600Y456300D01*
X295200D01*
Y455900D01*
X295600Y455500D01*
X295200Y455100D01*
Y454700D01*
X301200Y458024D02*
X301600D01*
X302000Y458424D01*
X302400Y458024D01*
X302800D01*
Y458424D01*
X302400Y458824D01*
X302800Y459224D01*
Y459624D01*
X302400D01*
X302000Y459224D01*
X301600Y459624D01*
X301200D01*
Y459224D01*
X301600Y458824D01*
X301200Y458424D01*
Y458024D01*
X298200D02*
X298600D01*
X299000Y458424D01*
X299400Y458024D01*
X299800D01*
Y458424D01*
X299400Y458824D01*
X299800Y459224D01*
Y459624D01*
X299400D01*
X299000Y459224D01*
X298600Y459624D01*
X298200D01*
Y459224D01*
X298600Y458824D01*
X298200Y458424D01*
Y458024D01*
X295200D02*
X295600D01*
X296000Y458424D01*
X296400Y458024D01*
X296800D01*
Y458424D01*
X296400Y458824D01*
X296800Y459224D01*
Y459624D01*
X296400D01*
X296000Y459224D01*
X295600Y459624D01*
X295200D01*
Y459224D01*
X295600Y458824D01*
X295200Y458424D01*
Y458024D01*
X257232Y444969D02*
X258032Y445769D01*
X258832Y444969D01*
X258032Y444169D01*
X257232Y444969D01*
X261169D02*
X261969Y445769D01*
X262769Y444969D01*
X261969Y444169D01*
X261169Y444969D01*
Y441032D02*
X261969Y441832D01*
X262769Y441032D01*
X261969Y440232D01*
X261169Y441032D01*
X257232Y441032D02*
X258032Y441832D01*
X258832Y441032D01*
X258032Y440232D01*
X257232Y441032D01*
D90*
X214800Y412496D02*
G03*
X214800Y412496I-800J0D01*
G01*
Y431000D02*
G03*
X214800Y431000I-800J0D01*
G01*
Y449504D02*
G03*
X214800Y449504I-800J0D01*
G01*
M02*
