G04*
G04 #@! TF.GenerationSoftware,Altium Limited,Altium Designer,21.7.2 (23)*
G04*
G04 Layer_Color=32896*
%FSLAX25Y25*%
%MOIN*%
G70*
G04*
G04 #@! TF.SameCoordinates,8516E6F5-4896-463E-9EC1-BE868EEF7334*
G04*
G04*
G04 #@! TF.FilePolarity,Positive*
G04*
G01*
G75*
%ADD11C,0.01000*%
G36*
X466483Y255319D02*
X467874D01*
Y254735D01*
X466483D01*
Y253329D01*
X465891D01*
Y254735D01*
X464500D01*
Y255319D01*
X465891D01*
Y256711D01*
X466483D01*
Y255319D01*
D02*
G37*
G36*
X474986Y252500D02*
X474275D01*
X472292Y257621D01*
X473032D01*
X474364Y253899D01*
Y253891D01*
X474372Y253876D01*
X474379Y253854D01*
X474394Y253825D01*
X474401Y253780D01*
X474416Y253736D01*
X474453Y253625D01*
X474497Y253499D01*
X474542Y253358D01*
X474631Y253062D01*
Y253070D01*
X474638Y253085D01*
X474645Y253107D01*
X474653Y253136D01*
X474675Y253218D01*
X474712Y253329D01*
X474749Y253455D01*
X474793Y253595D01*
X474845Y253743D01*
X474904Y253899D01*
X476296Y257621D01*
X476984D01*
X474986Y252500D01*
D02*
G37*
G36*
X471737Y256955D02*
X469687D01*
X469414Y255571D01*
X469421Y255578D01*
X469436Y255586D01*
X469458Y255601D01*
X469495Y255623D01*
X469539Y255645D01*
X469591Y255675D01*
X469710Y255734D01*
X469858Y255793D01*
X470020Y255845D01*
X470198Y255882D01*
X470287Y255897D01*
X470450D01*
X470494Y255889D01*
X470553Y255882D01*
X470620Y255874D01*
X470694Y255860D01*
X470775Y255837D01*
X470953Y255786D01*
X471049Y255749D01*
X471145Y255697D01*
X471241Y255645D01*
X471338Y255586D01*
X471426Y255512D01*
X471515Y255430D01*
X471523Y255423D01*
X471537Y255408D01*
X471560Y255386D01*
X471589Y255349D01*
X471626Y255297D01*
X471663Y255245D01*
X471708Y255179D01*
X471752Y255105D01*
X471789Y255023D01*
X471833Y254935D01*
X471870Y254831D01*
X471907Y254727D01*
X471937Y254616D01*
X471959Y254491D01*
X471974Y254365D01*
X471981Y254232D01*
Y254224D01*
Y254202D01*
Y254165D01*
X471974Y254113D01*
X471967Y254054D01*
X471959Y253987D01*
X471944Y253906D01*
X471930Y253825D01*
X471885Y253632D01*
X471811Y253432D01*
X471767Y253329D01*
X471708Y253233D01*
X471648Y253129D01*
X471574Y253033D01*
X471567Y253025D01*
X471552Y253003D01*
X471523Y252974D01*
X471486Y252937D01*
X471434Y252892D01*
X471375Y252833D01*
X471301Y252781D01*
X471219Y252722D01*
X471130Y252663D01*
X471027Y252611D01*
X470916Y252559D01*
X470797Y252507D01*
X470672Y252470D01*
X470531Y252441D01*
X470383Y252419D01*
X470228Y252411D01*
X470161D01*
X470109Y252419D01*
X470050Y252426D01*
X469983Y252433D01*
X469902Y252441D01*
X469821Y252463D01*
X469636Y252507D01*
X469451Y252574D01*
X469354Y252618D01*
X469258Y252670D01*
X469169Y252729D01*
X469081Y252796D01*
X469073Y252803D01*
X469058Y252811D01*
X469044Y252840D01*
X469014Y252870D01*
X468977Y252907D01*
X468940Y252951D01*
X468896Y253011D01*
X468859Y253077D01*
X468814Y253144D01*
X468770Y253225D01*
X468688Y253403D01*
X468622Y253610D01*
X468600Y253721D01*
X468585Y253839D01*
X469243Y253891D01*
Y253884D01*
Y253869D01*
X469251Y253847D01*
X469258Y253810D01*
X469280Y253728D01*
X469310Y253617D01*
X469354Y253506D01*
X469414Y253381D01*
X469488Y253270D01*
X469576Y253166D01*
X469591Y253159D01*
X469621Y253129D01*
X469680Y253092D01*
X469761Y253048D01*
X469850Y253003D01*
X469961Y252966D01*
X470087Y252937D01*
X470228Y252929D01*
X470272D01*
X470302Y252937D01*
X470390Y252944D01*
X470494Y252974D01*
X470620Y253011D01*
X470746Y253070D01*
X470879Y253159D01*
X470938Y253210D01*
X470997Y253270D01*
X471005Y253277D01*
X471012Y253284D01*
X471027Y253307D01*
X471049Y253329D01*
X471101Y253410D01*
X471160Y253514D01*
X471212Y253640D01*
X471264Y253795D01*
X471301Y253980D01*
X471315Y254076D01*
Y254180D01*
Y254187D01*
Y254202D01*
Y254232D01*
X471308Y254269D01*
Y254313D01*
X471301Y254365D01*
X471278Y254483D01*
X471241Y254624D01*
X471190Y254764D01*
X471116Y254898D01*
X471012Y255023D01*
Y255031D01*
X470997Y255038D01*
X470960Y255075D01*
X470894Y255127D01*
X470805Y255186D01*
X470686Y255238D01*
X470553Y255290D01*
X470398Y255327D01*
X470309Y255342D01*
X470168D01*
X470109Y255334D01*
X470035Y255327D01*
X469946Y255305D01*
X469858Y255282D01*
X469761Y255245D01*
X469665Y255201D01*
X469658Y255194D01*
X469628Y255179D01*
X469584Y255142D01*
X469525Y255105D01*
X469465Y255053D01*
X469406Y254986D01*
X469340Y254920D01*
X469288Y254838D01*
X468696Y254920D01*
X469192Y257554D01*
X471737D01*
Y256955D01*
D02*
G37*
G36*
X439201Y258202D02*
X439260D01*
X439401Y258187D01*
X439556Y258165D01*
X439719Y258128D01*
X439897Y258084D01*
X440067Y258025D01*
X440074D01*
X440089Y258017D01*
X440111Y258010D01*
X440141Y257995D01*
X440222Y257951D01*
X440326Y257899D01*
X440437Y257825D01*
X440555Y257736D01*
X440666Y257640D01*
X440770Y257521D01*
X440785Y257507D01*
X440814Y257462D01*
X440859Y257396D01*
X440918Y257299D01*
X440977Y257181D01*
X441044Y257033D01*
X441110Y256870D01*
X441162Y256685D01*
X440548Y256522D01*
Y256530D01*
X440540Y256537D01*
X440533Y256559D01*
X440526Y256589D01*
X440503Y256656D01*
X440474Y256744D01*
X440429Y256848D01*
X440378Y256944D01*
X440326Y257048D01*
X440259Y257137D01*
X440252Y257144D01*
X440230Y257174D01*
X440185Y257211D01*
X440133Y257262D01*
X440067Y257322D01*
X439978Y257381D01*
X439882Y257440D01*
X439771Y257492D01*
X439756Y257499D01*
X439719Y257514D01*
X439652Y257536D01*
X439564Y257566D01*
X439460Y257588D01*
X439342Y257610D01*
X439208Y257625D01*
X439068Y257632D01*
X438986D01*
X438949Y257625D01*
X438905D01*
X438794Y257618D01*
X438668Y257595D01*
X438528Y257573D01*
X438394Y257536D01*
X438261Y257484D01*
X438246Y257477D01*
X438202Y257462D01*
X438143Y257425D01*
X438069Y257388D01*
X437980Y257329D01*
X437884Y257270D01*
X437795Y257196D01*
X437714Y257114D01*
X437706Y257107D01*
X437677Y257077D01*
X437640Y257026D01*
X437595Y256966D01*
X437543Y256892D01*
X437492Y256804D01*
X437440Y256707D01*
X437388Y256604D01*
Y256596D01*
X437381Y256582D01*
X437373Y256559D01*
X437358Y256522D01*
X437344Y256478D01*
X437329Y256426D01*
X437307Y256367D01*
X437292Y256300D01*
X437255Y256145D01*
X437225Y255967D01*
X437203Y255782D01*
X437196Y255575D01*
Y255568D01*
Y255546D01*
Y255509D01*
X437203Y255464D01*
Y255405D01*
X437210Y255331D01*
X437218Y255257D01*
X437225Y255176D01*
X437255Y254991D01*
X437292Y254798D01*
X437351Y254606D01*
X437425Y254421D01*
Y254413D01*
X437440Y254399D01*
X437447Y254376D01*
X437469Y254347D01*
X437521Y254265D01*
X437603Y254162D01*
X437699Y254051D01*
X437817Y253940D01*
X437958Y253836D01*
X438113Y253740D01*
X438121D01*
X438135Y253733D01*
X438158Y253718D01*
X438195Y253703D01*
X438232Y253688D01*
X438283Y253673D01*
X438402Y253629D01*
X438550Y253592D01*
X438713Y253555D01*
X438890Y253525D01*
X439075Y253518D01*
X439149D01*
X439194Y253525D01*
X439238D01*
X439349Y253540D01*
X439482Y253555D01*
X439623Y253585D01*
X439778Y253629D01*
X439934Y253681D01*
X439941D01*
X439956Y253688D01*
X439971Y253696D01*
X440000Y253710D01*
X440082Y253747D01*
X440170Y253792D01*
X440274Y253844D01*
X440385Y253903D01*
X440489Y253969D01*
X440577Y254043D01*
Y255005D01*
X439068D01*
Y255612D01*
X441243D01*
Y253710D01*
X441236Y253703D01*
X441221Y253696D01*
X441192Y253673D01*
X441155Y253644D01*
X441110Y253614D01*
X441058Y253577D01*
X440992Y253533D01*
X440925Y253488D01*
X440770Y253392D01*
X440592Y253289D01*
X440407Y253192D01*
X440207Y253111D01*
X440200D01*
X440185Y253104D01*
X440156Y253096D01*
X440119Y253081D01*
X440067Y253067D01*
X440008Y253044D01*
X439941Y253030D01*
X439874Y253015D01*
X439712Y252978D01*
X439527Y252941D01*
X439327Y252919D01*
X439120Y252911D01*
X439046D01*
X438994Y252919D01*
X438927D01*
X438846Y252926D01*
X438757Y252941D01*
X438661Y252948D01*
X438446Y252993D01*
X438217Y253044D01*
X437980Y253126D01*
X437862Y253170D01*
X437743Y253229D01*
X437736Y253237D01*
X437714Y253244D01*
X437684Y253266D01*
X437640Y253289D01*
X437588Y253326D01*
X437536Y253363D01*
X437395Y253466D01*
X437247Y253599D01*
X437092Y253762D01*
X436944Y253947D01*
X436811Y254162D01*
Y254169D01*
X436796Y254191D01*
X436781Y254221D01*
X436759Y254273D01*
X436737Y254325D01*
X436715Y254399D01*
X436685Y254473D01*
X436655Y254561D01*
X436626Y254658D01*
X436596Y254769D01*
X436574Y254880D01*
X436552Y254998D01*
X436515Y255257D01*
X436500Y255531D01*
Y255538D01*
Y255568D01*
Y255605D01*
X436507Y255657D01*
Y255723D01*
X436515Y255805D01*
X436530Y255886D01*
X436537Y255982D01*
X436559Y256086D01*
X436574Y256197D01*
X436633Y256434D01*
X436707Y256678D01*
X436811Y256922D01*
X436818Y256929D01*
X436826Y256952D01*
X436840Y256981D01*
X436870Y257026D01*
X436900Y257085D01*
X436937Y257144D01*
X437040Y257285D01*
X437166Y257447D01*
X437321Y257603D01*
X437499Y257758D01*
X437603Y257825D01*
X437706Y257891D01*
X437714Y257899D01*
X437736Y257906D01*
X437765Y257921D01*
X437810Y257943D01*
X437869Y257965D01*
X437936Y257995D01*
X438010Y258025D01*
X438098Y258054D01*
X438195Y258084D01*
X438298Y258106D01*
X438409Y258136D01*
X438528Y258158D01*
X438787Y258195D01*
X438920Y258210D01*
X439157D01*
X439201Y258202D01*
D02*
G37*
G36*
X371201Y257702D02*
X371260D01*
X371401Y257687D01*
X371556Y257665D01*
X371719Y257628D01*
X371897Y257584D01*
X372067Y257525D01*
X372074D01*
X372089Y257517D01*
X372111Y257510D01*
X372141Y257495D01*
X372222Y257451D01*
X372326Y257399D01*
X372437Y257325D01*
X372555Y257236D01*
X372666Y257140D01*
X372770Y257021D01*
X372785Y257007D01*
X372814Y256962D01*
X372859Y256896D01*
X372918Y256799D01*
X372977Y256681D01*
X373044Y256533D01*
X373110Y256370D01*
X373162Y256185D01*
X372548Y256022D01*
Y256030D01*
X372540Y256037D01*
X372533Y256059D01*
X372526Y256089D01*
X372503Y256156D01*
X372474Y256244D01*
X372429Y256348D01*
X372378Y256444D01*
X372326Y256548D01*
X372259Y256637D01*
X372252Y256644D01*
X372230Y256674D01*
X372185Y256711D01*
X372133Y256762D01*
X372067Y256822D01*
X371978Y256881D01*
X371882Y256940D01*
X371771Y256992D01*
X371756Y256999D01*
X371719Y257014D01*
X371652Y257036D01*
X371564Y257066D01*
X371460Y257088D01*
X371342Y257110D01*
X371208Y257125D01*
X371068Y257132D01*
X370986D01*
X370949Y257125D01*
X370905D01*
X370794Y257118D01*
X370668Y257095D01*
X370528Y257073D01*
X370394Y257036D01*
X370261Y256984D01*
X370246Y256977D01*
X370202Y256962D01*
X370143Y256925D01*
X370069Y256888D01*
X369980Y256829D01*
X369884Y256770D01*
X369795Y256696D01*
X369714Y256614D01*
X369706Y256607D01*
X369677Y256577D01*
X369640Y256526D01*
X369595Y256466D01*
X369543Y256392D01*
X369492Y256304D01*
X369440Y256207D01*
X369388Y256104D01*
Y256096D01*
X369381Y256082D01*
X369373Y256059D01*
X369358Y256022D01*
X369344Y255978D01*
X369329Y255926D01*
X369307Y255867D01*
X369292Y255800D01*
X369255Y255645D01*
X369225Y255467D01*
X369203Y255282D01*
X369196Y255075D01*
Y255068D01*
Y255046D01*
Y255009D01*
X369203Y254964D01*
Y254905D01*
X369210Y254831D01*
X369218Y254757D01*
X369225Y254676D01*
X369255Y254491D01*
X369292Y254298D01*
X369351Y254106D01*
X369425Y253921D01*
Y253913D01*
X369440Y253899D01*
X369447Y253876D01*
X369469Y253847D01*
X369521Y253765D01*
X369603Y253662D01*
X369699Y253551D01*
X369817Y253440D01*
X369958Y253336D01*
X370113Y253240D01*
X370121D01*
X370135Y253233D01*
X370158Y253218D01*
X370195Y253203D01*
X370232Y253188D01*
X370283Y253173D01*
X370402Y253129D01*
X370550Y253092D01*
X370713Y253055D01*
X370890Y253025D01*
X371075Y253018D01*
X371149D01*
X371194Y253025D01*
X371238D01*
X371349Y253040D01*
X371482Y253055D01*
X371623Y253085D01*
X371778Y253129D01*
X371934Y253181D01*
X371941D01*
X371956Y253188D01*
X371971Y253196D01*
X372000Y253210D01*
X372082Y253247D01*
X372170Y253292D01*
X372274Y253344D01*
X372385Y253403D01*
X372489Y253469D01*
X372577Y253543D01*
Y254505D01*
X371068D01*
Y255112D01*
X373243D01*
Y253210D01*
X373236Y253203D01*
X373221Y253196D01*
X373192Y253173D01*
X373155Y253144D01*
X373110Y253114D01*
X373058Y253077D01*
X372992Y253033D01*
X372925Y252988D01*
X372770Y252892D01*
X372592Y252789D01*
X372407Y252692D01*
X372207Y252611D01*
X372200D01*
X372185Y252604D01*
X372156Y252596D01*
X372119Y252581D01*
X372067Y252567D01*
X372008Y252544D01*
X371941Y252530D01*
X371874Y252515D01*
X371712Y252478D01*
X371527Y252441D01*
X371327Y252419D01*
X371120Y252411D01*
X371046D01*
X370994Y252419D01*
X370927D01*
X370846Y252426D01*
X370757Y252441D01*
X370661Y252448D01*
X370446Y252493D01*
X370217Y252544D01*
X369980Y252626D01*
X369862Y252670D01*
X369743Y252729D01*
X369736Y252737D01*
X369714Y252744D01*
X369684Y252766D01*
X369640Y252789D01*
X369588Y252826D01*
X369536Y252863D01*
X369395Y252966D01*
X369247Y253099D01*
X369092Y253262D01*
X368944Y253447D01*
X368811Y253662D01*
Y253669D01*
X368796Y253691D01*
X368781Y253721D01*
X368759Y253773D01*
X368737Y253825D01*
X368715Y253899D01*
X368685Y253973D01*
X368655Y254061D01*
X368626Y254158D01*
X368596Y254269D01*
X368574Y254380D01*
X368552Y254498D01*
X368515Y254757D01*
X368500Y255031D01*
Y255038D01*
Y255068D01*
Y255105D01*
X368507Y255157D01*
Y255223D01*
X368515Y255305D01*
X368530Y255386D01*
X368537Y255482D01*
X368559Y255586D01*
X368574Y255697D01*
X368633Y255934D01*
X368707Y256178D01*
X368811Y256422D01*
X368818Y256429D01*
X368826Y256452D01*
X368840Y256481D01*
X368870Y256526D01*
X368900Y256585D01*
X368937Y256644D01*
X369040Y256785D01*
X369166Y256947D01*
X369321Y257103D01*
X369499Y257258D01*
X369603Y257325D01*
X369706Y257391D01*
X369714Y257399D01*
X369736Y257406D01*
X369765Y257421D01*
X369810Y257443D01*
X369869Y257465D01*
X369936Y257495D01*
X370010Y257525D01*
X370098Y257554D01*
X370195Y257584D01*
X370298Y257606D01*
X370409Y257636D01*
X370528Y257658D01*
X370787Y257695D01*
X370920Y257710D01*
X371157D01*
X371201Y257702D01*
D02*
G37*
G36*
X336983Y254319D02*
X338374D01*
Y253735D01*
X336983D01*
Y252329D01*
X336391D01*
Y253735D01*
X335000D01*
Y254319D01*
X336391D01*
Y255711D01*
X336983D01*
Y254319D01*
D02*
G37*
G36*
X345486Y251500D02*
X344775D01*
X342792Y256621D01*
X343532D01*
X344864Y252899D01*
Y252891D01*
X344872Y252876D01*
X344879Y252854D01*
X344894Y252825D01*
X344901Y252780D01*
X344916Y252736D01*
X344953Y252625D01*
X344997Y252499D01*
X345042Y252358D01*
X345131Y252062D01*
Y252070D01*
X345138Y252085D01*
X345145Y252107D01*
X345153Y252136D01*
X345175Y252218D01*
X345212Y252329D01*
X345249Y252455D01*
X345293Y252595D01*
X345345Y252743D01*
X345404Y252899D01*
X346796Y256621D01*
X347484D01*
X345486Y251500D01*
D02*
G37*
G36*
X342237Y255955D02*
X340187D01*
X339914Y254571D01*
X339921Y254578D01*
X339936Y254586D01*
X339958Y254601D01*
X339995Y254623D01*
X340039Y254645D01*
X340091Y254675D01*
X340210Y254734D01*
X340358Y254793D01*
X340520Y254845D01*
X340698Y254882D01*
X340787Y254897D01*
X340950D01*
X340994Y254889D01*
X341053Y254882D01*
X341120Y254874D01*
X341194Y254860D01*
X341275Y254837D01*
X341453Y254786D01*
X341549Y254749D01*
X341645Y254697D01*
X341741Y254645D01*
X341838Y254586D01*
X341926Y254512D01*
X342015Y254430D01*
X342023Y254423D01*
X342037Y254408D01*
X342060Y254386D01*
X342089Y254349D01*
X342126Y254297D01*
X342163Y254245D01*
X342208Y254179D01*
X342252Y254105D01*
X342289Y254023D01*
X342333Y253935D01*
X342370Y253831D01*
X342407Y253727D01*
X342437Y253616D01*
X342459Y253491D01*
X342474Y253365D01*
X342481Y253232D01*
Y253224D01*
Y253202D01*
Y253165D01*
X342474Y253113D01*
X342467Y253054D01*
X342459Y252987D01*
X342444Y252906D01*
X342430Y252825D01*
X342385Y252632D01*
X342311Y252432D01*
X342267Y252329D01*
X342208Y252233D01*
X342148Y252129D01*
X342074Y252033D01*
X342067Y252025D01*
X342052Y252003D01*
X342023Y251974D01*
X341986Y251937D01*
X341934Y251892D01*
X341875Y251833D01*
X341801Y251781D01*
X341719Y251722D01*
X341630Y251663D01*
X341527Y251611D01*
X341416Y251559D01*
X341297Y251507D01*
X341172Y251470D01*
X341031Y251441D01*
X340883Y251419D01*
X340728Y251411D01*
X340661D01*
X340609Y251419D01*
X340550Y251426D01*
X340483Y251433D01*
X340402Y251441D01*
X340321Y251463D01*
X340136Y251507D01*
X339951Y251574D01*
X339854Y251618D01*
X339758Y251670D01*
X339669Y251729D01*
X339581Y251796D01*
X339573Y251803D01*
X339558Y251811D01*
X339544Y251840D01*
X339514Y251870D01*
X339477Y251907D01*
X339440Y251951D01*
X339396Y252011D01*
X339359Y252077D01*
X339314Y252144D01*
X339270Y252225D01*
X339188Y252403D01*
X339122Y252610D01*
X339100Y252721D01*
X339085Y252839D01*
X339743Y252891D01*
Y252884D01*
Y252869D01*
X339751Y252847D01*
X339758Y252810D01*
X339780Y252728D01*
X339810Y252617D01*
X339854Y252506D01*
X339914Y252381D01*
X339988Y252270D01*
X340076Y252166D01*
X340091Y252159D01*
X340121Y252129D01*
X340180Y252092D01*
X340261Y252048D01*
X340350Y252003D01*
X340461Y251966D01*
X340587Y251937D01*
X340728Y251929D01*
X340772D01*
X340802Y251937D01*
X340890Y251944D01*
X340994Y251974D01*
X341120Y252011D01*
X341246Y252070D01*
X341379Y252159D01*
X341438Y252210D01*
X341497Y252270D01*
X341505Y252277D01*
X341512Y252284D01*
X341527Y252307D01*
X341549Y252329D01*
X341601Y252410D01*
X341660Y252514D01*
X341712Y252640D01*
X341764Y252795D01*
X341801Y252980D01*
X341815Y253076D01*
Y253180D01*
Y253187D01*
Y253202D01*
Y253232D01*
X341808Y253269D01*
Y253313D01*
X341801Y253365D01*
X341778Y253483D01*
X341741Y253624D01*
X341690Y253764D01*
X341616Y253898D01*
X341512Y254023D01*
Y254031D01*
X341497Y254038D01*
X341460Y254075D01*
X341394Y254127D01*
X341305Y254186D01*
X341186Y254238D01*
X341053Y254290D01*
X340898Y254327D01*
X340809Y254342D01*
X340668D01*
X340609Y254334D01*
X340535Y254327D01*
X340446Y254305D01*
X340358Y254282D01*
X340261Y254245D01*
X340165Y254201D01*
X340158Y254194D01*
X340128Y254179D01*
X340084Y254142D01*
X340025Y254105D01*
X339965Y254053D01*
X339906Y253986D01*
X339840Y253920D01*
X339788Y253838D01*
X339196Y253920D01*
X339692Y256554D01*
X342237D01*
Y255955D01*
D02*
G37*
G36*
X390300Y254000D02*
X390045D01*
Y254778D01*
X389555D01*
X389483Y254781D01*
X389414Y254787D01*
X389353Y254795D01*
X389297Y254806D01*
X389245Y254817D01*
X389200Y254831D01*
X389159Y254848D01*
X389123Y254864D01*
X389092Y254878D01*
X389065Y254895D01*
X389042Y254909D01*
X389026Y254922D01*
X389012Y254931D01*
X389004Y254939D01*
X388998Y254945D01*
X388995Y254947D01*
X388968Y254981D01*
X388943Y255014D01*
X388923Y255047D01*
X388904Y255083D01*
X388887Y255119D01*
X388876Y255152D01*
X388857Y255216D01*
X388851Y255246D01*
X388846Y255274D01*
X388843Y255299D01*
X388840Y255318D01*
X388837Y255338D01*
Y255349D01*
Y255357D01*
Y255360D01*
X388840Y255413D01*
X388846Y255463D01*
X388857Y255507D01*
X388865Y255546D01*
X388876Y255579D01*
X388887Y255604D01*
X388893Y255618D01*
X388896Y255623D01*
X388918Y255665D01*
X388946Y255701D01*
X388970Y255734D01*
X388995Y255759D01*
X389018Y255778D01*
X389034Y255795D01*
X389045Y255803D01*
X389051Y255806D01*
X389087Y255828D01*
X389128Y255848D01*
X389167Y255864D01*
X389203Y255878D01*
X389236Y255886D01*
X389261Y255892D01*
X389281Y255897D01*
X389286D01*
X389328Y255903D01*
X389375Y255908D01*
X389425Y255911D01*
X389472Y255914D01*
X389513Y255917D01*
X390300D01*
Y254000D01*
D02*
G37*
G36*
X388691Y254676D02*
Y254460D01*
X387857D01*
Y254000D01*
X387621D01*
Y254460D01*
X387361D01*
Y254676D01*
X387621D01*
Y255917D01*
X387812D01*
X388691Y254676D01*
D02*
G37*
G36*
X486589Y255920D02*
X486664Y255906D01*
X486728Y255884D01*
X486783Y255861D01*
X486808Y255848D01*
X486828Y255837D01*
X486847Y255825D01*
X486861Y255814D01*
X486872Y255806D01*
X486880Y255801D01*
X486886Y255798D01*
X486889Y255795D01*
X486941Y255742D01*
X486983Y255684D01*
X487016Y255623D01*
X487044Y255562D01*
X487060Y255510D01*
X487069Y255487D01*
X487074Y255468D01*
X487077Y255451D01*
X487080Y255440D01*
X487083Y255432D01*
Y255429D01*
X486847Y255388D01*
X486836Y255449D01*
X486819Y255501D01*
X486800Y255546D01*
X486781Y255582D01*
X486761Y255609D01*
X486745Y255629D01*
X486734Y255643D01*
X486731Y255645D01*
X486695Y255673D01*
X486656Y255695D01*
X486620Y255709D01*
X486584Y255720D01*
X486551Y255726D01*
X486526Y255731D01*
X486504D01*
X486454Y255729D01*
X486410Y255717D01*
X486371Y255703D01*
X486338Y255690D01*
X486312Y255673D01*
X486293Y255659D01*
X486279Y255648D01*
X486276Y255645D01*
X486246Y255612D01*
X486224Y255576D01*
X486210Y255540D01*
X486199Y255507D01*
X486193Y255476D01*
X486188Y255454D01*
Y255438D01*
Y255435D01*
Y255432D01*
Y255402D01*
X486193Y255374D01*
X486207Y255327D01*
X486227Y255285D01*
X486249Y255249D01*
X486271Y255224D01*
X486290Y255205D01*
X486304Y255194D01*
X486307Y255191D01*
X486310D01*
X486357Y255166D01*
X486401Y255147D01*
X486448Y255133D01*
X486490Y255125D01*
X486526Y255119D01*
X486556Y255114D01*
X486592D01*
X486603Y255116D01*
X486617D01*
X486645Y254909D01*
X486609Y254917D01*
X486576Y254922D01*
X486548Y254928D01*
X486523Y254931D01*
X486504Y254934D01*
X486479D01*
X486421Y254928D01*
X486368Y254917D01*
X486321Y254900D01*
X486282Y254881D01*
X486252Y254861D01*
X486229Y254845D01*
X486216Y254834D01*
X486210Y254828D01*
X486174Y254787D01*
X486146Y254742D01*
X486127Y254698D01*
X486116Y254654D01*
X486108Y254618D01*
X486105Y254587D01*
X486102Y254576D01*
Y254568D01*
Y254562D01*
Y254559D01*
X486108Y254499D01*
X486121Y254443D01*
X486138Y254396D01*
X486160Y254355D01*
X486182Y254321D01*
X486199Y254296D01*
X486213Y254280D01*
X486218Y254274D01*
X486263Y254235D01*
X486310Y254208D01*
X486357Y254188D01*
X486401Y254174D01*
X486440Y254166D01*
X486470Y254163D01*
X486482Y254161D01*
X486498D01*
X486548Y254163D01*
X486595Y254174D01*
X486637Y254188D01*
X486670Y254205D01*
X486698Y254219D01*
X486720Y254233D01*
X486731Y254244D01*
X486736Y254246D01*
X486770Y254285D01*
X486797Y254330D01*
X486822Y254377D01*
X486842Y254427D01*
X486856Y254468D01*
X486861Y254487D01*
X486864Y254504D01*
X486867Y254518D01*
X486869Y254529D01*
X486872Y254535D01*
Y254537D01*
X487108Y254507D01*
X487102Y254463D01*
X487094Y254421D01*
X487069Y254344D01*
X487038Y254277D01*
X487022Y254249D01*
X487005Y254222D01*
X486988Y254197D01*
X486972Y254177D01*
X486958Y254158D01*
X486944Y254144D01*
X486936Y254133D01*
X486928Y254125D01*
X486922Y254119D01*
X486919Y254116D01*
X486886Y254091D01*
X486853Y254066D01*
X486819Y254047D01*
X486783Y254030D01*
X486714Y254003D01*
X486648Y253986D01*
X486617Y253981D01*
X486589Y253975D01*
X486565Y253972D01*
X486543Y253970D01*
X486526Y253967D01*
X486501D01*
X486448Y253970D01*
X486401Y253975D01*
X486354Y253983D01*
X486310Y253994D01*
X486268Y254008D01*
X486232Y254022D01*
X486196Y254039D01*
X486166Y254055D01*
X486135Y254069D01*
X486110Y254086D01*
X486088Y254100D01*
X486072Y254114D01*
X486058Y254125D01*
X486047Y254133D01*
X486041Y254138D01*
X486038Y254141D01*
X486005Y254174D01*
X485977Y254210D01*
X485952Y254246D01*
X485930Y254282D01*
X485914Y254316D01*
X485897Y254352D01*
X485875Y254418D01*
X485869Y254449D01*
X485864Y254476D01*
X485858Y254501D01*
X485855Y254523D01*
X485853Y254540D01*
Y254554D01*
Y254562D01*
Y254565D01*
X485855Y254632D01*
X485867Y254693D01*
X485883Y254745D01*
X485900Y254789D01*
X485916Y254825D01*
X485933Y254853D01*
X485944Y254870D01*
X485947Y254875D01*
X485986Y254917D01*
X486027Y254953D01*
X486072Y254981D01*
X486116Y255003D01*
X486155Y255019D01*
X486185Y255030D01*
X486196Y255033D01*
X486204Y255036D01*
X486210Y255039D01*
X486213D01*
X486166Y255064D01*
X486127Y255089D01*
X486094Y255116D01*
X486066Y255141D01*
X486044Y255163D01*
X486027Y255183D01*
X486019Y255194D01*
X486016Y255199D01*
X485994Y255238D01*
X485977Y255277D01*
X485963Y255316D01*
X485955Y255352D01*
X485950Y255382D01*
X485947Y255404D01*
Y255421D01*
Y255427D01*
X485950Y255474D01*
X485958Y255521D01*
X485969Y255562D01*
X485983Y255598D01*
X485997Y255629D01*
X486008Y255654D01*
X486016Y255667D01*
X486019Y255673D01*
X486047Y255715D01*
X486080Y255751D01*
X486113Y255781D01*
X486146Y255809D01*
X486174Y255828D01*
X486199Y255845D01*
X486216Y255853D01*
X486218Y255856D01*
X486221D01*
X486271Y255878D01*
X486321Y255895D01*
X486371Y255908D01*
X486415Y255917D01*
X486451Y255922D01*
X486482Y255925D01*
X486551D01*
X486589Y255920D01*
D02*
G37*
G36*
X488800Y254000D02*
X488545D01*
Y254778D01*
X488055D01*
X487983Y254781D01*
X487914Y254787D01*
X487853Y254795D01*
X487797Y254806D01*
X487745Y254817D01*
X487700Y254831D01*
X487659Y254848D01*
X487623Y254864D01*
X487592Y254878D01*
X487565Y254895D01*
X487542Y254909D01*
X487526Y254922D01*
X487512Y254931D01*
X487504Y254939D01*
X487498Y254945D01*
X487495Y254947D01*
X487468Y254981D01*
X487443Y255014D01*
X487423Y255047D01*
X487404Y255083D01*
X487387Y255119D01*
X487376Y255152D01*
X487357Y255216D01*
X487351Y255246D01*
X487346Y255274D01*
X487343Y255299D01*
X487340Y255318D01*
X487337Y255338D01*
Y255349D01*
Y255357D01*
Y255360D01*
X487340Y255413D01*
X487346Y255463D01*
X487357Y255507D01*
X487365Y255546D01*
X487376Y255579D01*
X487387Y255604D01*
X487393Y255618D01*
X487396Y255623D01*
X487418Y255665D01*
X487445Y255701D01*
X487470Y255734D01*
X487495Y255759D01*
X487517Y255778D01*
X487534Y255795D01*
X487545Y255803D01*
X487551Y255806D01*
X487587Y255828D01*
X487628Y255848D01*
X487667Y255864D01*
X487703Y255878D01*
X487736Y255886D01*
X487761Y255892D01*
X487781Y255897D01*
X487786D01*
X487828Y255903D01*
X487875Y255908D01*
X487925Y255911D01*
X487972Y255914D01*
X488013Y255917D01*
X488800D01*
Y254000D01*
D02*
G37*
%LPC*%
G36*
X390045Y255690D02*
X389497D01*
X389447Y255687D01*
X389405Y255684D01*
X389372Y255681D01*
X389350Y255676D01*
X389333Y255673D01*
X389322Y255670D01*
X389319D01*
X389283Y255657D01*
X389253Y255640D01*
X389225Y255623D01*
X389200Y255604D01*
X389184Y255584D01*
X389170Y255571D01*
X389161Y255559D01*
X389159Y255557D01*
X389139Y255523D01*
X389123Y255490D01*
X389112Y255454D01*
X389106Y255424D01*
X389101Y255396D01*
X389098Y255371D01*
Y255357D01*
Y255354D01*
Y255352D01*
X389103Y255294D01*
X389114Y255244D01*
X389131Y255199D01*
X389151Y255163D01*
X389170Y255136D01*
X389187Y255114D01*
X389197Y255102D01*
X389203Y255097D01*
X389223Y255080D01*
X389247Y255066D01*
X389300Y255044D01*
X389358Y255028D01*
X389416Y255017D01*
X389469Y255011D01*
X389491Y255008D01*
X389511D01*
X389530Y255006D01*
X390045D01*
Y255690D01*
D02*
G37*
G36*
X387857Y255535D02*
Y254676D01*
X388461D01*
X387857Y255535D01*
D02*
G37*
G36*
X488545Y255690D02*
X487997D01*
X487947Y255687D01*
X487905Y255684D01*
X487872Y255681D01*
X487850Y255676D01*
X487833Y255673D01*
X487822Y255670D01*
X487819D01*
X487783Y255657D01*
X487753Y255640D01*
X487725Y255623D01*
X487700Y255604D01*
X487684Y255584D01*
X487670Y255571D01*
X487662Y255559D01*
X487659Y255557D01*
X487639Y255523D01*
X487623Y255490D01*
X487612Y255454D01*
X487606Y255424D01*
X487601Y255396D01*
X487598Y255371D01*
Y255357D01*
Y255354D01*
Y255352D01*
X487603Y255294D01*
X487614Y255244D01*
X487631Y255199D01*
X487650Y255163D01*
X487670Y255136D01*
X487686Y255114D01*
X487698Y255102D01*
X487703Y255097D01*
X487722Y255080D01*
X487747Y255066D01*
X487800Y255044D01*
X487858Y255028D01*
X487916Y255017D01*
X487969Y255011D01*
X487991Y255008D01*
X488011D01*
X488030Y255006D01*
X488545D01*
Y255690D01*
D02*
G37*
%LPD*%
D11*
X389200Y228700D02*
Y251500D01*
X321100Y228600D02*
Y251500D01*
X389200D01*
X321100Y228600D02*
X332100D01*
X378000Y228700D02*
X389200D01*
X378000D02*
Y232800D01*
X369500D02*
X378000D01*
X369500Y228700D02*
Y232800D01*
X341400Y228700D02*
X369500D01*
X341400D02*
Y232800D01*
X332100D02*
X341400D01*
X332100Y228600D02*
Y232800D01*
X487700Y228700D02*
Y251500D01*
X419600Y228600D02*
X419600Y251500D01*
X487700D01*
X419600Y228600D02*
X430600Y228600D01*
X476500Y228700D02*
X487700D01*
X476500D02*
Y232800D01*
X468000D02*
X476500D01*
X468000D02*
X468000Y228700D01*
X439900D02*
X468000D01*
X439900D02*
Y232800D01*
X430600D02*
X439900D01*
X430600Y228600D02*
Y232800D01*
X581500Y211000D02*
G03*
X589199Y219199I-250J7949D01*
G01*
Y490301D02*
G03*
X579500Y500000I-9699J0D01*
G01*
X197743Y222257D02*
G03*
X209000Y211000I11257J0D01*
G01*
X204500Y499500D02*
G03*
X197698Y492698I0J-6802D01*
G01*
X197500Y221500D02*
Y492443D01*
X589199Y219199D02*
Y490301D01*
X204500Y499501D02*
X579481Y499988D01*
X208500Y210954D02*
X581620Y210954D01*
M02*
