G04*
G04 #@! TF.GenerationSoftware,Altium Limited,Altium Designer,21.7.2 (23)*
G04*
G04 Layer_Color=255*
%FSLAX25Y25*%
%MOIN*%
G70*
G04*
G04 #@! TF.SameCoordinates,8516E6F5-4896-463E-9EC1-BE868EEF7334*
G04*
G04*
G04 #@! TF.FilePolarity,Positive*
G04*
G01*
G75*
%ADD11C,0.01000*%
%ADD75C,0.05906*%
%ADD76R,0.05906X0.05906*%
%ADD77R,0.06693X0.06693*%
%ADD78C,0.06693*%
%ADD79R,0.06693X0.06693*%
%ADD80C,0.09843*%
%ADD81O,0.13780X0.09843*%
%ADD82C,0.08661*%
%ADD83C,0.19685*%
D11*
X581500Y211000D02*
G03*
X589199Y219199I-250J7949D01*
G01*
Y490301D02*
G03*
X579500Y500000I-9699J0D01*
G01*
X197743Y222257D02*
G03*
X209000Y211000I11257J0D01*
G01*
X204500Y499500D02*
G03*
X197698Y492698I0J-6802D01*
G01*
X197500Y221500D02*
Y492443D01*
X589199Y219199D02*
Y490301D01*
X204500Y499501D02*
X579481Y499988D01*
X208500Y210954D02*
X581620Y210954D01*
D75*
X505315Y372500D02*
D03*
X515158Y372500D02*
D03*
X525000D02*
D03*
X534842D02*
D03*
X495472D02*
D03*
D76*
X544685Y372500D02*
D03*
D77*
X428500Y362000D02*
D03*
X400500Y481000D02*
D03*
X285500Y349000D02*
D03*
X225500Y268000D02*
D03*
X314500Y279500D02*
D03*
X502500Y235000D02*
D03*
X504500Y340000D02*
D03*
D78*
X418500Y362000D02*
D03*
X408500D02*
D03*
X398500D02*
D03*
X388500D02*
D03*
X378500D02*
D03*
X368500D02*
D03*
X358500D02*
D03*
X410500Y481000D02*
D03*
X420500D02*
D03*
X430500D02*
D03*
X440500D02*
D03*
X448000Y424500D02*
D03*
Y414500D02*
D03*
Y404500D02*
D03*
X225500Y349000D02*
D03*
X235500D02*
D03*
X245500D02*
D03*
X255500D02*
D03*
X265500D02*
D03*
X275500D02*
D03*
X285500Y268000D02*
D03*
X275500D02*
D03*
X265500D02*
D03*
X255500D02*
D03*
X245500D02*
D03*
X235500D02*
D03*
X464500Y279500D02*
D03*
X454500Y279500D02*
D03*
X444500Y279500D02*
D03*
X434500D02*
D03*
X424500D02*
D03*
X414500D02*
D03*
X404500D02*
D03*
X394500D02*
D03*
X384500D02*
D03*
X374500D02*
D03*
X364500D02*
D03*
X354500D02*
D03*
X344500D02*
D03*
X334500D02*
D03*
X324500D02*
D03*
X474500D02*
D03*
X484500D02*
D03*
X494500D02*
D03*
X504500D02*
D03*
X552500Y235000D02*
D03*
X542500D02*
D03*
X532500D02*
D03*
X522500D02*
D03*
X512500D02*
D03*
X314500Y340000D02*
D03*
X324500Y340000D02*
D03*
X334500D02*
D03*
X344500D02*
D03*
X494500D02*
D03*
X484500D02*
D03*
X474500D02*
D03*
X464500D02*
D03*
X454500D02*
D03*
X444500D02*
D03*
X434500D02*
D03*
X424500D02*
D03*
X414500D02*
D03*
X404500D02*
D03*
X394500D02*
D03*
X384500D02*
D03*
X374500D02*
D03*
X364500D02*
D03*
X354500D02*
D03*
X380500Y238000D02*
D03*
X340500D02*
D03*
X350500D02*
D03*
X360500D02*
D03*
X370500D02*
D03*
X479000D02*
D03*
X439000D02*
D03*
X449000D02*
D03*
X459000D02*
D03*
X469000D02*
D03*
D79*
X448000Y434500D02*
D03*
X330500Y238000D02*
D03*
X429000D02*
D03*
D80*
X214000Y412496D02*
D03*
Y431000D02*
D03*
Y449504D02*
D03*
D81*
X213000Y370000D02*
D03*
Y390000D02*
D03*
D82*
X533291Y334600D02*
D03*
X564000D02*
D03*
D83*
X578000Y488500D02*
D03*
Y222000D02*
D03*
X209000D02*
D03*
Y488000D02*
D03*
M02*
